<?xml version="1.0" encoding="utf-8" standalone="yes"?>
<!DOCTYPE svg PUBLIC "-//W3C//DTD SVG 1.1//EN" "http://www.w3.org/Graphics/SVG/1.1/DTD/svg11.dtd">
<svg width="650" height="650" viewBox="0 0 650 650" style="fill:none;stroke:none;fill-rule:evenodd;clip-rule:evenodd;stroke-linecap:round;stroke-linejoin:round;stroke-miterlimit:1.5;" version="1.1" xmlns="http://www.w3.org/2000/svg" xmlns:xlink="http://www.w3.org/1999/xlink"><style class="text-font-style fontImports" data-font-family="Roboto">@import url('https://fonts.googleapis.com/css2?family=Roboto:wght@400;700&amp;display=block');</style><rect id="" x="0" y="0" width="650" height="650" style="fill: #ffffff;"></rect><g id="items" style="isolation: isolate"><g id="blend" style="mix-blend-mode: normal"><g id="g-root-tf_4gp6hd1cvqccl-fill" data-item-order="-419904" transform="translate(-9, -9)"><g id="tf_4gp6hd1cvqccl-fill" stroke="none" fill="#ffffff"><g><path d="M 10 10L 658 10L 658 658L 10 658Z"></path></g></g></g><g id="g-root-1.g-1_fr_8xrms11cvozk3-fill" data-item-order="-323990" transform="translate(39, 219)"><g id="1.g-1_fr_8xrms11cvozk3-fill" stroke="none" fill="#1eabda"><g><path d="M 196 114L 226 154L 250 122L 220 82L 196 114ZM 226 154L 196 194L 220 226L 250 186L 226 154ZM 166 10L 142 42L 172 82L 196 50L 166 10ZM 166 298L 142 266L 172 226L 196 258L 166 298Z"></path></g></g><g id="1.g-1_fr_8xrms11cvozk3-fill" stroke="none" fill="#1eabda"><g><path d="M 118 10L 10 154L 58 154L 142 42L 166 10L 118 10ZM 10 154L 118 298L 166 298L 142 266L 58 154L 10 154Z"></path></g></g></g><g id="g-root-2.g-2_fr_1uo1ngx1cvoxs6-fill" data-item-order="-323986" transform="translate(147, 243)"><g id="2.g-2_fr_1uo1ngx1cvoxs6-fill" stroke="none" fill="#3cc583"><g><path d="M 148 250L 124 218L 154 178L 178 210L 148 250ZM 238 130L 190 130L 178 146L 202 178L 238 130ZM 190 130L 238 130L 202 82L 178 114L 190 130ZM 148 10L 124 42L 154 82L 178 50L 148 10Z"></path></g></g><g id="2.g-2_fr_1uo1ngx1cvoxs6-fill" stroke="none" fill="#3cc583"><g><path d="M 10 130L 100 250L 148 250L 124 218L 58 130L 10 130ZM 100 10L 10 130L 58 130L 124 42L 148 10L 100 10Z"></path></g></g></g><g id="g-root-3.g-3_fr_1hcl53l1cvozd5-fill" data-item-order="-323982" transform="translate(255, 267)"><g id="3.g-3_fr_1hcl53l1cvozd5-fill" stroke="none" fill="#92bd39"><g><path d="M 130 202L 106 170L 136 130L 160 162L 130 202ZM 130 10L 106 42L 136 82L 160 50L 130 10ZM 166 106L 202 106L 184 82L 166 106ZM 184 130L 202 106L 166 106L 184 130Z"></path></g></g><g id="3.g-3_fr_1hcl53l1cvozd5-fill" stroke="none" fill="#92bd39"><g><path d="M 10 106L 82 202L 130 202L 106 170L 58 106L 10 106ZM 82 10L 10 106L 58 106L 106 42L 130 10L 82 10Z"></path></g></g></g><g id="g-root-4.g-4_fr_1cwrmz51cvp05g-fill" data-item-order="-323978" transform="translate(363, 291)"><g id="4.g-4_fr_1cwrmz51cvp05g-fill" stroke="none" fill="#e0cb15"><g><path d="M 88 42L 112 10L 142 50L 118 82L 142 114L 112 154L 88 122L 118 82L 88 42Z"></path></g></g><g id="4.g-4_fr_1cwrmz51cvp05g-fill" stroke="none" fill="#e0cb15"><g><path d="M 10 82L 64 154L 112 154L 88 122L 58 82L 10 82ZM 64 10L 10 82L 58 82L 88 42L 112 10L 64 10Z"></path></g></g></g><g id="g-root-5.g-5_fr_zlxlox1cvoykn-fill" data-item-order="-323974" transform="translate(471, 315)"><g id="5.g-5_fr_zlxlox1cvoykn-fill" stroke="none" fill="#de8431"><g><path d="M 93.880184 106L 129.760284 58L 82.000284 58L 70.333984 74.5L 93.880184 106ZM 129.760284 58L 93.880184 10L 70.333984 41.5L 82.000284 58L 129.760284 58Z"></path></g></g><g id="5.g-5_fr_zlxlox1cvoykn-fill" stroke="none" fill="#de8431"><g><path d="M 45.88 10L 10 58L 58 58L 70.3337 41.5L 93.88 10L 45.88 10ZM 10 58L 45.88 106L 93.88 106L 70.3337 74.5L 58 58L 10 58Z"></path></g></g></g><g id="g-root-tx_salespro_hva2a91cvoxs2-fill" data-item-order="0" transform="translate(213, 39)"><g id="tx_salespro_hva2a91cvoxs2-fill" stroke="none" fill="#484848"><g><text style="font: 20px Roboto, sans-serif; white-space: pre;" font-size="20px" font-family="Roboto, sans-serif"><tspan x="16.89" y="34" dominant-baseline="ideographic">Sales Process Funnel</tspan></text></g></g></g><g id="g-root-tx_leadgene_4jtjwx1cvozcz-fill" data-item-order="0" transform="translate(93, 87)"><g id="tx_leadgene_4jtjwx1cvozcz-fill" stroke="none" fill="#1eabda"><g><text style="font: bold 20px Roboto, sans-serif; white-space: pre;" font-weight="bold" font-size="20px" font-family="Roboto, sans-serif"><tspan x="60.21" y="34" dominant-baseline="ideographic">Lead </tspan><tspan x="32.64" y="58" dominant-baseline="ideographic">Generation</tspan></text></g></g></g><g id="g-root-tx_identify_1hegkcx1cvoydo-fill" data-item-order="0" transform="translate(93, 147)"><g id="tx_identify_1hegkcx1cvoydo-fill" stroke="none" fill="#32444a"><g><text style="font: 15px Roboto, sans-serif; white-space: pre;" font-size="15px" font-family="Roboto, sans-serif"><tspan x="14.03" y="27.6" dominant-baseline="ideographic">Identifying potential </tspan><tspan x="44.58" y="45.6" dominant-baseline="ideographic">customers</tspan></text></g></g></g><g id="g-root-tx_quotatio_90w07l1cvp0qv-fill" data-item-order="0" transform="translate(273, 135)"><g id="tx_quotatio_90w07l1cvp0qv-fill" stroke="none" fill="#92bd39"><g><text style="font: bold 20px Roboto, sans-serif; white-space: pre;" font-weight="bold" font-size="20px" font-family="Roboto, sans-serif"><tspan x="37.84" y="34" dominant-baseline="ideographic">Quotation </tspan><tspan x="32.64" y="58" dominant-baseline="ideographic">Generation</tspan></text></g></g></g><g id="g-root-tx_creating_1hfpij51cvp0js-fill" data-item-order="0" transform="translate(273, 195)"><g id="tx_creating_1hfpij51cvp0js-fill" stroke="none" fill="#424736"><g><text style="font: 15px Roboto, sans-serif; white-space: pre;" font-size="15px" font-family="Roboto, sans-serif"><tspan x="12.12" y="27.6" dominant-baseline="ideographic">Creating customized </tspan><tspan x="61.08" y="45.6" dominant-baseline="ideographic">offers</tspan></text></g></g></g><g id="g-root-tx_fulfillm_74f811cvp0jv-fill" data-item-order="0" transform="translate(453, 207)"><g id="tx_fulfillm_74f811cvp0jv-fill" stroke="none" fill="#de8431"><g><text style="font: bold 20px Roboto, sans-serif; white-space: pre;" font-weight="bold" font-size="20px" font-family="Roboto, sans-serif"><tspan x="33.93" y="34" dominant-baseline="ideographic">Fulfillment</tspan></text></g></g></g><g id="g-root-tx_deliveri_1lxefwx1cvoyrw-fill" data-item-order="0" transform="translate(453, 243)"><g id="tx_deliveri_1lxefwx1cvoyrw-fill" stroke="none" fill="#4c4034"><g><text style="font: 15px Roboto, sans-serif; white-space: pre;" font-size="15px" font-family="Roboto, sans-serif"><tspan x="15.88" y="27.6" dominant-baseline="ideographic">Delivering products </tspan><tspan x="36.06" y="45.6" dominant-baseline="ideographic">to customers</tspan></text></g></g></g><g id="g-root-tx_ordercon_qteyvl1cvp0jt-fill" data-item-order="0" transform="translate(369, 471)"><g id="tx_ordercon_qteyvl1cvp0jt-fill" stroke="none" fill="#e0cb15"><g><text style="font: bold 20px Roboto, sans-serif; white-space: pre;" font-weight="bold" font-size="20px" font-family="Roboto, sans-serif"><tspan x="56.84" y="34" dominant-baseline="ideographic">Order </tspan><tspan x="23.15" y="58" dominant-baseline="ideographic">Confirmation</tspan></text></g></g></g><g id="g-root-tx_productd_14301zl1cvozyl-fill" data-item-order="0" transform="translate(190, 519)"><g id="tx_productd_14301zl1cvozyl-fill" stroke="none" fill="#3cc583"><g><text style="font: bold 20px Roboto, sans-serif; white-space: pre;" font-weight="bold" font-size="20px" font-family="Roboto, sans-serif"><tspan x="13.02" y="34" dominant-baseline="ideographic">Product Details</tspan></text></g></g></g><g id="g-root-tx_finalizi_dikxld1cvoyyy-fill" data-item-order="0" transform="translate(369, 531)"><g id="tx_finalizi_dikxld1cvoyyy-fill" stroke="none" fill="#46432d"><g><text style="font: 15px Roboto, sans-serif; white-space: pre;" font-size="15px" font-family="Roboto, sans-serif"><tspan x="28.92" y="27.6" dominant-baseline="ideographic">Finalizing sales </tspan><tspan x="40.39" y="45.6" dominant-baseline="ideographic">agreements</tspan></text></g></g></g><g id="g-root-tx_providin_mccikx1cvoz5y-fill" data-item-order="0" transform="translate(190, 555)"><g id="tx_providin_mccikx1cvoz5y-fill" stroke="none" fill="#374840"><g><text style="font: 15px Roboto, sans-serif; white-space: pre;" font-size="15px" font-family="Roboto, sans-serif"><tspan x="21.29" y="27.6" dominant-baseline="ideographic">Providing product </tspan><tspan x="41.39" y="45.6" dominant-baseline="ideographic">information</tspan></text></g></g></g><g id="g-root-tf_4gp6hd1cvqccl-stroke" data-item-order="-419904" transform="translate(-9, -9)"></g><g id="g-root-1.g-1_fr_8xrms11cvozk3-stroke" data-item-order="-323990" transform="translate(39, 219)"><g id="1.g-1_fr_8xrms11cvozk3-stroke" fill="none" stroke-linecap="round" stroke-linejoin="round" stroke-miterlimit="4" stroke="#ffffff" stroke-width="2"><g><path d="M 196 114L 226 154L 250 122L 220 82L 196 114ZM 226 154L 196 194L 220 226L 250 186L 226 154ZM 166 10L 142 42L 172 82L 196 50L 166 10ZM 166 298L 142 266L 172 226L 196 258L 166 298Z"></path></g></g><g id="1.g-1_fr_8xrms11cvozk3-stroke" fill="none" stroke-linecap="round" stroke-linejoin="round" stroke-miterlimit="4" stroke="#ffffff" stroke-width="2"><g><path d="M 118 10L 10 154L 58 154L 166 10L 118 10ZM 10 154L 118 298L 166 298L 58 154L 10 154Z"></path></g></g></g><g id="g-root-2.g-2_fr_1uo1ngx1cvoxs6-stroke" data-item-order="-323986" transform="translate(147, 243)"><g id="2.g-2_fr_1uo1ngx1cvoxs6-stroke" fill="none" stroke-linecap="round" stroke-linejoin="round" stroke-miterlimit="4" stroke="#ffffff" stroke-width="2"><g><path d="M 148 250L 124 218L 154 178L 178 210L 148 250ZM 238 130L 190 130L 178 146L 202 178L 238 130ZM 190 130L 238 130L 202 82L 178 114L 190 130ZM 148 10L 124 42L 154 82L 178 50L 148 10Z"></path></g></g><g id="2.g-2_fr_1uo1ngx1cvoxs6-stroke" fill="none" stroke-linecap="round" stroke-linejoin="round" stroke-miterlimit="4" stroke="#ffffff" stroke-width="2"><g><path d="M 10 130L 100 250L 148 250L 58 130L 10 130ZM 100 10L 10 130L 58 130L 148 10L 100 10Z"></path></g></g></g><g id="g-root-3.g-3_fr_1hcl53l1cvozd5-stroke" data-item-order="-323982" transform="translate(255, 267)"><g id="3.g-3_fr_1hcl53l1cvozd5-stroke" fill="none" stroke-linecap="round" stroke-linejoin="round" stroke-miterlimit="4" stroke="#ffffff" stroke-width="2"><g><path d="M 130 202L 106 170L 136 130L 160 162L 130 202ZM 130 10L 106 42L 136 82L 160 50L 130 10ZM 166 106L 202 106L 184 82L 166 106ZM 184 130L 202 106L 166 106L 184 130Z"></path></g></g><g id="3.g-3_fr_1hcl53l1cvozd5-stroke" fill="none" stroke-linecap="round" stroke-linejoin="round" stroke-miterlimit="4" stroke="#ffffff" stroke-width="2"><g><path d="M 10 106L 82 202L 130 202L 58 106L 10 106ZM 82 10L 10 106L 58 106L 130 10L 82 10Z"></path></g></g></g><g id="g-root-4.g-4_fr_1cwrmz51cvp05g-stroke" data-item-order="-323978" transform="translate(363, 291)"><g id="4.g-4_fr_1cwrmz51cvp05g-stroke" fill="none" stroke-linecap="round" stroke-linejoin="round" stroke-miterlimit="4" stroke="#ffffff" stroke-width="2"><g><path d="M 88 42L 112 10L 142 50L 118 82L 142 114L 112 154L 88 122L 118 82L 88 42Z"></path></g></g><g id="4.g-4_fr_1cwrmz51cvp05g-stroke" fill="none" stroke-linecap="round" stroke-linejoin="round" stroke-miterlimit="4" stroke="#ffffff" stroke-width="2"><g><path d="M 10 82L 64 154L 112 154L 58 82L 10 82ZM 64 10L 10 82L 58 82L 112 10L 64 10Z"></path></g></g></g><g id="g-root-5.g-5_fr_zlxlox1cvoykn-stroke" data-item-order="-323974" transform="translate(471, 315)"><g id="5.g-5_fr_zlxlox1cvoykn-stroke" fill="none" stroke-linecap="round" stroke-linejoin="round" stroke-miterlimit="4" stroke="#ffffff" stroke-width="2"><g><path d="M 93.880184 106L 129.760284 58L 82.000284 58L 70.333984 74.5L 93.880184 106ZM 129.760284 58L 93.880184 10L 70.333984 41.5L 82.000284 58L 129.760284 58Z"></path></g></g><g id="5.g-5_fr_zlxlox1cvoykn-stroke" fill="none" stroke-linecap="round" stroke-linejoin="round" stroke-miterlimit="4" stroke="#ffffff" stroke-width="2"><g><path d="M 45.88 10L 10 58L 58 58L 93.88 10L 45.88 10ZM 10 58L 45.88 106L 93.88 106L 58 58L 10 58Z"></path></g></g></g><g id="g-root-tx_salespro_hva2a91cvoxs2-stroke" data-item-order="0" transform="translate(213, 39)"></g><g id="g-root-tx_leadgene_4jtjwx1cvozcz-stroke" data-item-order="0" transform="translate(93, 87)"></g><g id="g-root-tx_identify_1hegkcx1cvoydo-stroke" data-item-order="0" transform="translate(93, 147)"></g><g id="g-root-tx_quotatio_90w07l1cvp0qv-stroke" data-item-order="0" transform="translate(273, 135)"></g><g id="g-root-tx_creating_1hfpij51cvp0js-stroke" data-item-order="0" transform="translate(273, 195)"></g><g id="g-root-tx_fulfillm_74f811cvp0jv-stroke" data-item-order="0" transform="translate(453, 207)"></g><g id="g-root-tx_deliveri_1lxefwx1cvoyrw-stroke" data-item-order="0" transform="translate(453, 243)"></g><g id="g-root-tx_ordercon_qteyvl1cvp0jt-stroke" data-item-order="0" transform="translate(369, 471)"></g><g id="g-root-tx_productd_14301zl1cvozyl-stroke" data-item-order="0" transform="translate(190, 519)"></g><g id="g-root-tx_finalizi_dikxld1cvoyyy-stroke" data-item-order="0" transform="translate(369, 531)"></g><g id="g-root-tx_providin_mccikx1cvoz5y-stroke" data-item-order="0" transform="translate(190, 555)"></g></g></g></svg>