<?xml version="1.0" encoding="utf-8" standalone="yes"?>
<!DOCTYPE svg PUBLIC "-//W3C//DTD SVG 1.1//EN" "http://www.w3.org/Graphics/SVG/1.1/DTD/svg11.dtd">
<svg width="950" height="458" viewBox="0 0 950 458" style="fill:none;stroke:none;fill-rule:evenodd;clip-rule:evenodd;stroke-linecap:round;stroke-linejoin:round;stroke-miterlimit:1.5;" version="1.1" xmlns="http://www.w3.org/2000/svg" xmlns:xlink="http://www.w3.org/1999/xlink"><style class="text-font-style fontImports" data-font-family="Roboto">@import url('https://fonts.googleapis.com/css2?family=Roboto:wght@400;700&amp;display=block');</style><rect id="" x="0" y="0" width="950" height="458" style="fill: #ffffff;"></rect><g id="items" style="isolation: isolate"><g id="blend" style="mix-blend-mode: normal"><g id="g-root-tf_1luw3vz1axw1z7-fill" data-item-order="-432288" transform="translate(-9, -9)"><g id="tf_1luw3vz1axw1z7-fill" stroke="none" fill="#ffffff"><g><path d="M 10 10L 958 10L 958 466L 10 466Z"></path></g></g></g><g id="g-root-4.cu_sy_i0vwdr1axt98n-fill" data-item-order="-68603" transform="translate(465, 99)"><g id="4.cu_sy_i0vwdr1axt98n-fill" stroke="none" fill="#ba5de5"><g><path d="M 10 10L 10 86.7208C 10 116.955 22.0107 145.952 43.3898 167.331L 62.0295 185.971L 46 202L 112 202L 112 136L 95.9706 152.029L 77.3309 133.39C 64.9536 121.012 58 104.2251 58 86.7208L 58 10L 10 10Z"></path></g></g></g><g id="g-root-3.cu_sy_1q5ptbj1axunm0-fill" data-item-order="-68599" transform="translate(351, 99)"><g id="3.cu_sy_1q5ptbj1axunm0-fill" stroke="none" fill="#de8431"><g><path d="M 112 10L 112 99.1663C 112 121.429 103.1626 142.781 87.4293 158.531L 59.994 185.994L 76 202L 10 202L 10.000008 136L 26.0528 152.053L 53.4697 124.608C 60.2125 117.858 64 108.7073 64 99.1663L 64 10L 112 10Z"></path></g></g></g><g id="g-root-2.cu_sy_18f29wv1axumtd-fill" data-item-order="-68595" transform="translate(525, 99)"><g id="2.cu_sy_18f29wv1axumtd-fill" stroke="none" fill="#4e88e7"><g><path d="M 10 10L 10 34C 10 67.1371 36.8629 94 70 94L 75.9998 94L 75.9998 116.669L 122.669 70.0001L 75.9998 23.3311L 75.9998 46L 70 46C 63.3726 46 58 40.6274 58 34L 58 10L 10 10Z"></path></g></g></g><g id="g-root-1.cu_sy_hsrq9b1axumte-fill" data-item-order="-68591" transform="translate(280.3299865722656, 99)"><g id="1.cu_sy_hsrq9b1axumte-fill" stroke="none" fill="#3cc583"><g><path d="M 74.6679 10L 74.6679 34C 74.6679 40.6274 69.2953 46 62.6679 46L 56.6691 46L 56.6691 23.3311L 10 70.0001L 56.669 116.669L 56.6691 94L 62.6679 94C 95.8049 94 122.668 67.1371 122.668 34L 122.668 10L 74.6679 10Z"></path></g></g></g><g id="g-root-tx_whatcrit_1ltn5pr1axvzt4-fill" data-item-order="0" transform="translate(296.99798583984375, 39)"><g id="tx_whatcrit_1ltn5pr1axvzt4-fill" stroke="none" fill="#484848"><g><text style="font: bold 20px Roboto, sans-serif; white-space: pre;" font-weight="bold" font-size="20px" font-family="Roboto, sans-serif"><tspan x="17.28" y="34" dominant-baseline="ideographic">What criteria should be prioritized </tspan><tspan x="44.61" y="58" dominant-baseline="ideographic">for selecting raw materials?</tspan></text></g></g></g><g id="g-root-tx_material_qpnoof1axw1l2-fill" data-item-order="0" transform="translate(111, 147)"><g id="tx_material_qpnoof1axw1l2-fill" stroke="none" fill="#3cc583"><g><text style="font: bold 20px Roboto, sans-serif; white-space: pre;" font-weight="bold" font-size="20px" font-family="Roboto, sans-serif"><tspan x="21.51" y="34" dominant-baseline="ideographic">Material Quality</tspan></text></g></g></g><g id="g-root-tx_costeffe_zjf9nz1axw1s2-fill" data-item-order="0" transform="translate(651, 147)"><g id="tx_costeffe_zjf9nz1axw1s2-fill" stroke="none" fill="#4e88e7"><g><text style="font: bold 20px Roboto, sans-serif; white-space: pre;" font-weight="bold" font-size="20px" font-family="Roboto, sans-serif"><tspan x="12" y="34" dominant-baseline="ideographic">Cost-effectiveness</tspan></text></g></g></g><g id="g-root-tx_ensurest_1uneqpb1axw004-fill" data-item-order="0" transform="translate(15, 183)"><g id="tx_ensurest_1uneqpb1axw004-fill" stroke="none" fill="#374840"><g><text style="font: 20px Roboto, sans-serif; white-space: pre;" font-size="20px" font-family="Roboto, sans-serif"><tspan x="69.06" y="34" dominant-baseline="ideographic">Ensures the product's </tspan><tspan x="17.59" y="58" dominant-baseline="ideographic">longevity and performance.</tspan></text></g></g></g><g id="g-root-tx_balances_4g29pr1axw0e8-fill" data-item-order="0" transform="translate(651, 183)"><g id="tx_balances_4g29pr1axw0e8-fill" stroke="none" fill="#3a4455"><g><text style="font: 20px Roboto, sans-serif; white-space: pre;" font-size="20px" font-family="Roboto, sans-serif"><tspan x="12" y="34" dominant-baseline="ideographic">Balances quality with budget </tspan><tspan x="12" y="58" dominant-baseline="ideographic">constraints.</tspan></text></g></g></g><g id="g-root-tx_availabi_147cxwv1axunf2-fill" data-item-order="0" transform="translate(231, 291)"><g id="tx_availabi_147cxwv1axunf2-fill" stroke="none" fill="#de8431"><g><text style="font: bold 20px Roboto, sans-serif; white-space: pre;" font-weight="bold" font-size="20px" font-family="Roboto, sans-serif"><tspan x="17.11" y="34" dominant-baseline="ideographic">Availability</tspan></text></g></g></g><g id="g-root-tx_supplier_1lwrj5b1axumte-fill" data-item-order="0" transform="translate(579, 291)"><g id="tx_supplier_1lwrj5b1axumte-fill" stroke="none" fill="#ba5de5"><g><text style="font: bold 20px Roboto, sans-serif; white-space: pre;" font-weight="bold" font-size="20px" font-family="Roboto, sans-serif"><tspan x="12" y="34" dominant-baseline="ideographic">Supplier Reputation</tspan></text></g></g></g><g id="g-root-tx_guarante_hzmy7j1axul8k-fill" data-item-order="0" transform="translate(123, 327)"><g id="tx_guarante_hzmy7j1axul8k-fill" stroke="none" fill="#4c4034"><g><text style="font: 20px Roboto, sans-serif; white-space: pre;" font-size="20px" font-family="Roboto, sans-serif"><tspan x="63.24" y="34" dominant-baseline="ideographic">Guarantees timely </tspan><tspan x="14.13" y="58" dominant-baseline="ideographic">production and reduces </tspan><tspan x="161.45" y="82" dominant-baseline="ideographic">delays.</tspan></text></g></g></g><g id="g-root-tx_buildstr_1448khb1axun0g-fill" data-item-order="0" transform="translate(579, 327)"><g id="tx_buildstr_1448khb1axun0g-fill" stroke="none" fill="#4f3d58"><g><text style="font: 20px Roboto, sans-serif; white-space: pre;" font-size="20px" font-family="Roboto, sans-serif"><tspan x="12" y="34" dominant-baseline="ideographic">Builds trust and reliability in </tspan><tspan x="12" y="58" dominant-baseline="ideographic">supply chain.</tspan></text></g></g></g><g id="g-root-tf_1luw3vz1axw1z7-stroke" data-item-order="-432288" transform="translate(-9, -9)"></g><g id="g-root-4.cu_sy_i0vwdr1axt98n-stroke" data-item-order="-68603" transform="translate(465, 99)"><g id="4.cu_sy_i0vwdr1axt98n-stroke" fill="none" stroke-linecap="round" stroke-linejoin="round" stroke-miterlimit="4" stroke="#ffffff" stroke-width="2"><g><path d="M 10 10L 10 86.7208C 10 116.9555 22.0107 145.9518 43.3898 167.3309L 62.0295 185.9706L 46 202.0001L 112 202.0001L 112 136.0001L 95.9706 152.0295L 77.3309 133.3898C 64.9536 121.0124 58 104.2251 58 86.7208L 58 10L 10 10Z"></path></g></g></g><g id="g-root-3.cu_sy_1q5ptbj1axunm0-stroke" data-item-order="-68599" transform="translate(351, 99)"><g id="3.cu_sy_1q5ptbj1axunm0-stroke" fill="none" stroke-linecap="round" stroke-linejoin="round" stroke-miterlimit="4" stroke="#ffffff" stroke-width="2"><g><path d="M 112 10L 112 99.1663C 112 121.4287 103.1626 142.7805 87.4293 158.5309L 59.994 185.994L 76 202.0001L 10 202.0001L 10 136.0001L 26.0528 152.0529L 53.4697 124.6083C 60.2125 117.8581 64 108.7073 64 99.1663L 64 10L 112 10Z"></path></g></g></g><g id="g-root-2.cu_sy_18f29wv1axumtd-stroke" data-item-order="-68595" transform="translate(525, 99)"><g id="2.cu_sy_18f29wv1axumtd-stroke" fill="none" stroke-linecap="round" stroke-linejoin="round" stroke-miterlimit="4" stroke="#ffffff" stroke-width="2"><g><path d="M 10 10L 10 34C 10 67.1371 36.8629 94 70 94L 75.9998 94L 75.9998 116.6692L 122.6688 70.0001L 75.9998 23.3311L 75.9998 46L 70 46C 63.3726 46 58 40.6274 58 34L 58 10L 10 10Z"></path></g></g></g><g id="g-root-1.cu_sy_hsrq9b1axumte-stroke" data-item-order="-68591" transform="translate(280.3299865722656, 99)"><g id="1.cu_sy_hsrq9b1axumte-stroke" fill="none" stroke-linecap="round" stroke-linejoin="round" stroke-miterlimit="4" stroke="#ffffff" stroke-width="2"><g><path d="M 74.6679 10L 74.6679 34C 74.6679 40.6274 69.2953 46 62.6679 46L 56.6691 46L 56.6691 23.3311L 10 70.0001L 56.669 116.6692L 56.6691 94L 62.6679 94C 95.8049 94 122.6679 67.1371 122.6679 34L 122.6679 10L 74.6679 10Z"></path></g></g></g><g id="g-root-tx_whatcrit_1ltn5pr1axvzt4-stroke" data-item-order="0" transform="translate(296.99798583984375, 39)"></g><g id="g-root-tx_material_qpnoof1axw1l2-stroke" data-item-order="0" transform="translate(111, 147)"></g><g id="g-root-tx_costeffe_zjf9nz1axw1s2-stroke" data-item-order="0" transform="translate(651, 147)"></g><g id="g-root-tx_ensurest_1uneqpb1axw004-stroke" data-item-order="0" transform="translate(15, 183)"></g><g id="g-root-tx_balances_4g29pr1axw0e8-stroke" data-item-order="0" transform="translate(651, 183)"></g><g id="g-root-tx_availabi_147cxwv1axunf2-stroke" data-item-order="0" transform="translate(231, 291)"></g><g id="g-root-tx_supplier_1lwrj5b1axumte-stroke" data-item-order="0" transform="translate(579, 291)"></g><g id="g-root-tx_guarante_hzmy7j1axul8k-stroke" data-item-order="0" transform="translate(123, 327)"></g><g id="g-root-tx_buildstr_1448khb1axun0g-stroke" data-item-order="0" transform="translate(579, 327)"></g></g></g></svg>