<?xml version="1.0" encoding="utf-8" standalone="yes"?>
<!DOCTYPE svg PUBLIC "-//W3C//DTD SVG 1.1//EN" "http://www.w3.org/Graphics/SVG/1.1/DTD/svg11.dtd">
<svg width="734" height="606" viewBox="0 0 734 606" style="fill:none;stroke:none;fill-rule:evenodd;clip-rule:evenodd;stroke-linecap:round;stroke-linejoin:round;stroke-miterlimit:1.5;" version="1.1" xmlns="http://www.w3.org/2000/svg" xmlns:xlink="http://www.w3.org/1999/xlink"><style class="text-font-style fontImports" data-font-family="Roboto">@import url('https://fonts.googleapis.com/css2?family=Roboto:wght@400;700&amp;display=block');</style><rect id="" x="0" y="0" width="734" height="606" style="fill: #ffffff;"></rect><g id="items" style="isolation: isolate"><g id="blend" style="mix-blend-mode: normal"><g id="g-root-tf_mg39xs1dfmq6j-fill" data-item-order="-442128" transform="translate(-9, -9)"><g id="tf_mg39xs1dfmq6j-fill" stroke="none" fill="#ffffff"><g><path d="M 10 10L 742 10L 742 614L 10 614Z"></path></g></g></g><g id="g-root-0.cu_sy_1cwr40g1dffpxl-fill" data-item-order="-52002" transform="translate(306.99981689453125, 207)"><g id="0.cu_sy_1cwr40g1dffpxl-fill" stroke="none" fill="#666666"><g><path d="M 54.78 334.78L 60.38 337.98L 61.98 333.18L 66 337.18L 70.02 333.18L 71.62 337.98L 77.22 334.78L 122 274L 94 286L 38 286L 10 274L 54.78 334.78ZM 94 226L 38 226L 10 238L 38 250L 94 250L 122 238L 94 226ZM 66 242.8C 54.95 242.8 46 240.65 46 238C 46 235.35 54.95 233.2 66 233.2C 77.05 233.2 86 235.35 86 238C 86 240.65 77.05 242.8 66 242.8ZM 94 154L 38 154L 10 166L 38 178L 94 178L 122 166L 94 154ZM 66 170.8C 54.95 170.8 46 168.65 46 166C 46 163.35 54.95 161.2 66 161.2C 77.05 161.2 86 163.35 86 166C 86 168.65 77.05 170.8 66 170.8ZM 94 82L 38 82L 10 94L 38 106L 94 106L 122 94L 94 82ZM 66 98.8C 54.95 98.8 46 96.65 46 94C 46 91.35 54.95 89.2 66 89.2C 77.05 89.2 86 91.35 86 94C 86 96.65 77.05 98.8 66 98.8ZM 94 10L 38 10L 10 22L 38 34L 94 34L 122 22L 94 10ZM 66 26.8C 54.95 26.8 46 24.65 46 22C 46 19.35 54.95 17.2 66 17.2C 77.05 17.2 86 19.35 86 22C 86 24.65 77.05 26.8 66 26.8Z"></path></g></g></g><g id="g-root-0.cu_1_sy_v63kls1dffp4y-fill" data-item-order="-52000" transform="translate(307, 115)"><g id="0.cu_1_sy_v63kls1dffp4y-fill" stroke="none" fill="#666666"><g><path d="M 54.779785 426.780176L 60.379785 429.980176L 61.979785 425.180176L 65.999785 429.180176L 70.019785 425.180176L 71.619785 429.980176L 77.219785 426.780176L 65.999785 442.000176L 54.779785 426.780176ZM 65.999756 334.800195C 77.045456 334.800195 85.999756 332.651195 85.999756 330.000195C 85.999756 327.349195 77.045456 325.200195 65.999756 325.200195C 54.954056 325.200195 45.999756 327.349195 45.999756 330.000195C 45.999756 332.651195 54.954056 334.800195 65.999756 334.800195ZM 65.999756 262.800195C 77.045456 262.800195 85.999756 260.651195 85.999756 258.000195C 85.999756 255.349195 77.045456 253.200195 65.999756 253.200195C 54.954056 253.200195 45.999756 255.349195 45.999756 258.000195C 45.999756 260.651195 54.954056 262.800195 65.999756 262.800195ZM 65.999756 190.800195C 77.045456 190.800195 85.999756 188.651195 85.999756 186.000195C 85.999756 183.349195 77.045456 181.200195 65.999756 181.200195C 54.954056 181.200195 45.999756 183.349195 45.999756 186.000195C 45.999756 188.651195 54.954056 190.800195 65.999756 190.800195ZM 65.999756 118.800195C 77.045456 118.800195 85.999756 116.651195 85.999756 114.000195C 85.999756 111.349195 77.045456 109.200195 65.999756 109.200195C 54.954056 109.200195 45.999756 111.349195 45.999756 114.000195C 45.999756 116.651195 54.954056 118.800195 65.999756 118.800195ZM 10 34L 38 46L 94 46L 122 34L 122 42L 94 54L 38 54L 10 42L 10 34ZM 10 26L 38 38L 94 38L 122 26L 122 34L 94 46L 38 46L 10 34L 10 26ZM 10 26L 38 38L 94 38L 122 26L 122 10L 94 22L 38 22L 10 10L 10 26Z"></path></g></g></g><g id="g-root-5.cu_sy_magkcw1dffpxn-fill" data-item-order="-51996" transform="translate(390.99981689453125, 435)"><g id="5.cu_sy_magkcw1dffpxn-fill" stroke="none" fill="#de8431"><g><path d="M 10 58L 38 46L 38 10L 10 22L 10 58Z"></path></g></g></g><g id="g-root-5.cu_1_sy_hun28g1dffqpw-fill" data-item-order="-51994" transform="translate(334.99981689453125, 447)"><g id="5.cu_1_sy_hun28g1dffqpw-fill" stroke="none" fill="#de8431"><g><path d="M 66 10L 10 10L 10 46L 66 46L 66 10Z"></path></g></g></g><g id="g-root-5.cu_2_sy_4jt0y81dffp51-fill" data-item-order="-51992" transform="translate(306.99981689453125, 435)"><g id="5.cu_2_sy_4jt0y81dffp51-fill" stroke="none" fill="#de8431"><g><path d="M 38 22L 10 10L 10 46L 38 58L 38 22Z"></path></g></g></g><g id="g-root-4.cu_sy_1q9gkk01dffqiu-fill" data-item-order="-51988" transform="translate(390.99981689453125, 363)"><g id="4.cu_sy_1q9gkk01dffqiu-fill" stroke="none" fill="#e0cb15"><g><path d="M 10 58L 38 46L 38 10L 10 22L 10 58Z"></path></g></g></g><g id="g-root-4.cu_1_sy_1hdtkb41dffrbj-fill" data-item-order="-51986" transform="translate(334.99981689453125, 375)"><g id="4.cu_1_sy_1hdtkb41dffrbj-fill" stroke="none" fill="#e0cb15"><g><path d="M 66 10L 10 10L 10 46L 66 46L 66 10Z"></path></g></g></g><g id="g-root-4.cu_2_sy_1cy026o1dffs3s-fill" data-item-order="-51984" transform="translate(306.99981689453125, 363)"><g id="4.cu_2_sy_1cy026o1dffs3s-fill" stroke="none" fill="#e0cb15"><g><path d="M 38 22L 10 10L 10 46L 38 58L 38 22Z"></path></g></g></g><g id="g-root-3.cu_sy_zn60wg1dffqix-fill" data-item-order="-51980" transform="translate(390.99981689453125, 291)"><g id="3.cu_sy_zn60wg1dffqix-fill" stroke="none" fill="#92bd39"><g><path d="M 10 58L 38 46L 38 10L 10 22L 10 58Z"></path></g></g></g><g id="g-root-3.cu_1_sy_v7cis01dffrb6-fill" data-item-order="-51978" transform="translate(334.99981689453125, 303)"><g id="3.cu_1_sy_v7cis01dffrb6-fill" stroke="none" fill="#92bd39"><g><path d="M 66 10L 10 10L 10 46L 66 46L 66 10Z"></path></g></g></g><g id="g-root-3.cu_2_sy_mbpij41dffs3v-fill" data-item-order="-51976" transform="translate(306.99981689453125, 291)"><g id="3.cu_2_sy_mbpij41dffs3v-fill" stroke="none" fill="#92bd39"><g><path d="M 38 22L 10 10L 10 46L 38 58L 38 22Z"></path></g></g></g><g id="g-root-2.cu_sy_90vh8w1dffqj0-fill" data-item-order="-51972" transform="translate(390.99981689453125, 219)"><g id="2.cu_sy_90vh8w1dffqj0-fill" stroke="none" fill="#3cc583"><g><path d="M 10 58L 38 46L 38 10L 10 22L 10 58Z"></path></g></g></g><g id="g-root-2.cu_1_sy_4l1z4g1dffrb9-fill" data-item-order="-51970" transform="translate(334.99981689453125, 231)"><g id="2.cu_1_sy_4l1z4g1dffrb9-fill" stroke="none" fill="#3cc583"><g><path d="M 66 10L 10 10L 10 46L 66 46L 66 10Z"></path></g></g></g><g id="g-root-2.cu_2_sy_1uqj0uo1dffrwu-fill" data-item-order="-51968" transform="translate(306.99981689453125, 219)"><g id="2.cu_2_sy_1uqj0uo1dffrwu-fill" stroke="none" fill="#3cc583"><g><path d="M 38 22L 10 10L 10 46L 38 58L 38 22Z"></path></g></g></g><g id="g-root-1.cu_sy_1qbbztc1dffpjb-fill" data-item-order="-51964" transform="translate(391, 147)"><g id="1.cu_sy_1qbbztc1dffpjb-fill" stroke="none" fill="#1eabda"><g><path d="M 10 58L 38 46L 38 10L 10 22L 10 58Z"></path></g></g></g><g id="g-root-1.cu_1_sy_1lvihow1dffqbk-fill" data-item-order="-51962" transform="translate(335, 159)"><g id="1.cu_1_sy_1lvihow1dffqbk-fill" stroke="none" fill="#1eabda"><g><path d="M 66 10L 10 10L 10 46L 66 46L 66 10Z"></path></g></g></g><g id="g-root-1.cu_2_sy_18k1zbk1dffrwh-fill" data-item-order="-51960" transform="translate(307, 147)"><g id="1.cu_2_sy_18k1zbk1dffrwh-fill" stroke="none" fill="#1eabda"><g><path d="M 38 22L 10 10L 10 46L 38 58L 38 22Z"></path></g></g></g><g id="g-root-1.cu_3_sy_zp1g5s1dffpje-fill" data-item-order="-51958" transform="translate(306.99981689453125, 87)"><g id="1.cu_3_sy_zp1g5s1dffpje-fill" stroke="none" fill="#1eabda"><g><path d="M 38.000169 50L 94.000169 50L 121.999969 38C 121.999969 38 122.529969 10 66.000169 10C 9.470169 10 10.000169 38 10.000169 38L 38.000169 50Z"></path></g></g></g><g id="g-root-helm_dj75741dfsemk-fill" data-item-order="0" transform="translate(230.999755859375, 285)"></g><g id="g-root-tx_structur_mfgd1s1dffq4o-fill" data-item-order="0" transform="translate(38.999755859375, 297)"><g id="tx_structur_mfgd1s1dffq4o-fill" stroke="none" fill="#424736"><g><text style="font: bold 20px Roboto, sans-serif; white-space: pre;" font-weight="bold" font-size="20px" font-family="Roboto, sans-serif"><tspan x="18.52" y="34" dominant-baseline="ideographic">Structural Integrity</tspan></text></g></g></g><g id="g-root-tx_testsmat_93zuog1dffrpl-fill" data-item-order="0" transform="translate(506.9998779296875, 261)"><g id="tx_testsmat_93zuog1dffrpl-fill" stroke="none" fill="#374840"><g><text style="font: 15px Roboto, sans-serif; white-space: pre;" font-size="15px" font-family="Roboto, sans-serif"><tspan x="12" y="27.6" dominant-baseline="ideographic">Tests material composition </tspan><tspan x="12" y="45.6" dominant-baseline="ideographic">and behavior</tspan></text></g></g></g><g id="g-root-tx_checksma_zqaec01dffrpj-fill" data-item-order="0" transform="translate(14.999755859375, 333)"><g id="tx_checksma_zqaec01dffrpj-fill" stroke="none" fill="#424736"><g><text style="font: 15px Roboto, sans-serif; white-space: pre;" font-size="15px" font-family="Roboto, sans-serif"><tspan x="16.63" y="27.6" dominant-baseline="ideographic">Checks material strength and </tspan><tspan x="150.95" y="45.6" dominant-baseline="ideographic">durability</tspan></text></g></g></g><g id="g-root-tx_physical_1uu9vdc1dffpxm-fill" data-item-order="0" transform="translate(506.9998779296875, 201)"><g id="tx_physical_1uu9vdc1dffpxm-fill" stroke="none" fill="#374840"><g><text style="font: bold 20px Roboto, sans-serif; white-space: pre;" font-weight="bold" font-size="20px" font-family="Roboto, sans-serif"><tspan x="12" y="34" dominant-baseline="ideographic">Physical and </tspan><tspan x="12" y="58" dominant-baseline="ideographic">Chemical Properties</tspan></text></g></g></g><g id="g-root-tx_organize_mdkxsg1dffr4b-fill" data-item-order="0" transform="translate(14.999755859375, 477)"><g id="tx_organize_mdkxsg1dffr4b-fill" stroke="none" fill="#4c4034"><g><text style="font: 15px Roboto, sans-serif; white-space: pre;" font-size="15px" font-family="Roboto, sans-serif"><tspan x="13.34" y="27.6" dominant-baseline="ideographic">Organizes approved materials </tspan><tspan x="107.45" y="45.6" dominant-baseline="ideographic">for easy access</tspan></text></g></g></g><g id="g-root-bott_9m58w1dfplvm-fill" data-item-order="0" transform="translate(446.99981689453125, 213)"></g><g id="g-root-tx_ensuresm_1d3mbyo1dffp4z-fill" data-item-order="0" transform="translate(26.999755859375, 189)"><g id="tx_ensuresm_1d3mbyo1dffp4z-fill" stroke="none" fill="#32444a"><g><text style="font: 15px Roboto, sans-serif; white-space: pre;" font-size="15px" font-family="Roboto, sans-serif"><tspan x="12.29" y="27.6" dominant-baseline="ideographic">Ensures materials meet size </tspan><tspan x="38.84" y="45.6" dominant-baseline="ideographic">and shape requirements</tspan></text></g></g></g><g id="g-root-tx_supplier_1d1qwpc1dffq4m-fill" data-item-order="0" transform="translate(506.9998779296875, 369)"><g id="tx_supplier_1d1qwpc1dffq4m-fill" stroke="none" fill="#46432d"><g><text style="font: bold 20px Roboto, sans-serif; white-space: pre;" font-weight="bold" font-size="20px" font-family="Roboto, sans-serif"><tspan x="12" y="34" dominant-baseline="ideographic">Supplier Return</tspan></text></g></g></g><g id="g-root-tx_managesm_1qckxzk1dffrph-fill" data-item-order="0" transform="translate(506.9998779296875, 405)"><g id="tx_managesm_1qckxzk1dffrph-fill" stroke="none" fill="#46432d"><g><text style="font: 15px Roboto, sans-serif; white-space: pre;" font-size="15px" font-family="Roboto, sans-serif"><tspan x="12" y="27.6" dominant-baseline="ideographic">Manages materials that fail </tspan><tspan x="12" y="45.6" dominant-baseline="ideographic">quality checks</tspan></text></g></g></g><g id="g-root-tx_storagel_4mxeds1dffqbo-fill" data-item-order="0" transform="translate(50.999755859375, 441)"><g id="tx_storagel_4mxeds1dffqbo-fill" stroke="none" fill="#4c4034"><g><text style="font: bold 20px Roboto, sans-serif; white-space: pre;" font-weight="bold" font-size="20px" font-family="Roboto, sans-serif"><tspan x="12.91" y="34" dominant-baseline="ideographic">Storage Locations</tspan></text></g></g></g><g id="g-root-3_m7c6xc1dfh3ph-fill" data-item-order="0" transform="translate(230.999755859375, 429)"></g><g id="g-root-divi_v8lwr41dfij9j-fill" data-item-order="0" transform="translate(230.999755859375, 141)"></g><g id="g-root-tx_dimensio_zs5tlc1dffqpw-fill" data-item-order="0" transform="translate(62.999755859375, 129)"><g id="tx_dimensio_zs5tlc1dffqpw-fill" stroke="none" fill="#32444a"><g><text style="font: bold 20px Roboto, sans-serif; white-space: pre;" font-weight="bold" font-size="20px" font-family="Roboto, sans-serif"><tspan x="19.89" y="34" dominant-baseline="ideographic">Dimensions and </tspan><tspan x="35.76" y="58" dominant-baseline="ideographic">Specifications</tspan></text></g></g></g><g id="g-root-tx_rawmater_m981zk1dfmrri-fill" data-item-order="0" transform="translate(176.99981689453125, 39)"><g id="tx_rawmater_m981zk1dfmrri-fill" stroke="none" fill="#484848"><g><text style="font: 20px Roboto, sans-serif; white-space: pre;" font-size="20px" font-family="Roboto, sans-serif"><tspan x="16.61" y="34" dominant-baseline="ideographic">Raw Material Quality Assurance Process</tspan></text></g></g></g><g id="g-root-1_1hbbua81dffpqn-fill" data-item-order="0" transform="translate(446.99981689453125, 357)"></g><g id="g-root-tf_mg39xs1dfmq6j-stroke" data-item-order="-442128" transform="translate(-9, -9)"></g><g id="g-root-0.cu_sy_1cwr40g1dffpxl-stroke" data-item-order="-52002" transform="translate(306.99981689453125, 207)"><g id="0.cu_sy_1cwr40g1dffpxl-stroke" fill="none" stroke-linecap="round" stroke-linejoin="round" stroke-miterlimit="4" stroke="#ffffff" stroke-width="2"><g><path d="M 54.78 334.78L 60.38 337.98L 61.98 333.18L 66 337.18L 70.02 333.18L 71.62 337.98L 77.22 334.78L 122 274L 94 286L 38 286L 10 274L 54.78 334.78ZM 94 226L 38 226L 10 238L 38 250L 94 250L 122 238L 94 226ZM 66 242.8C 54.95 242.8 46 240.65 46 238C 46 235.35 54.95 233.2 66 233.2C 77.05 233.2 86 235.35 86 238C 86 240.65 77.05 242.8 66 242.8ZM 94 154L 38 154L 10 166L 38 178L 94 178L 122 166L 94 154ZM 66 170.8C 54.95 170.8 46 168.65 46 166C 46 163.35 54.95 161.2 66 161.2C 77.05 161.2 86 163.35 86 166C 86 168.65 77.05 170.8 66 170.8ZM 94 82L 38 82L 10 94L 38 106L 94 106L 122 94L 94 82ZM 66 98.8C 54.95 98.8 46 96.65 46 94C 46 91.35 54.95 89.2 66 89.2C 77.05 89.2 86 91.35 86 94C 86 96.65 77.05 98.8 66 98.8ZM 94 10L 38 10L 10 22L 38 34L 94 34L 122 22L 94 10ZM 66 26.8C 54.95 26.8 46 24.65 46 22C 46 19.35 54.95 17.2 66 17.2C 77.05 17.2 86 19.35 86 22C 86 24.65 77.05 26.8 66 26.8Z"></path></g></g></g><g id="g-root-0.cu_1_sy_v63kls1dffp4y-stroke" data-item-order="-52000" transform="translate(307, 115)"><g id="0.cu_1_sy_v63kls1dffp4y-stroke" fill="none" stroke-linecap="round" stroke-linejoin="round" stroke-miterlimit="4" stroke="#ffffff" stroke-width="2"><g><path d="M 54.779785 426.780176L 60.379785 429.980176L 61.979785 425.180176L 65.999785 429.180176L 70.019785 425.180176L 71.619785 429.980176L 77.219785 426.780176L 65.999785 442.000176L 54.779785 426.780176ZM 65.999756 334.800195C 77.045456 334.800195 85.999756 332.651195 85.999756 330.000195C 85.999756 327.349195 77.045456 325.200195 65.999756 325.200195C 54.954056 325.200195 45.999756 327.349195 45.999756 330.000195C 45.999756 332.651195 54.954056 334.800195 65.999756 334.800195ZM 65.999756 262.800195C 77.045456 262.800195 85.999756 260.651195 85.999756 258.000195C 85.999756 255.349195 77.045456 253.200195 65.999756 253.200195C 54.954056 253.200195 45.999756 255.349195 45.999756 258.000195C 45.999756 260.651195 54.954056 262.800195 65.999756 262.800195ZM 65.999756 190.800195C 77.045456 190.800195 85.999756 188.651195 85.999756 186.000195C 85.999756 183.349195 77.045456 181.200195 65.999756 181.200195C 54.954056 181.200195 45.999756 183.349195 45.999756 186.000195C 45.999756 188.651195 54.954056 190.800195 65.999756 190.800195ZM 65.999756 118.800195C 77.045456 118.800195 85.999756 116.651195 85.999756 114.000195C 85.999756 111.349195 77.045456 109.200195 65.999756 109.200195C 54.954056 109.200195 45.999756 111.349195 45.999756 114.000195C 45.999756 116.651195 54.954056 118.800195 65.999756 118.800195ZM 10 34L 38 46L 94 46L 122 34L 122 42L 94 54L 38 54L 10 42L 10 34ZM 10 26L 38 38L 94 38L 122 26L 122 34L 94 46L 38 46L 10 34L 10 26ZM 10 26L 38 38L 94 38L 122 26L 122 10L 94 22L 38 22L 10 10L 10 26Z"></path></g></g></g><g id="g-root-5.cu_sy_magkcw1dffpxn-stroke" data-item-order="-51996" transform="translate(390.99981689453125, 435)"><g id="5.cu_sy_magkcw1dffpxn-stroke" fill="none" stroke-linecap="round" stroke-linejoin="round" stroke-miterlimit="4" stroke="#ffffff" stroke-width="2"><g><path d="M 10 58L 38 46L 38 10L 10 22L 10 58Z"></path></g></g></g><g id="g-root-5.cu_1_sy_hun28g1dffqpw-stroke" data-item-order="-51994" transform="translate(334.99981689453125, 447)"><g id="5.cu_1_sy_hun28g1dffqpw-stroke" fill="none" stroke-linecap="round" stroke-linejoin="round" stroke-miterlimit="4" stroke="#ffffff" stroke-width="2"><g><path d="M 66 10L 10 10L 10 46L 66 46L 66 10Z"></path></g></g></g><g id="g-root-5.cu_2_sy_4jt0y81dffp51-stroke" data-item-order="-51992" transform="translate(306.99981689453125, 435)"><g id="5.cu_2_sy_4jt0y81dffp51-stroke" fill="none" stroke-linecap="round" stroke-linejoin="round" stroke-miterlimit="4" stroke="#ffffff" stroke-width="2"><g><path d="M 38 22L 10 10L 10 46L 38 58L 38 22Z"></path></g></g></g><g id="g-root-4.cu_sy_1q9gkk01dffqiu-stroke" data-item-order="-51988" transform="translate(390.99981689453125, 363)"><g id="4.cu_sy_1q9gkk01dffqiu-stroke" fill="none" stroke-linecap="round" stroke-linejoin="round" stroke-miterlimit="4" stroke="#ffffff" stroke-width="2"><g><path d="M 10 58L 38 46L 38 10L 10 22L 10 58Z"></path></g></g></g><g id="g-root-4.cu_1_sy_1hdtkb41dffrbj-stroke" data-item-order="-51986" transform="translate(334.99981689453125, 375)"><g id="4.cu_1_sy_1hdtkb41dffrbj-stroke" fill="none" stroke-linecap="round" stroke-linejoin="round" stroke-miterlimit="4" stroke="#ffffff" stroke-width="2"><g><path d="M 66 10L 10 10L 10 46L 66 46L 66 10Z"></path></g></g></g><g id="g-root-4.cu_2_sy_1cy026o1dffs3s-stroke" data-item-order="-51984" transform="translate(306.99981689453125, 363)"><g id="4.cu_2_sy_1cy026o1dffs3s-stroke" fill="none" stroke-linecap="round" stroke-linejoin="round" stroke-miterlimit="4" stroke="#ffffff" stroke-width="2"><g><path d="M 38 22L 10 10L 10 46L 38 58L 38 22Z"></path></g></g></g><g id="g-root-3.cu_sy_zn60wg1dffqix-stroke" data-item-order="-51980" transform="translate(390.99981689453125, 291)"><g id="3.cu_sy_zn60wg1dffqix-stroke" fill="none" stroke-linecap="round" stroke-linejoin="round" stroke-miterlimit="4" stroke="#ffffff" stroke-width="2"><g><path d="M 10 58L 38 46L 38 10L 10 22L 10 58Z"></path></g></g></g><g id="g-root-3.cu_1_sy_v7cis01dffrb6-stroke" data-item-order="-51978" transform="translate(334.99981689453125, 303)"><g id="3.cu_1_sy_v7cis01dffrb6-stroke" fill="none" stroke-linecap="round" stroke-linejoin="round" stroke-miterlimit="4" stroke="#ffffff" stroke-width="2"><g><path d="M 66 10L 10 10L 10 46L 66 46L 66 10Z"></path></g></g></g><g id="g-root-3.cu_2_sy_mbpij41dffs3v-stroke" data-item-order="-51976" transform="translate(306.99981689453125, 291)"><g id="3.cu_2_sy_mbpij41dffs3v-stroke" fill="none" stroke-linecap="round" stroke-linejoin="round" stroke-miterlimit="4" stroke="#ffffff" stroke-width="2"><g><path d="M 38 22L 10 10L 10 46L 38 58L 38 22Z"></path></g></g></g><g id="g-root-2.cu_sy_90vh8w1dffqj0-stroke" data-item-order="-51972" transform="translate(390.99981689453125, 219)"><g id="2.cu_sy_90vh8w1dffqj0-stroke" fill="none" stroke-linecap="round" stroke-linejoin="round" stroke-miterlimit="4" stroke="#ffffff" stroke-width="2"><g><path d="M 10 58L 38 46L 38 10L 10 22L 10 58Z"></path></g></g></g><g id="g-root-2.cu_1_sy_4l1z4g1dffrb9-stroke" data-item-order="-51970" transform="translate(334.99981689453125, 231)"><g id="2.cu_1_sy_4l1z4g1dffrb9-stroke" fill="none" stroke-linecap="round" stroke-linejoin="round" stroke-miterlimit="4" stroke="#ffffff" stroke-width="2"><g><path d="M 66 10L 10 10L 10 46L 66 46L 66 10Z"></path></g></g></g><g id="g-root-2.cu_2_sy_1uqj0uo1dffrwu-stroke" data-item-order="-51968" transform="translate(306.99981689453125, 219)"><g id="2.cu_2_sy_1uqj0uo1dffrwu-stroke" fill="none" stroke-linecap="round" stroke-linejoin="round" stroke-miterlimit="4" stroke="#ffffff" stroke-width="2"><g><path d="M 38 22L 10 10L 10 46L 38 58L 38 22Z"></path></g></g></g><g id="g-root-1.cu_sy_1qbbztc1dffpjb-stroke" data-item-order="-51964" transform="translate(391, 147)"><g id="1.cu_sy_1qbbztc1dffpjb-stroke" fill="none" stroke-linecap="round" stroke-linejoin="round" stroke-miterlimit="4" stroke="#ffffff" stroke-width="2"><g><path d="M 10 58L 38 46L 38 10L 10 22L 10 58Z"></path></g></g></g><g id="g-root-1.cu_1_sy_1lvihow1dffqbk-stroke" data-item-order="-51962" transform="translate(335, 159)"><g id="1.cu_1_sy_1lvihow1dffqbk-stroke" fill="none" stroke-linecap="round" stroke-linejoin="round" stroke-miterlimit="4" stroke="#ffffff" stroke-width="2"><g><path d="M 66 10L 10 10L 10 46L 66 46L 66 10Z"></path></g></g></g><g id="g-root-1.cu_2_sy_18k1zbk1dffrwh-stroke" data-item-order="-51960" transform="translate(307, 147)"><g id="1.cu_2_sy_18k1zbk1dffrwh-stroke" fill="none" stroke-linecap="round" stroke-linejoin="round" stroke-miterlimit="4" stroke="#ffffff" stroke-width="2"><g><path d="M 38 22L 10 10L 10 46L 38 58L 38 22Z"></path></g></g></g><g id="g-root-1.cu_3_sy_zp1g5s1dffpje-stroke" data-item-order="-51958" transform="translate(306.99981689453125, 87)"><g id="1.cu_3_sy_zp1g5s1dffpje-stroke" fill="none" stroke-linecap="round" stroke-linejoin="round" stroke-miterlimit="4" stroke="#ffffff" stroke-width="2"><g><path d="M 38.000169 50L 94.000169 50L 122.000169 38C 122.000169 38 122.530169 10 66.000169 10C 9.470169 10 10.000169 38 10.000169 38L 38.000169 50Z"></path></g></g></g><g id="g-root-helm_dj75741dfsemk-stroke" data-item-order="0" transform="translate(230.999755859375, 285)"><g id="helm_dj75741dfsemk-stroke" fill="none" stroke-linecap="round" stroke-linejoin="round" stroke-miterlimit="4" stroke="#92bd39" stroke-width="2"><g><path d="M 35.700001 37.599998L 43.299999 37.599998L 43.299999 13.20002C 43.299999 12.40002 42.700001 11.600006 41.700001 11.600006L 27.69998 11.600006C 26.899981 11.600006 26.099979 12.20002 26.099979 13.20002L 26.099979 28.37604M 37.099998 24L 43.299999 24M 33.299999 18L 43.299999 18M 40.099998 30L 43.299999 30M 56.299999 37.599998L 43.299999 37.599998M 53.299999 37.599998L 53.299999 19.599979C 53.299999 18.79998 52.700001 17.99996 51.700001 17.99996L 43.700001 17.99996M 48.299999 23.99996L 53.299999 23.99996M 48.299999 29.99996L 53.299999 29.99996M 27.700081 38.799999C 32.099998 40 35.299999 44.200001 35.299999 49L 35.299999 50.400002M 21.700081 50.400002L 21.700081 36C 21.700081 34.799999 22.50008 34 23.700081 34L 25.700081 34C 26.90008 34 27.700081 34.799999 27.700081 36L 27.700081 50.400002M 38.299999 54.400002C 38.299999 55.599998 37.5 56.400002 36.299999 56.400002L 13.30004 56.400002C 12.10004 56.400002 11.300048 55.599998 11.300048 54.400002L 11.300048 52.400002C 11.300048 51.200001 12.10004 50.400002 13.30004 50.400002L 36.299999 50.400002C 37.5 50.400002 38.299999 51.200001 38.299999 52.400002L 38.299999 54.400002ZM 21.69998 38.799999C 17.29998 40 14.099979 44.200001 14.099979 49L 14.099979 50.400002"></path></g></g></g><g id="g-root-tx_structur_mfgd1s1dffq4o-stroke" data-item-order="0" transform="translate(38.999755859375, 297)"></g><g id="g-root-tx_testsmat_93zuog1dffrpl-stroke" data-item-order="0" transform="translate(506.9998779296875, 261)"></g><g id="g-root-tx_checksma_zqaec01dffrpj-stroke" data-item-order="0" transform="translate(14.999755859375, 333)"></g><g id="g-root-tx_physical_1uu9vdc1dffpxm-stroke" data-item-order="0" transform="translate(506.9998779296875, 201)"></g><g id="g-root-tx_organize_mdkxsg1dffr4b-stroke" data-item-order="0" transform="translate(14.999755859375, 477)"></g><g id="g-root-bott_9m58w1dfplvm-stroke" data-item-order="0" transform="translate(446.99981689453125, 213)"><g id="bott_9m58w1dfplvm-stroke" fill="none" stroke-linecap="round" stroke-linejoin="round" stroke-miterlimit="4" stroke="#3cc583" stroke-width="2"><g><path d="M 25 15L 25 28.224001C 24.983646 29.035561 24.474092 29.755119 23.714001 30.039999C 17.508831 32.569405 13.966051 39.141109 15.263578 45.715183C 16.561106 52.289257 22.33507 57.022114 29.035942 57.004246C 35.736816 56.986374 41.485458 52.22279 42.747902 45.641891C 44.010349 39.060989 40.432571 32.50827 34.214001 30.012001C 33.464371 29.686539 32.985043 28.941093 33 28.123999L 33 15M 41.799999 54C 42.94117 55.975117 45.103615 57.132294 47.380001 56.986C 50.614567 56.673138 53.063156 53.923046 52.999996 50.673996L 53 19C 53 17.895432 52.104568 17 51 17L 43 17C 41.895432 17 41 17.895432 41 19L 41 30M 15.566 47L 42.417999 47M 35 13C 35 11.895431 34.104568 11 33 11L 25 11C 23.895432 11 23 11.895431 23 13C 23 14.104569 23.895432 15 25 15L 33 15C 34.104568 15 35 14.104569 35 13ZM 53 27L 47 27M 53 33L 50 33M 53 39L 47 39M 53 45L 50 45"></path></g></g></g><g id="g-root-tx_ensuresm_1d3mbyo1dffp4z-stroke" data-item-order="0" transform="translate(26.999755859375, 189)"></g><g id="g-root-tx_supplier_1d1qwpc1dffq4m-stroke" data-item-order="0" transform="translate(506.9998779296875, 369)"></g><g id="g-root-tx_managesm_1qckxzk1dffrph-stroke" data-item-order="0" transform="translate(506.9998779296875, 405)"></g><g id="g-root-tx_storagel_4mxeds1dffqbo-stroke" data-item-order="0" transform="translate(50.999755859375, 441)"></g><g id="g-root-3_m7c6xc1dfh3ph-stroke" data-item-order="0" transform="translate(230.999755859375, 429)"><g id="3_m7c6xc1dfh3ph-stroke" fill="none" stroke-linecap="round" stroke-linejoin="round" stroke-miterlimit="4" stroke="#de8431" stroke-width="2"><g><path d="M 14 22L 14 49M 54 22L 54 49M 21 43L 34 43L 34 43L 34 57L 34 57L 21 57C 20.447716 57 20 56.552284 20 56L 20 44C 20 43.447716 20.447716 43 21 43ZM 34 43L 47 43C 47.552284 43 48 43.447716 48 44L 48 56C 48 56.552284 47.552284 57 47 57L 34 57L 34 57L 34 43L 34 43ZM 28 29L 40 29C 40.552284 29 41 29.447716 41 30L 41 43L 41 43L 27 43L 27 43L 27 30C 27 29.447716 27.447716 29 28 29ZM 31 29L 37 29L 37 29L 37 34C 37 34.552284 36.552284 35 36 35L 32 35C 31.447716 35 31 34.552284 31 34L 31 29L 31 29ZM 24 43L 30 43L 30 43L 30 48C 30 48.552284 29.552284 49 29 49L 25 49C 24.447716 49 24 48.552284 24 48L 24 43L 24 43ZM 38 43L 44 43L 44 43L 44 48C 44 48.552284 43.552284 49 43 49L 39 49C 38.447716 49 38 48.552284 38 48L 38 43L 38 43ZM 55 22C 55.552284 22 56 21.552284 56 21L 56 18.720001C 55.996834 18.293766 55.723839 17.916388 55.32 17.780001L 34.599998 11.1C 34.212349 10.959426 33.787651 10.959426 33.400002 11.1L 12.7 17.780001C 12.281256 17.91168 11.997342 18.301048 12 18.74L 12 21C 12 21.552284 12.447716 22 13 22Z"></path></g></g></g><g id="g-root-divi_v8lwr41dfij9j-stroke" data-item-order="0" transform="translate(230.999755859375, 141)"><g id="divi_v8lwr41dfij9j-stroke" fill="none" stroke-linecap="round" stroke-linejoin="round" stroke-miterlimit="4" stroke="#1eabda" stroke-width="2"><g><path d="M 30.622 21C 30.622 23.209139 28.831139 25 26.622 25C 24.412861 25 22.622 23.209139 22.622 21L 22.622 16C 22.622 15.447716 23.069715 15 23.622 15L 29.622 15C 30.174284 15 30.622 15.447716 30.622 16ZM 26.622 15L 26.622 11M 26.622 25L 16.112 52.298C 16.016735 52.545879 15.826788 52.745689 15.584044 52.853367C 15.341299 52.961044 15.065693 52.967751 14.818 52.872002L 12.018 51.793999C 11.502848 51.595592 11.245918 51.017277 11.444 50.501999L 22.644001 21.416M 11.622 57L 13.418 52.334M 26.622 25L 37.134003 52.298C 37.332405 52.813152 37.910721 53.070084 38.426003 52.872002L 41.225998 51.793999C 41.74115 51.595592 41.998081 51.017277 41.799999 50.501999L 30.6 21.416M 41.622002 57L 39.826 52.334M 42.622002 37L 42.622002 13C 42.622002 11.895431 43.517429 11 44.622002 11L 54.622002 11C 55.72657 11 56.622002 11.895431 56.622002 13L 56.622002 55C 56.622002 56.104568 55.72657 57 54.622002 57L 46.622002 57M 56.622002 17L 48.622002 17M 56.622002 23L 50.622002 23M 56.622002 29L 48.622002 29M 56.622002 35L 48.622002 35M 56.622002 41L 50.622002 41M 56.622002 47L 48.622002 47"></path></g></g></g><g id="g-root-tx_dimensio_zs5tlc1dffqpw-stroke" data-item-order="0" transform="translate(62.999755859375, 129)"></g><g id="g-root-tx_rawmater_m981zk1dfmrri-stroke" data-item-order="0" transform="translate(176.99981689453125, 39)"></g><g id="g-root-1_1hbbua81dffpqn-stroke" data-item-order="0" transform="translate(446.99981689453125, 357)"><g id="1_1hbbua81dffpqn-stroke" fill="none" stroke-linecap="round" stroke-linejoin="round" stroke-miterlimit="4" stroke="#e0cb15" stroke-width="2"><g><path d="M 47.599998 41C 48.400002 41.799999 49 42.799999 49 44L 49 50C 49 51.200001 48.200001 52 47 52L 13 52C 11.8 52 11 51.200001 11 50L 11 44C 11 41.799999 12.8 40 15 40L 16 40L 11 36M 30 40L 16 40L 16.6 32.599998C 16.799999 30.6 18.6 29 20.6 29L 30 29M 15 46C 15 47.104568 15.895431 48 17 48C 18.104568 48 19 47.104568 19 46C 19 44.895432 18.104568 44 17 44C 15.895431 44 15 44.895432 15 46M 41 46C 41 47.104568 41.895432 48 43 48C 44.104568 48 45 47.104568 45 46C 45 44.895432 44.104568 44 43 44C 41.895432 44 41 44.895432 41 46M 21 52L 21 54C 21 55.599998 19.6 57 18 57C 16.4 57 15 55.599998 15 54L 15 52M 45 52L 45 54C 45 55.599998 43.599998 57 42 57C 40.400002 57 39 55.599998 39 54L 39 52M 57 36C 57 36.599998 56.599998 37 56 37L 36 37C 35.400002 37 35 36.599998 35 36L 35 12C 35 11.4 35.400002 11 36 11L 56 11C 56.599998 11 57 11.4 57 12L 57 36ZM 42 18.4L 43.200001 20.200001C 43.400002 20.6 43.799999 20.799999 44.200001 20.799999C 44.599998 20.799999 45 20.799999 45.200001 20.4L 50 16M 42 28.799999L 43.200001 30.6C 43.400002 31 43.799999 31.200001 44.200001 31.200001C 44.599998 31.200001 45 31.200001 45.200001 30.799999L 50 26.4"></path></g></g></g></g></g></svg>