<?xml version="1.0" encoding="utf-8" standalone="yes"?>
<!DOCTYPE svg PUBLIC "-//W3C//DTD SVG 1.1//EN" "http://www.w3.org/Graphics/SVG/1.1/DTD/svg11.dtd">
<svg width="818" height="554" viewBox="0 0 818 554" style="fill:none;stroke:none;fill-rule:evenodd;clip-rule:evenodd;stroke-linecap:round;stroke-linejoin:round;stroke-miterlimit:1.5;" version="1.1" xmlns="http://www.w3.org/2000/svg" xmlns:xlink="http://www.w3.org/1999/xlink"><style class="text-font-style fontImports" data-font-family="Roboto">@import url('https://fonts.googleapis.com/css2?family=Roboto:wght@400;700&amp;display=block');</style><rect id="" x="0" y="0" width="818" height="554" style="fill: none;"></rect><g id="items" style="isolation: isolate"><g id="blend" style="mix-blend-mode: normal"><g id="g-root-tf_1upaink1f3bw8y-fill" data-item-order="-450432" transform="translate(-9, -9)"></g><g id="g-root-1.cu_sy_4myuo1et81sa-fill" data-item-order="-66060" transform="translate(267, 154)"></g><g id="g-root-2.cu_sy_1luaigg1et8363-fill" data-item-order="-66056" transform="translate(315, 196)"></g><g id="g-root-3.cu_sy_18iu0341et84r0-fill" data-item-order="-66052" transform="translate(363, 238)"></g><g id="g-root-4.cu_sy_v7zysw1et8365-fill" data-item-order="-66048" transform="translate(411, 280)"></g><g id="g-root-5.cu_sy_dhcfe81et82di-fill" data-item-order="-66044" transform="translate(459, 322)"></g><g id="g-root-tx_manufact_4lpf5c1et8367-fill" data-item-order="0" transform="translate(231, 39)"><g id="tx_manufact_4lpf5c1et8367-fill" stroke="none" fill="#484848"><g><text style="font: bold 20px Roboto, sans-serif; white-space: pre;" font-weight="bold" font-size="20px" font-family="Roboto, sans-serif"><tspan x="12.9" y="34" dominant-baseline="ideographic">Manufacturing Process Optimization</tspan></text></g></g></g><g id="g-root-tx_qualitys_zqxucw1et83kd-fill" data-item-order="0" transform="translate(15, 111)"><g id="tx_qualitys_zqxucw1et83kd-fill" stroke="none" fill="#1eabda"><g><text style="font: bold 20px Roboto, sans-serif; white-space: pre;" font-weight="bold" font-size="20px" font-family="Roboto, sans-serif"><tspan x="16.27" y="34" dominant-baseline="ideographic">Quality Standards </tspan><tspan x="78.93" y="58" dominant-baseline="ideographic">Adherence</tspan></text></g></g></g><g id="g-root-chec_924ir41f3n3eo-fill" data-item-order="0" transform="translate(195, 111)"></g><g id="g-root-time_18k2c4w1f37ocu-fill" data-item-order="0" transform="translate(555, 111)"></g><g id="g-root-tx_timeline_i0aay81et82rq-fill" data-item-order="0" transform="translate(615, 111)"><g id="tx_timeline_i0aay81et82rq-fill" stroke="none" fill="#3cc583"><g><text style="font: bold 20px Roboto, sans-serif; white-space: pre;" font-weight="bold" font-size="20px" font-family="Roboto, sans-serif"><tspan x="12" y="34" dominant-baseline="ideographic">Timeline </tspan><tspan x="12" y="58" dominant-baseline="ideographic">Management</tspan></text></g></g></g><g id="g-root-tx_ensuring_1lw5xps1et826g-fill" data-item-order="0" transform="translate(51, 171)"><g id="tx_ensuring_1lw5xps1et826g-fill" stroke="none" fill="#484848"><g><text style="font: 15px Roboto, sans-serif; white-space: pre;" font-size="15px" font-family="Roboto, sans-serif"><tspan x="13.04" y="27.6" dominant-baseline="ideographic">Ensuring each step </tspan><tspan x="27.7" y="45.6" dominant-baseline="ideographic">meets standards</tspan></text></g></g></g><g id="g-root-tx_keepingt_18kpfcg1et83rd-fill" data-item-order="0" transform="translate(615, 171)"><g id="tx_keepingt_18kpfcg1et83rd-fill" stroke="none" fill="#484848"><g><text style="font: 15px Roboto, sans-serif; white-space: pre;" font-size="15px" font-family="Roboto, sans-serif"><tspan x="12" y="27.6" dominant-baseline="ideographic">Keeping the production </tspan><tspan x="12" y="45.6" dominant-baseline="ideographic">schedule on track</tspan></text></g></g></g><g id="g-root-tx_defectiv_1uuxbe81et81sf-fill" data-item-order="0" transform="translate(39, 255)"><g id="tx_defectiv_1uuxbe81et81sf-fill" stroke="none" fill="#92bd39"><g><text style="font: bold 20px Roboto, sans-serif; white-space: pre;" font-weight="bold" font-size="20px" font-family="Roboto, sans-serif"><tspan x="13.88" y="34" dominant-baseline="ideographic">Defective Parts </tspan><tspan x="32.94" y="58" dominant-baseline="ideographic">Identification</tspan></text></g></g></g><g id="g-root-sear_4hxipc1f3d9ft-fill" data-item-order="0" transform="translate(195, 255)"></g><g id="g-root-pen_vah5v41f3dbf0-fill" data-item-order="0" transform="translate(555, 255)"></g><g id="g-root-tx_qcinspec_1lzab5c1et83cw-fill" data-item-order="0" transform="translate(615, 255)"><g id="tx_qcinspec_1lzab5c1et83cw-fill" stroke="none" fill="#e0cb15"><g><text style="font: bold 20px Roboto, sans-serif; white-space: pre;" font-weight="bold" font-size="20px" font-family="Roboto, sans-serif"><tspan x="12" y="34" dominant-baseline="ideographic">QC Inspection </tspan><tspan x="12" y="58" dominant-baseline="ideographic">and Analysis</tspan></text></g></g></g><g id="g-root-tx_detectin_qu1vxs1et82yq-fill" data-item-order="0" transform="translate(15, 315)"><g id="tx_detectin_qu1vxs1et82yq-fill" stroke="none" fill="#484848"><g><text style="font: 15px Roboto, sans-serif; white-space: pre;" font-size="15px" font-family="Roboto, sans-serif"><tspan x="14.09" y="27.6" dominant-baseline="ideographic">Detecting issues early in </tspan><tspan x="97.95" y="45.6" dominant-baseline="ideographic">the process</tspan></text></g></g></g><g id="g-root-tx_conducti_4nkueo1et826j-fill" data-item-order="0" transform="translate(615, 315)"><g id="tx_conducti_4nkueo1et826j-fill" stroke="none" fill="#484848"><g><text style="font: 15px Roboto, sans-serif; white-space: pre;" font-size="15px" font-family="Roboto, sans-serif"><tspan x="12" y="27.6" dominant-baseline="ideographic">Conducting thorough </tspan><tspan x="12" y="45.6" dominant-baseline="ideographic">quality checks</tspan></text></g></g></g><g id="g-root-tx_adjustme_zito8g1et9h55-fill" data-item-order="0" transform="translate(27, 399)"><g id="tx_adjustme_zito8g1et9h55-fill" stroke="none" fill="#de8431"><g><text style="font: bold 20px Roboto, sans-serif; white-space: pre;" font-weight="bold" font-size="20px" font-family="Roboto, sans-serif"><tspan x="21.6" y="34" dominant-baseline="ideographic">Adjustment and </tspan><tspan x="48.68" y="58" dominant-baseline="ideographic">Continuation</tspan></text></g></g></g><g id="g-root-hand_hs64ts1et9gci-fill" data-item-order="0" transform="translate(195, 399)"></g><g id="g-root-tx_makingne_1lxevw01et84ck-fill" data-item-order="0" transform="translate(39, 459)"><g id="tx_makingne_1lxevw01et84ck-fill" stroke="none" fill="#484848"><g><text style="font: 15px Roboto, sans-serif; white-space: pre;" font-size="15px" font-family="Roboto, sans-serif"><tspan x="31.06" y="27.6" dominant-baseline="ideographic">Making necessary </tspan><tspan x="20.43" y="45.6" dominant-baseline="ideographic">changes to proceed</tspan></text></g></g></g><g id="g-root-tf_1upaink1f3bw8y-stroke" data-item-order="-450432" transform="translate(-9, -9)"></g><g id="g-root-1.cu_sy_4myuo1et81sa-stroke" data-item-order="-66060" transform="translate(267, 154)"><g id="1.cu_sy_4myuo1et81sa-stroke" fill="none" stroke-linecap="round" stroke-linejoin="round" stroke-miterlimit="4" stroke="#1eabda" stroke-width="2"><g><path d="M 136.6335 11.282415L 23.2669 67.965615C 15.1361 72.031015 10 80.341415 10 89.431915L 10 235.182615C 10 240.050315 12.7952 243.989415 16.6315 245.915815L 40.6315 257.915815C 36.7952 255.989415 34 252.050315 34 247.182615L 34 101.431915C 34 92.341415 39.1361 84.031015 47.2669 79.965615L 160.6335 23.282315C 164.2444 21.476915 168.1438 21.676815 171.3311 23.263715L 147.3685 11.282415C 144.1743 9.678415 140.2585 9.469815 136.6335 11.282415ZM 171.3685 23.282315L 171.3311 23.263715C 171.3436 23.269915 171.356 23.276115 171.3685 23.282315ZM 160.6335 23.282315L 47.2669 79.965615C 39.1361 84.031015 34 92.341415 34 101.431915L 34 247.182615C 34 252.050315 36.7952 255.989415 40.6315 257.915815C 43.8257 259.519715 47.7415 259.728315 51.3665 257.915815L 69.999 248.599515L 64.6315 245.915815C 60.7952 243.989415 58 240.050315 58 235.182615L 58 119.431915C 58 110.341415 63.1361 102.031015 71.2669 97.965615L 160.6334 53.282415C 164.2585 51.469815 168.1743 51.678415 171.3685 53.282415L 178 56.598115L 178 34.015515C 178 29.147815 175.2047 25.208715 171.3685 23.282315L 171.3311 23.263715C 168.1438 21.676815 164.2444 21.476915 160.6335 23.282315ZM 171.3685 23.282315C 171.356 23.276115 171.3436 23.269915 171.3311 23.263715"></path></g></g></g><g id="g-root-2.cu_sy_1luaigg1et8363-stroke" data-item-order="-66056" transform="translate(315, 196)"><g id="2.cu_sy_1luaigg1et8363-stroke" fill="none" stroke-linecap="round" stroke-linejoin="round" stroke-miterlimit="4" stroke="#3cc583" stroke-width="2"><g><path d="M 112.6334 11.282415L 23.2669 55.965615C 15.1361 60.031115 10 68.341415 10 77.431915L 10 193.182615C 10 198.050315 12.7952 201.989415 16.6315 203.915815L 40.6315 215.915815C 36.7952 213.989415 34 210.050315 34 205.182615L 34 89.431915C 34 80.341415 39.1361 72.031115 47.2669 67.965615L 136.6334 23.282415C 140.2443 21.476915 144.1438 21.676915 147.3311 23.263715L 123.3685 11.282415C 120.1743 9.678415 116.2585 9.469815 112.6334 11.282415ZM 147.3685 23.282415L 147.3311 23.263715C 147.3436 23.269915 147.356 23.276115 147.3685 23.282415ZM 136.6334 23.282315L 47.2669 67.965615C 39.1361 72.031015 34 80.341415 34 89.431915L 34 205.182615C 34 210.050315 36.7952 213.989415 40.6315 215.915815C 43.8257 217.519715 47.7415 217.728315 51.3666 215.915815L 69.9991 206.599515L 64.6315 203.915815C 60.7952 201.989415 58 198.050315 58 193.182615L 58 107.431915C 58 98.341415 63.1361 90.031015 71.2669 85.965615L 136.6334 53.282315C 140.2585 51.469815 144.1743 51.678415 147.3685 53.282315L 154 56.598115L 154 34.015515C 154 29.147815 151.2048 25.208715 147.3685 23.282315L 147.3311 23.263715C 144.1438 21.676815 140.2443 21.476915 136.6334 23.282315ZM 147.3685 23.282315C 147.356 23.276115 147.3436 23.269915 147.3311 23.263715"></path></g></g></g><g id="g-root-3.cu_sy_18iu0341et84r0-stroke" data-item-order="-66052" transform="translate(363, 238)"><g id="3.cu_sy_18iu0341et84r0-stroke" fill="none" stroke-linecap="round" stroke-linejoin="round" stroke-miterlimit="4" stroke="#92bd39" stroke-width="2"><g><path d="M 88.6334 11.282415L 23.2669 43.965615C 15.1361 48.031115 10 56.341415 10 65.431915L 10 151.182615C 10 156.050315 12.7952 159.989415 16.6315 161.915815L 40.6315 173.915815C 36.7952 171.989415 34 168.050315 34 163.182615L 34 77.431915C 34 68.341415 39.1361 60.031115 47.2669 55.965615L 112.6334 23.282415C 116.2443 21.476915 120.1438 21.676915 123.3311 23.263715L 99.3685 11.282415C 96.1743 9.678415 92.2585 9.469815 88.6334 11.282415ZM 123.3685 23.282415L 123.3311 23.263715C 123.3436 23.269915 123.356 23.276115 123.3685 23.282415ZM 112.6334 23.282315L 47.2669 55.965615C 39.1361 60.031015 34 68.341415 34 77.431915L 34 163.182615C 34 168.050315 36.7952 171.989415 40.6315 173.915815C 43.8257 175.519715 47.7415 175.728315 51.3666 173.915815L 69.999 164.599515L 64.6315 161.915815C 60.7952 159.989415 58 156.050415 58 151.182715L 58 95.431915C 58 86.341415 63.1361 78.031015 71.2669 73.965615L 112.6335 53.282315C 116.2585 51.469815 120.1743 51.678415 123.3685 53.282315L 130 56.598115L 130 34.015515C 130 29.147815 127.2048 25.208715 123.3685 23.282315L 123.3311 23.263715C 120.1438 21.676815 116.2443 21.476915 112.6334 23.282315ZM 123.3685 23.282315C 123.356 23.276115 123.3436 23.269915 123.3311 23.263715"></path></g></g></g><g id="g-root-4.cu_sy_v7zysw1et8365-stroke" data-item-order="-66048" transform="translate(411, 280)"><g id="4.cu_sy_v7zysw1et8365-stroke" fill="none" stroke-linecap="round" stroke-linejoin="round" stroke-miterlimit="4" stroke="#e0cb15" stroke-width="2"><g><path d="M 64.6335 11.282431L 23.2669 31.965631C 15.1361 36.031131 10 44.341431 10 53.431931L 10 109.182731C 10 114.050431 12.7952 117.989431 16.6315 119.915831L 40.6315 131.915831C 36.7952 129.989431 34 126.050431 34 121.182731L 34 65.431931C 34 56.341431 39.1361 48.031131 47.2669 43.965631L 88.6335 23.282431C 92.2443 21.476931 96.1438 21.676831 99.3311 23.263631L 75.3685 11.282431C 72.1743 9.678431 68.2585 9.469831 64.6335 11.282431ZM 99.3685 23.282431L 99.3311 23.263631C 99.3436 23.269931 99.356 23.276131 99.3685 23.282431ZM 88.6335 23.282431L 47.2669 43.965631C 39.1361 48.031131 34 56.341431 34 65.431931L 34 121.182731C 34 126.050431 36.7952 129.989531 40.6315 131.915831C 43.8257 133.519731 47.7415 133.728331 51.3665 131.915831L 69.999 122.599631L 64.6315 119.915831C 60.7952 117.989531 58 114.050431 58 109.182731L 58 83.431931C 58 74.341431 63.1361 66.031131 71.2669 61.965631L 88.6335 53.282431C 92.2585 51.469831 96.1743 51.678431 99.3685 53.282431L 106 56.598131L 106 34.015531C 106 29.147831 103.2048 25.208731 99.3685 23.282431L 99.3311 23.263731C 96.1438 21.676831 92.2443 21.476931 88.6335 23.282431ZM 99.3685 23.282431C 99.356 23.276131 99.3436 23.269931 99.3311 23.263731"></path></g></g></g><g id="g-root-5.cu_sy_dhcfe81et82di-stroke" data-item-order="-66044" transform="translate(459, 322)"><g id="5.cu_sy_dhcfe81et82di-stroke" fill="none" stroke-linecap="round" stroke-linejoin="round" stroke-miterlimit="4" stroke="#de8431" stroke-width="2"><g><path d="M 40.6335 11.282431L 23.2669 19.965631C 15.1361 24.031131 10 32.341431 10 41.431931L 10 67.182731C 10 72.050431 12.7952 75.989431 16.6315 77.915831L 40.6335 89.916831C 36.7962 87.990731 34 84.051231 34 79.182731L 34 53.431931C 34 44.341431 39.1361 36.031131 47.2669 31.965631L 64.6335 23.282431C 68.2444 21.476931 72.1438 21.676931 75.3311 23.263731L 51.3685 11.282431C 48.1743 9.678431 44.2585 9.469831 40.6335 11.282431ZM 75.3685 23.282431L 75.3311 23.263731C 75.3436 23.269931 75.356 23.276131 75.3685 23.282431ZM 34 53.431931C 34 44.341431 39.1361 36.031031 47.2669 31.965631L 64.6335 23.282331C 68.2444 21.476931 72.1438 21.676831 75.3311 23.263731C 75.3436 23.269931 75.356 23.276131 75.3685 23.282331C 79.2048 25.208731 82 29.147831 82 34.015531L 82 59.766331C 82 68.856831 76.8639 77.167131 68.7331 81.232531L 51.3665 89.915831C 47.7422 91.728031 43.8273 91.519831 40.6335 89.916731C 36.7962 87.990731 34 84.051231 34 79.182731L 34 53.431931ZM 75.3685 23.282331L 75.3311 23.263731"></path></g></g></g><g id="g-root-tx_manufact_4lpf5c1et8367-stroke" data-item-order="0" transform="translate(231, 39)"></g><g id="g-root-tx_qualitys_zqxucw1et83kd-stroke" data-item-order="0" transform="translate(15, 111)"></g><g id="g-root-chec_924ir41f3n3eo-stroke" data-item-order="0" transform="translate(195, 111)"><g id="chec_924ir41f3n3eo-stroke" fill="none" stroke-linecap="round" stroke-linejoin="round" stroke-miterlimit="4" stroke="#1eabda" stroke-width="2"><g><path d="M 42.57143 15.142858L 47.714287 15.142858C 49.607834 15.142858 51.142857 16.677881 51.142857 18.571428L 51.142857 52.857143C 51.142857 54.750694 49.607834 56.285713 47.714287 56.285713L 20.285715 56.285713C 18.392166 56.285713 16.857143 54.750694 16.857143 52.857143L 16.857143 18.571428C 16.857143 16.677881 18.392166 15.142858 20.285715 15.142858L 25.428572 15.142858M 28.857143 11.714286L 39.142857 11.714286C 39.142857 11.714286 42.57143 11.714286 42.57143 15.142858L 42.57143 16.857143C 42.57143 16.857143 42.57143 20.285715 39.142857 20.285715L 28.857143 20.285715C 28.857143 20.285715 25.428572 20.285715 25.428572 16.857143L 25.428572 15.142858C 25.428572 15.142858 25.428572 11.714286 28.857143 11.714286M 25.428572 39.142857L 32.285713 44.285713L 40.857143 30.571428"></path></g></g></g><g id="g-root-time_18k2c4w1f37ocu-stroke" data-item-order="0" transform="translate(555, 111)"><g id="time_18k2c4w1f37ocu-stroke" fill="none" stroke-linecap="round" stroke-linejoin="round" stroke-miterlimit="4" stroke="#3cc583" stroke-width="2"><g><path d="M 29 57L 13 57C 11.895431 57 11 56.104568 11 55L 11 13C 11 11.895431 11.895431 11 13 11L 39.585999 11C 40.116676 11.000644 40.625343 11.212168 41 11.588L 48.414001 19C 48.789101 19.374985 48.999886 19.88361 49 20.414L 49 27M 26.378 40.653999C 21.800053 39.408421 18.727465 35.117512 19.022776 30.382339C 19.318089 25.647167 22.900003 21.771271 27.597239 21.104141C 32.294472 20.437012 36.813927 23.162304 38.416 27.628M 29 25.001999L 29 31.002001L 34 31.002001M 33 45.001999C 33 51.629417 38.372581 57.002003 45 57.002003C 51.627419 57.002003 57 51.629417 57 45.002003C 57 38.374584 51.627419 33.001999 45 33.001999C 38.372581 33.001999 33 38.374584 33 45.002003ZM 49 45.001999L 45 45.001999L 45 39.001999"></path></g></g></g><g id="g-root-tx_timeline_i0aay81et82rq-stroke" data-item-order="0" transform="translate(615, 111)"></g><g id="g-root-tx_ensuring_1lw5xps1et826g-stroke" data-item-order="0" transform="translate(51, 171)"></g><g id="g-root-tx_keepingt_18kpfcg1et83rd-stroke" data-item-order="0" transform="translate(615, 171)"></g><g id="g-root-tx_defectiv_1uuxbe81et81sf-stroke" data-item-order="0" transform="translate(39, 255)"></g><g id="g-root-sear_4hxipc1f3d9ft-stroke" data-item-order="0" transform="translate(195, 255)"><g id="sear_4hxipc1f3d9ft-stroke" fill="none" stroke-linecap="round" stroke-linejoin="round" stroke-miterlimit="4" stroke="#92bd39" stroke-width="2"><g><path d="M 11.714286 30.297144C 11.712329 40.561554 20.03273 48.883545 30.297144 48.883545C 40.561554 48.883545 48.881958 40.561554 48.880001 30.297144C 48.881958 20.03273 40.561554 11.710742 30.297144 11.710742C 20.03273 11.710742 11.712329 20.03273 11.714286 30.297144M 56.285713 56.285713L 43.428574 43.428574"></path></g></g></g><g id="g-root-pen_vah5v41f3dbf0-stroke" data-item-order="0" transform="translate(555, 255)"><g id="pen_vah5v41f3dbf0-stroke" fill="none" stroke-linecap="round" stroke-linejoin="round" stroke-miterlimit="4" stroke="#e0cb15" stroke-width="2"><g><path d="M 24 19.998001L 18 25.998001L 15 22.998001M 24 30.997999L 18 36.998001L 15 33.998001M 29 53L 13 53C 11.895431 53 11 52.104568 11 51L 11 17C 11 15.895431 11.895431 15 13 15L 37 15C 38.104568 15 39 15.895431 39 17L 39 43ZM 29 52.998001L 29 42.998001L 39 42.998001M 44.995998 26.997999L 52.997997 26.997999L 52.997997 47.998001L 44.995998 47.998001ZM 53 13C 55.209141 13 57 14.790861 57 17L 57 33M 49 51.998001L 49 56.998001M 44.998001 10.998L 52.998001 10.998L 52.998001 26.997999L 44.998001 26.997999ZM 47 47.998001L 51 47.998001L 51 51.998001L 47 51.998001ZM 27 24.998001L 34 24.998001M 27 34.998001L 34 34.998001"></path></g></g></g><g id="g-root-tx_qcinspec_1lzab5c1et83cw-stroke" data-item-order="0" transform="translate(615, 255)"></g><g id="g-root-tx_detectin_qu1vxs1et82yq-stroke" data-item-order="0" transform="translate(15, 315)"></g><g id="g-root-tx_conducti_4nkueo1et826j-stroke" data-item-order="0" transform="translate(615, 315)"></g><g id="g-root-tx_adjustme_zito8g1et9h55-stroke" data-item-order="0" transform="translate(27, 399)"></g><g id="g-root-hand_hs64ts1et9gci-stroke" data-item-order="0" transform="translate(195, 399)"><g id="hand_hs64ts1et9gci-stroke" fill="none" stroke-linecap="round" stroke-linejoin="round" stroke-miterlimit="4" stroke="#de8431" stroke-width="2"><g><path d="M 13.428572 44.285713L 23.714287 40.857143L 28.857143 32.285713M 28.857143 56.285713L 32.285713 54.57143L 51.142857 54.57143L 52.857143 37.428574L 34 37.428574M 47.714287 11.714286L 47.714287 18.571428C 47.714287 20.464975 46.179264 22 44.285713 22C 42.392166 22 40.857143 20.464975 40.857143 18.571428L 40.857143 11.714286C 36.897423 13.105718 34.180298 16.763447 33.991772 20.956289C 33.803242 25.149134 36.181137 29.035955 40 30.777143L 40 37.428574L 48.57143 37.428574L 48.57143 30.777143C 52.390297 29.035955 54.768185 25.149134 54.579659 20.956289C 54.391132 16.763447 51.674007 13.105718 47.714287 11.714286Z"></path></g></g></g><g id="g-root-tx_makingne_1lxevw01et84ck-stroke" data-item-order="0" transform="translate(39, 459)"></g></g></g></svg>