<?xml version="1.0" encoding="utf-8" standalone="yes"?>
<!DOCTYPE svg PUBLIC "-//W3C//DTD SVG 1.1//EN" "http://www.w3.org/Graphics/SVG/1.1/DTD/svg11.dtd">
<svg width="962" height="524" viewBox="0 0 962 524" style="fill:none;stroke:none;fill-rule:evenodd;clip-rule:evenodd;stroke-linecap:round;stroke-linejoin:round;stroke-miterlimit:1.5;" version="1.1" xmlns="http://www.w3.org/2000/svg" xmlns:xlink="http://www.w3.org/1999/xlink"><style class="text-font-style fontImports" data-font-family="Roboto">@import url('https://fonts.googleapis.com/css2?family=Roboto:wght@400;700&amp;display=block');</style><rect id="" x="0" y="0" width="962" height="524" style="fill: #ffffff;"></rect><g id="items" style="isolation: isolate"><g id="blend" style="mix-blend-mode: normal"><g id="g-root-tf_1hefybj19jy1vy-fill" data-item-order="-501120" transform="translate(-9, -9)"><g id="tf_1hefybj19jy1vy-fill" stroke="none" fill="#ffffff"><g><path d="M 10 10L 970 10L 970 532L 10 532Z"></path></g></g></g><g id="g-root-ro_1heh3en199zv9j-fill" data-item-order="-23400" transform="translate(399, 135)"><g id="ro_1heh3en199zv9j-fill" stroke="none" fill="#f5f5f5"><g><path d="M 34 10L 142 10C 142 10 166 10 166 34L 166 136C 166 136 166 160 142 160L 34 160C 34 160 10 160 10 136L 10 34C 10 34 10 10 34 10"></path></g></g></g><g id="g-root-ro_1hgbaf319jy2o7-fill" data-item-order="-23328" transform="translate(603, 123)"><g id="ro_1hgbaf319jy2o7-fill" stroke="none" fill="#faf0ff"><g><path d="M 22 10L 322 10C 322 10 334 10 334 22L 334 70C 334 70 334 82 322 82L 22 82C 22 82 10 82 10 70L 10 22C 10 22 10 10 22 10"></path></g></g></g><g id="g-root-ro_91hv9b19jfrij-fill" data-item-order="-21600" transform="translate(327, 321)"><g id="ro_91hv9b19jfrij-fill" stroke="none" fill="#fffbda"><g><path d="M 22 10L 298 10C 298 10 310 10 310 22L 310 70C 310 70 310 82 298 82L 22 82C 22 82 10 82 10 70L 10 22C 10 22 10 10 22 10"></path></g></g></g><g id="g-root-ro_1lse16n19jy22s-fill" data-item-order="-18144" transform="translate(15, 123)"><g id="ro_1lse16n19jy22s-fill" stroke="none" fill="#edf4ff"><g><path d="M 22 10L 334 10C 334 10 346 10 346 22L 346 52C 346 52 346 64 334 64L 22 64C 22 64 10 64 10 52L 10 22C 10 22 10 10 22 10"></path></g></g></g><g id="g-root-cu_magha719jy3nn-fill" data-item-order="0" transform="translate(627, 195)"></g><g id="g-root-cu_dffy4f19jy1am-fill" data-item-order="0" transform="translate(627, 195)"></g><g id="g-root-tx_material_1d0hvgf19jfs3p-fill" data-item-order="0" transform="translate(123, 225)"><g id="tx_material_1d0hvgf19jfs3p-fill" stroke="none" fill="#484848"><g><text style="font: 20px Roboto, sans-serif; white-space: pre;" font-size="20px" font-family="Roboto, sans-serif"><tspan x="15.86" y="34" dominant-baseline="ideographic">Material Quantities</tspan></text></g></g></g><g id="g-root-cu_1cwr0xr19jy2vh-fill" data-item-order="0" transform="translate(351, 150)"></g><g id="g-root-cu_8zmfzz19jy22w-fill" data-item-order="0" transform="translate(351, 393)"></g><g id="g-root-cu_8zmfzz19jy22z-fill" data-item-order="0" transform="translate(351, 393)"></g><g id="g-root-tx_costcons_4mxbb319jfugx-fill" data-item-order="0" transform="translate(375, 441)"><g id="tx_costcons_4mxbb319jfugx-fill" stroke="none" fill="#484848"><g><text style="font: 20px Roboto, sans-serif; white-space: pre;" font-size="20px" font-family="Roboto, sans-serif"><tspan x="15.88" y="34" dominant-baseline="ideographic">Cost Considerations</tspan></text></g></g></g><g id="g-root-tx_specific_zp1d3319jftom-fill" data-item-order="0" transform="translate(651, 207)"><g id="tx_specific_zp1d3319jftom-fill" stroke="none" fill="#484848"><g><text style="font: 20px Roboto, sans-serif; white-space: pre;" font-size="20px" font-family="Roboto, sans-serif"><tspan x="13.17" y="34" dominant-baseline="ideographic">Specifications</tspan></text></g></g></g><g id="g-root-tx_material_1ur5ev319jfswc-fill" data-item-order="0" transform="translate(159, 189)"><g id="tx_material_1ur5ev319jfswc-fill" stroke="none" fill="#484848"><g><text style="font: 20px Roboto, sans-serif; white-space: pre;" font-size="20px" font-family="Roboto, sans-serif"><tspan x="16.85" y="34" dominant-baseline="ideographic">Material Types</tspan></text></g></g></g><g id="g-root-cu_141qhrz19jy1ae-fill" data-item-order="0" transform="translate(309, 177)"></g><g id="g-root-cu_qq9zen19jy2vd-fill" data-item-order="0" transform="translate(309, 177)"></g><g id="g-root-tx_billofma_4jsxvj19jy2v9-fill" data-item-order="0" transform="translate(225, 39)"><g id="tx_billofma_4jsxvj19jy2v9-fill" stroke="none" fill="#484848"><g><text style="font: 25px Roboto, sans-serif; white-space: pre;" font-size="25px" font-family="Roboto, sans-serif"><tspan x="14.58" y="42.6" dominant-baseline="ideographic">Bill of Materials (BOM) Preparation Process</tspan></text></g></g></g><g id="g-root-tx_supplier_92qtfj19jftoo-fill" data-item-order="0" transform="translate(375, 405)"><g id="tx_supplier_92qtfj19jftoo-fill" stroke="none" fill="#484848"><g><text style="font: 20px Roboto, sans-serif; white-space: pre;" font-size="20px" font-family="Roboto, sans-serif"><tspan x="15.2" y="34" dominant-baseline="ideographic">Supplier Evaluation</tspan></text></g></g></g><g id="g-root-tx_toleranc_me7bsv19jfs3r-fill" data-item-order="0" transform="translate(651, 243)"><g id="tx_toleranc_me7bsv19jfs3r-fill" stroke="none" fill="#484848"><g><text style="font: 20px Roboto, sans-serif; white-space: pre;" font-size="20px" font-family="Roboto, sans-serif"><tspan x="15.22" y="34" dominant-baseline="ideographic">Tolerances</tspan></text></g></g></g><g id="g-root-cu_18gxitb19jy3ns-fill" data-item-order="0" transform="translate(555, 159)"></g><g id="g-root-cu_141qhrz19jy1ab-fill" data-item-order="0" transform="translate(477, 285)"></g><g id="g-root-tool_1q87jb319jy1aj-fill" data-item-order="1000000000" transform="translate(309, 135)"></g><g id="g-root-1_1urrssf19jy13a-fill" data-item-order="1000000000" transform="translate(615, 144)"></g><g id="g-root-tx_required_91hs3j19jy2v9-fill" data-item-order="1000000000" transform="translate(651, 135)"><g id="tx_required_91hs3j19jy2v9-fill" stroke="none" fill="#ba5de5"><g><text style="font: 20px Roboto, sans-serif; white-space: pre;" font-size="20px" font-family="Roboto, sans-serif"><tspan x="15.99" y="34" dominant-baseline="ideographic">Required Specifications and </tspan><tspan x="90.94" y="58" dominant-baseline="ideographic">Tolerances</tspan></text></g></g></g><g id="g-root-crea_1upb4ov199zwue-fill" data-item-order="1000000000" transform="translate(453, 159)"></g><g id="g-root-tx_bomprepa_8znl33199zvgl-fill" data-item-order="1000000000" transform="translate(423, 213)"><g id="tx_bomprepa_8znl33199zvgl-fill" stroke="none" fill="#969696"><g><text style="font: 20px Roboto, sans-serif; white-space: pre;" font-size="20px" font-family="Roboto, sans-serif"><tspan x="42.15" y="34" dominant-baseline="ideographic">BOM </tspan><tspan x="12.47" y="58" dominant-baseline="ideographic">Preparation</tspan></text></g></g></g><g id="g-root-tx_typeandq_ddkiv319jy29u-fill" data-item-order="1000000000" transform="translate(27, 138)"><g id="tx_typeandq_ddkiv319jy29u-fill" stroke="none" fill="#4e88e7"><g><text style="font: 20px Roboto, sans-serif; white-space: pre;" font-size="20px" font-family="Roboto, sans-serif"><tspan x="12.38" y="34" dominant-baseline="ideographic">Type and Quantity of Materials</tspan></text></g></g></g><g id="g-root-tx_sourcing_znsewv19jfrih-fill" data-item-order="1000000000" transform="translate(375, 333)"><g id="tx_sourcing_znsewv19jfrih-fill" stroke="none" fill="#e0cb15"><g><text style="font: 20px Roboto, sans-serif; white-space: pre;" font-size="20px" font-family="Roboto, sans-serif"><tspan x="11.8" y="34" dominant-baseline="ideographic">Sourcing Options for Each </tspan><tspan x="75.6" y="58" dominant-baseline="ideographic">Component</tspan></text></g></g></g><g id="g-root-circ_hwief319jftvm-fill" data-item-order="1000000000" transform="translate(339, 342)"></g><g id="g-root-tf_1hefybj19jy1vy-stroke" data-item-order="-501120" transform="translate(-9, -9)"></g><g id="g-root-ro_1heh3en199zv9j-stroke" data-item-order="-23400" transform="translate(399, 135)"><g id="ro_1heh3en199zv9j-stroke" fill="none" stroke-linecap="round" stroke-linejoin="round" stroke-miterlimit="4" stroke="#484848" stroke-width="2"><g><path d="M 34 10L 142 10C 142 10 166 10 166 34L 166 136C 166 136 166 160 142 160L 34 160C 34 160 10 160 10 136L 10 34C 10 34 10 10 34 10"></path></g></g></g><g id="g-root-ro_1hgbaf319jy2o7-stroke" data-item-order="-23328" transform="translate(603, 123)"><g id="ro_1hgbaf319jy2o7-stroke" fill="none" stroke-linecap="round" stroke-linejoin="round" stroke-miterlimit="4" stroke="#ba5de5" stroke-width="2"><g><path d="M 22 10L 322 10C 322 10 334 10 334 22L 334 70C 334 70 334 82 322 82L 22 82C 22 82 10 82 10 70L 10 22C 10 22 10 10 22 10"></path></g></g></g><g id="g-root-ro_91hv9b19jfrij-stroke" data-item-order="-21600" transform="translate(327, 321)"><g id="ro_91hv9b19jfrij-stroke" fill="none" stroke-linecap="round" stroke-linejoin="round" stroke-miterlimit="4" stroke="#e0cb15" stroke-width="2"><g><path d="M 22 10L 298 10C 298 10 310 10 310 22L 310 70C 310 70 310 82 298 82L 22 82C 22 82 10 82 10 70L 10 22C 10 22 10 10 22 10"></path></g></g></g><g id="g-root-ro_1lse16n19jy22s-stroke" data-item-order="-18144" transform="translate(15, 123)"><g id="ro_1lse16n19jy22s-stroke" fill="none" stroke-linecap="round" stroke-linejoin="round" stroke-miterlimit="4" stroke="#4e88e7" stroke-width="2"><g><path d="M 22 10L 334 10C 334 10 346 10 346 22L 346 52C 346 52 346 64 334 64L 22 64C 22 64 10 64 10 52L 10 22C 10 22 10 10 22 10"></path></g></g></g><g id="g-root-cu_magha719jy3nn-stroke" data-item-order="0" transform="translate(627, 195)"><g id="cu_magha719jy3nn-stroke" fill="none" stroke-linecap="round" stroke-linejoin="round" stroke-miterlimit="4" stroke="#969696" stroke-width="2" stroke-dasharray="5.0, 7.0"><g><path d="M 10 10L 10 22L 10 34L 19 34L 28 34"></path></g></g></g><g id="g-root-cu_dffy4f19jy1am-stroke" data-item-order="0" transform="translate(627, 195)"><g id="cu_dffy4f19jy1am-stroke" fill="none" stroke-linecap="round" stroke-linejoin="round" stroke-miterlimit="4" stroke="#969696" stroke-width="2" stroke-dasharray="5.0, 7.0"><g><path d="M 10 10L 10 17.5L 10 58C 10.000002 64.627417 15.372585 70 22.000002 69.999999L 22.1 70L 28 70"></path></g></g></g><g id="g-root-tx_material_1d0hvgf19jfs3p-stroke" data-item-order="0" transform="translate(123, 225)"></g><g id="g-root-cu_1cwr0xr19jy2vh-stroke" data-item-order="0" transform="translate(351, 150)"><g id="cu_1cwr0xr19jy2vh-stroke" fill="none" stroke-linecap="round" stroke-linejoin="round" stroke-miterlimit="4" stroke="#969696" stroke-width="2" stroke-dasharray="5.0, 7.0"><g><path d="M 58 45L 55 45L 54.9 45C 50.422131 44.972593 45.63978 43.214375 41.299999 40C 38.67988 38.118536 36.018569 33.561496 33.999999 27.499999C 31.98143 21.438501 29.320119 16.881461 26.699999 15C 22.360218 11.785625 17.577867 10.027408 13.1 10L 13 10L 10 10"></path></g></g></g><g id="g-root-cu_8zmfzz19jy22w-stroke" data-item-order="0" transform="translate(351, 393)"><g id="cu_8zmfzz19jy22w-stroke" fill="none" stroke-linecap="round" stroke-linejoin="round" stroke-miterlimit="4" stroke="#969696" stroke-width="2" stroke-dasharray="5.0, 7.0"><g><path d="M 10 10L 10 22L 10 34L 19 34L 28 34"></path></g></g></g><g id="g-root-cu_8zmfzz19jy22z-stroke" data-item-order="0" transform="translate(351, 393)"><g id="cu_8zmfzz19jy22z-stroke" fill="none" stroke-linecap="round" stroke-linejoin="round" stroke-miterlimit="4" stroke="#969696" stroke-width="2" stroke-dasharray="5.0, 7.0"><g><path d="M 10 10L 10 17.5L 10 58C 10.000002 64.627417 15.372585 70 22.000002 69.999999L 22.1 70L 28 70"></path></g></g></g><g id="g-root-tx_costcons_4mxbb319jfugx-stroke" data-item-order="0" transform="translate(375, 441)"></g><g id="g-root-tx_specific_zp1d3319jftom-stroke" data-item-order="0" transform="translate(651, 207)"></g><g id="g-root-tx_material_1ur5ev319jfswc-stroke" data-item-order="0" transform="translate(159, 189)"></g><g id="g-root-cu_141qhrz19jy1ae-stroke" data-item-order="0" transform="translate(309, 177)"><g id="cu_141qhrz19jy1ae-stroke" fill="none" stroke-linecap="round" stroke-linejoin="round" stroke-miterlimit="4" stroke="#969696" stroke-width="2" stroke-dasharray="5.0, 7.0"><g><path d="M 28 10L 28 22L 28 34L 19 34L 10 34"></path></g></g></g><g id="g-root-cu_qq9zen19jy2vd-stroke" data-item-order="0" transform="translate(309, 177)"><g id="cu_qq9zen19jy2vd-stroke" fill="none" stroke-linecap="round" stroke-linejoin="round" stroke-miterlimit="4" stroke="#969696" stroke-width="2" stroke-dasharray="5.0, 7.0"><g><path d="M 28 10L 28 17.5L 28 58C 27.999999 64.627415 22.627416 69.999998 16 69.999998L 15.9 70L 10 70"></path></g></g></g><g id="g-root-tx_billofma_4jsxvj19jy2v9-stroke" data-item-order="0" transform="translate(225, 39)"></g><g id="g-root-tx_supplier_92qtfj19jftoo-stroke" data-item-order="0" transform="translate(375, 405)"></g><g id="g-root-tx_toleranc_me7bsv19jfs3r-stroke" data-item-order="0" transform="translate(651, 243)"></g><g id="g-root-cu_18gxitb19jy3ns-stroke" data-item-order="0" transform="translate(555, 159)"><g id="cu_18gxitb19jy3ns-stroke" fill="none" stroke-linecap="round" stroke-linejoin="round" stroke-miterlimit="4" stroke="#969696" stroke-width="2" stroke-dasharray="5.0, 7.0"><g><path d="M 10 36L 13 36L 13.1 36C 17.015944 36.002202 21.265957 34.792849 25.400001 32.5C 27.874528 31.1252 30.964908 27.711408 33.999998 22.999998C 37.035088 18.288589 40.125469 14.874797 42.599998 13.499999C 46.734046 11.20715 50.984059 9.997797 54.900002 9.999999L 55 10L 58 10"></path></g></g></g><g id="g-root-cu_141qhrz19jy1ab-stroke" data-item-order="0" transform="translate(477, 285)"><g id="cu_141qhrz19jy1ab-stroke" fill="none" stroke-linecap="round" stroke-linejoin="round" stroke-miterlimit="4" stroke="#969696" stroke-width="2" stroke-dasharray="5.0, 7.0"><g><path d="M 10 10L 10 28L 10 46"></path></g></g></g><g id="g-root-tool_1q87jb319jy1aj-stroke" data-item-order="1000000000" transform="translate(309, 135)"><g id="tool_1q87jb319jy1aj-stroke" fill="none" stroke-linecap="round" stroke-linejoin="round" stroke-miterlimit="4" stroke="#4e88e7" stroke-width="2"><g><path d="M 36.5625 13.874975C 37.9375 13.874975 39.0625 14.999975 39.0625 16.374975L 39.0625 21.374975L 10.9375 21.374975L 10.9375 16.374975C 10.9375 14.999975 12.0625 13.874975 13.4375 13.874975L 36.5625 13.874975ZM 20.3125 21.374975L 20.3125 36.125L 13.4375 36.125C 12.0625 36.125 10.9375 35 10.9375 33.625L 10.9375 21.374975L 20.3125 21.374975ZM 10.9375 28.875L 20.3125 28.875M 29.6875 21.374975L 20.3125 21.374975L 20.3125 36.125L 29.6875 36.125L 29.6875 21.374975ZM 20.3125 28.875L 29.6875 28.875M 39.0625 21.374975L 39.0625 33.625C 39.0625 35 37.9375 36.125 36.5625 36.125L 29.6875 36.125L 29.6875 21.374975L 39.0625 21.374975ZM 29.6875 28.875L 39.0625 28.875"></path></g></g></g><g id="g-root-1_1urrssf19jy13a-stroke" data-item-order="1000000000" transform="translate(615, 144)"><g id="1_1urrssf19jy13a-stroke" fill="none" stroke-linecap="round" stroke-linejoin="round" stroke-miterlimit="4" stroke="#ba5de5" stroke-width="2"><g><path d="M 11.875 34.375C 11.875 36.791245 13.833755 38.75 16.25 38.75C 18.666246 38.75 20.625 36.791245 20.625 34.375C 20.625 31.958755 18.666246 30 16.25 30C 13.833755 30 11.875 31.958755 11.875 34.375M 15 34.53125C 15 35.221603 15.559644 35.78125 16.25 35.78125C 16.940355 35.78125 17.5 35.221603 17.5 34.53125C 17.5 33.840897 16.940355 33.28125 16.25 33.28125C 15.559644 33.28125 15 33.840897 15 34.53125M 23.75 34.53125C 23.75 35.221603 24.309643 35.78125 25 35.78125C 25.690357 35.78125 26.25 35.221603 26.25 34.53125C 26.25 33.840897 25.690357 33.28125 25 33.28125C 24.309643 33.28125 23.75 33.840897 23.75 34.53125M 32.34375 34.53125C 32.34375 35.221603 32.903397 35.78125 33.59375 35.78125C 34.284103 35.78125 34.84375 35.221603 34.84375 34.53125C 34.84375 33.840897 34.284103 33.28125 33.59375 33.28125C 32.903397 33.28125 32.34375 33.840897 32.34375 34.53125M 11.875 34.375L 11.875 15.625C 11.875 13.208755 13.833755 11.25 16.25 11.25C 18.666246 11.25 20.625 13.208755 20.625 15.625L 20.625 34.375M 20.625 34.375C 20.625002 36.791245 22.583755 38.75 25.000002 38.75C 27.416246 38.75 29.375002 36.791245 29.375002 34.375C 29.375002 31.958755 27.416246 30 25.000002 30C 22.583755 30 20.625002 31.958755 20.625002 34.375M 20.625 34.375L 20.625 15.625C 20.625002 13.208755 22.583755 11.25 25.000002 11.25C 27.416246 11.25 29.375002 13.208755 29.375002 15.625L 29.375 34.375M 29.375 34.375C 29.375002 36.791245 31.333755 38.75 33.75 38.75C 36.166245 38.75 38.125 36.791245 38.125 34.375C 38.125 31.958755 36.166245 30 33.75 30C 31.333755 30 29.375002 31.958755 29.375002 34.375M 29.375 34.375L 29.375 15.625C 29.375002 13.208755 31.333755 11.25 33.75 11.25C 36.166245 11.25 38.125 13.208755 38.125 15.625L 38.125 34.375"></path></g></g></g><g id="g-root-tx_required_91hs3j19jy2v9-stroke" data-item-order="1000000000" transform="translate(651, 135)"></g><g id="g-root-crea_1upb4ov199zwue-stroke" data-item-order="1000000000" transform="translate(453, 159)"><g id="crea_1upb4ov199zwue-stroke" fill="none" stroke-linecap="round" stroke-linejoin="round" stroke-miterlimit="4" stroke="#969696" stroke-width="2"><g><path d="M 39 30.799999L 32 32.799999L 34 25.799999L 48.292 11.498C 48.479607 11.309916 48.734344 11.204212 49 11.204212C 49.265656 11.204212 49.520393 11.309916 49.708 11.498L 53.292 15.084C 53.682381 15.4745 53.682381 16.1075 53.292 16.498001ZM 45 14.792L 50 19.792M 33.996002 25.793999L 38.996002 30.794001M 54 20.799999L 56 20.799999C 56.552284 20.799999 57 21.247715 57 21.799999L 57 55.799999C 57 56.352283 56.552284 56.799999 56 56.799999L 12 56.799999C 11.447716 56.799999 11 56.352283 11 55.799999L 11 21.799999C 11 21.247715 11.447716 20.799999 12 20.799999L 34 20.799999M 26 26.799999L 18 26.799999C 17.447716 26.799999 17 27.247715 17 27.799999L 17 49.799999C 17 50.352283 17.447716 50.799999 18 50.799999L 35 50.799999L 35 43.799999C 35 43.247715 35.447716 42.799999 36 42.799999L 44 42.799999C 44.552284 42.799999 45 43.247715 45 43.799999L 45 50.799999L 50 50.799999C 50.552284 50.799999 51 50.352283 51 49.799999L 51 27.799999M 35 46.793999L 45 46.793999M 35 50.793999L 45 50.793999M 17 36.793999L 26 36.793999M 42 38.793999L 51 38.793999M 42 34.793999L 51 34.793999M 17 42.799999L 24 42.799999C 24.552284 42.799999 25 43.247715 25 43.799999L 25 50.799999"></path></g></g></g><g id="g-root-tx_bomprepa_8znl33199zvgl-stroke" data-item-order="1000000000" transform="translate(423, 213)"></g><g id="g-root-tx_typeandq_ddkiv319jy29u-stroke" data-item-order="1000000000" transform="translate(27, 138)"></g><g id="g-root-tx_sourcing_znsewv19jfrih-stroke" data-item-order="1000000000" transform="translate(375, 333)"></g><g id="g-root-circ_hwief319jftvm-stroke" data-item-order="1000000000" transform="translate(339, 342)"><g id="circ_hwief319jftvm-stroke" fill="none" stroke-linecap="round" stroke-linejoin="round" stroke-miterlimit="4" stroke="#e0cb15" stroke-width="2"><g><path d="M 11.875 16.875L 11.875 14.375C 11.875 13.684644 12.434644 13.125 13.125 13.125L 35.625 13.125C 36.315353 13.125 36.875 13.684644 36.875 14.375L 36.875 20L 38.875 21.5C 39.189758 21.736067 39.375 22.106554 39.375 22.5L 39.375 30C 39.375 30.393446 39.189758 30.763931 38.875 31L 36.875 32.5L 36.875 35.625C 36.875 36.315353 36.315353 36.875 35.625 36.875L 13.125 36.875C 12.434644 36.875 11.875 36.315353 11.875 35.625L 11.875 23.125M 11.875 16.875L 14.375 16.875L 14.375 16.875L 14.375 23.125L 14.375 23.125L 11.875 23.125C 11.184644 23.125 10.625 22.565357 10.625 21.875L 10.625 18.125C 10.625 17.434645 11.184644 16.875 11.875 16.875ZM 18.125 29.375L 33.125 29.375L 33.125 31.875L 18.125 31.875ZM 32.1875 16.875C 32.360088 16.875 32.5 17.014912 32.5 17.1875C 32.5 17.360088 32.360088 17.5 32.1875 17.5C 32.014912 17.5 31.875 17.360088 31.875 17.1875C 31.875 17.014912 32.014912 16.875 32.1875 16.875M 32.1875 20.9375C 32.360088 20.9375 32.5 21.077412 32.5 21.25C 32.5 21.422588 32.360088 21.5625 32.1875 21.5625C 32.014912 21.5625 31.875 21.422588 31.875 21.25C 31.875 21.077412 32.014912 20.9375 32.1875 20.9375M 27.8125 16.875C 27.985088 16.875 28.125 17.014912 28.125 17.1875C 28.125 17.360088 27.985088 17.5 27.8125 17.5C 27.639912 17.5 27.5 17.360088 27.5 17.1875C 27.5 17.014912 27.639912 16.875 27.8125 16.875M 27.8125 20.9375C 27.985088 20.9375 28.125 21.077412 28.125 21.25C 28.125 21.422588 27.985088 21.5625 27.8125 21.5625C 27.639912 21.5625 27.5 21.422588 27.5 21.25C 27.5 21.077412 27.639912 20.9375 27.8125 20.9375M 18.125 18.125L 21.875 18.125L 21.875 21.875L 18.125 21.875ZM 20.625 28.125L 20.625 29.375M 25.625 28.125L 25.625 29.375M 30.625 28.125L 30.625 29.375M 20.625 31.875L 20.625 33.125M 25.625 31.875L 25.625 33.125M 30.625 31.875L 30.625 33.125"></path></g></g></g></g></g></svg>