<?xml version="1.0" encoding="utf-8" standalone="yes"?>
<!DOCTYPE svg PUBLIC "-//W3C//DTD SVG 1.1//EN" "http://www.w3.org/Graphics/SVG/1.1/DTD/svg11.dtd">
<svg width="1042" height="434" viewBox="0 0 1042 434" style="fill:none;stroke:none;fill-rule:evenodd;clip-rule:evenodd;stroke-linecap:round;stroke-linejoin:round;stroke-miterlimit:1.5;" version="1.1" xmlns="http://www.w3.org/2000/svg" xmlns:xlink="http://www.w3.org/1999/xlink"><style class="text-font-style fontImports" data-font-family="Roboto">@import url('https://fonts.googleapis.com/css2?family=Roboto:wght@400;700&amp;display=block');</style><rect id="" x="0" y="0" width="1042" height="434" style="fill: #ffffff;"></rect><g id="items" style="isolation: isolate"><g id="blend" style="mix-blend-mode: normal"><g id="g-root-tf_1lvjgg11df8r9o-fill" data-item-order="-449280" transform="translate(-9, -9)"><g id="tf_1lvjgg11df8r9o-fill" stroke="none" fill="#ffffff"><g><path d="M 10 10L 1050 10L 1050 442L 10 442Z"></path></g></g></g><g id="g-root-1.g-1_fr_4hbh8h1dfsdmp-fill" data-item-order="-333304" transform="translate(39, 207)"><g id="1.g-1_fr_4hbh8h1dfsdmp-fill" stroke="none" fill="#fffbda"><g><path d="M 166 10L 22 10L 22 82L 166 82L 166 10ZM 193.5 46L 169.5 10L 166 10L 166 82L 169.5 82L 193.5 46ZM 10 46L 10 82L 22 82L 22 10L 10 10L 10 46Z"></path></g></g></g><g id="g-root-2.g-2_fr_1q6z0u91dfsf0j-fill" data-item-order="-333278" transform="translate(211, 207)"><g id="2.g-2_fr_1q6z0u91dfsf0j-fill" stroke="none" fill="#fff2e5"><g><path d="M 188 10L 44 10L 44 82L 188 82L 188 10ZM 215.5 46L 191.5 10L 188 10L 188 82L 191.5 82L 215.5 46ZM 34 46L 10 82L 44 82L 44 10L 10 10L 34 46Z"></path></g></g></g><g id="g-root-3.g-3_fr_140hzb51dfse8d-fill" data-item-order="-333252" transform="translate(405, 207)"><g id="3.g-3_fr_140hzb51dfse8d-fill" stroke="none" fill="#ffeceb"><g><path d="M 188 10L 44 10L 44 82L 188 82L 188 10ZM 215.5 46L 191.5 10L 188 10L 188 82L 191.5 82L 215.5 46ZM 34 46L 10 82L 44 82L 44 10L 10 10L 34 46Z"></path></g></g></g><g id="g-root-4.g-4_fr_m9ufwh1dfsdfr-fill" data-item-order="-333226" transform="translate(599, 207)"><g id="4.g-4_fr_m9ufwh1dfsdfr-fill" stroke="none" fill="#ffebf7"><g><path d="M 188 10L 44 10L 44 82L 188 82L 188 10ZM 215.5 46L 191.5 10L 188 10L 188 82L 191.5 82L 215.5 46ZM 34 46L 10 82L 44 82L 44 10L 10 10L 34 46Z"></path></g></g></g><g id="g-root-5.g-5_fr_8ydxj51dfsf0p-fill" data-item-order="-333200" transform="translate(793, 207)"><g id="5.g-5_fr_8ydxj51dfsf0p-fill" stroke="none" fill="#faf0ff"><g><path d="M 188 10L 44 10L 44 82L 188 82L 188 10ZM 215.5 46L 191.5 10L 188 10L 188 82L 191.5 82L 215.5 46ZM 34 46L 10 82L 44 82L 44 10L 10 10L 34 46Z"></path></g></g></g><g id="g-root-tx_productl_1uony811dfsd8r-fill" data-item-order="0" transform="translate(337, 87)"><g id="tx_productl_1uony811dfsd8r-fill" stroke="none" fill="#484848"><g><text style="font: bold 20px Roboto, sans-serif; white-space: pre;" font-weight="bold" font-size="20px" font-family="Roboto, sans-serif"><tspan x="11.95" y="34" dominant-baseline="ideographic">Product Lifecycle After Manufacturing</tspan></text></g></g></g><g id="g-root-fill_qqww751dfsetp-fill" data-item-order="0" transform="translate(99, 147)"></g><g id="g-root-add_3dr0h1dfcxlb-fill" data-item-order="0" transform="translate(293, 147)"></g><g id="g-root-add_7r2m91dftt73-fill" data-item-order="0" transform="translate(487, 147)"></g><g id="g-root-focu_dg3apt1dflcei-fill" data-item-order="0" transform="translate(681, 147)"></g><g id="g-root-2_zn6wht1dfa2v8-fill" data-item-order="0" transform="translate(875, 147)"></g><g id="g-root-tx_productl_1cy0etd1dfscg4-fill" data-item-order="0" transform="translate(81, 219)"><g id="tx_productl_1cy0etd1dfscg4-fill" stroke="none" fill="#e0cb15"><g><text style="font: bold 20px Roboto, sans-serif; white-space: pre;" font-weight="bold" font-size="20px" font-family="Roboto, sans-serif"><tspan x="15.56" y="34" dominant-baseline="ideographic">Product </tspan><tspan x="12.6" y="58" dominant-baseline="ideographic">Labeling</tspan></text></g></g></g><g id="g-root-tx_includes_m9usjl1dfcydi-fill" data-item-order="0" transform="translate(251, 219)"><g id="tx_includes_m9usjl1dfcydi-fill" stroke="none" fill="#de8431"><g><text style="font: bold 20px Roboto, sans-serif; white-space: pre;" font-weight="bold" font-size="20px" font-family="Roboto, sans-serif"><tspan x="42.98" y="34" dominant-baseline="ideographic">Include </tspan><tspan x="11.88" y="58" dominant-baseline="ideographic">Specifications</tspan></text></g></g></g><g id="g-root-tx_addbatch_qu1m9t1dftt72-fill" data-item-order="0" transform="translate(457, 219)"><g id="tx_addbatch_qu1m9t1dftt72-fill" stroke="none" fill="#e55753"><g><text style="font: bold 20px Roboto, sans-serif; white-space: pre;" font-weight="bold" font-size="20px" font-family="Roboto, sans-serif"><tspan x="15.12" y="34" dominant-baseline="ideographic">Add Batch </tspan><tspan x="25.51" y="58" dominant-baseline="ideographic">Number</tspan></text></g></g></g><g id="g-root-tx_serialnu_qqxc011dfldzd-fill" data-item-order="0" transform="translate(633, 219)"><g id="tx_serialnu_qqxc011dfldzd-fill" stroke="none" fill="#de58a9"><g><text style="font: bold 20px Roboto, sans-serif; white-space: pre;" font-weight="bold" font-size="20px" font-family="Roboto, sans-serif"><tspan x="15.42" y="34" dominant-baseline="ideographic">Serial Number </tspan><tspan x="40.54" y="58" dominant-baseline="ideographic">Tracking</tspan></text></g></g></g><g id="g-root-tx_storeini_1hdufwh1dfa3nv-fill" data-item-order="0" transform="translate(851, 219)"><g id="tx_storeini_1hdufwh1dfa3nv-fill" stroke="none" fill="#ba5de5"><g><text style="font: bold 20px Roboto, sans-serif; white-space: pre;" font-weight="bold" font-size="20px" font-family="Roboto, sans-serif"><tspan x="23.24" y="34" dominant-baseline="ideographic">Store in </tspan><tspan x="15.78" y="58" dominant-baseline="ideographic">Inventory</tspan></text></g></g></g><g id="g-root-tx_theprodu_1qdulfl1dfbk7d-fill" data-item-order="0" transform="translate(69, 303)"><g id="tx_theprodu_1qdulfl1dfbk7d-fill" stroke="none" fill="#484848"><g><text style="font: 15px Roboto, sans-serif; white-space: pre;" font-size="15px" font-family="Roboto, sans-serif"><tspan x="14.44" y="30.6" dominant-baseline="ideographic">The product is </tspan><tspan x="26.72" y="48.6" dominant-baseline="ideographic">labeled for </tspan><tspan x="16.85" y="66.6" dominant-baseline="ideographic">identification.</tspan></text></g></g></g><g id="g-root-tx_productn_1q8usqp1dftr7t-fill" data-item-order="0" transform="translate(251, 303)"><g id="tx_productn_1q8usqp1dftr7t-fill" stroke="none" fill="#484848"><g><text style="font: 15px Roboto, sans-serif; white-space: pre;" font-size="15px" font-family="Roboto, sans-serif"><tspan x="12.97" y="30.6" dominant-baseline="ideographic">Product name and </tspan><tspan x="15.21" y="48.6" dominant-baseline="ideographic">specifications are </tspan><tspan x="51.42" y="66.6" dominant-baseline="ideographic">added.</tspan></text></g></g></g><g id="g-root-tx_batchnum_4pg35t1dfjz7o-fill" data-item-order="0" transform="translate(439, 303)"><g id="tx_batchnum_4pg35t1dfjz7o-fill" stroke="none" fill="#484848"><g><text style="font: 15px Roboto, sans-serif; white-space: pre;" font-size="15px" font-family="Roboto, sans-serif"><tspan x="19.12" y="30.6" dominant-baseline="ideographic">Batch number and </tspan><tspan x="14.68" y="48.6" dominant-baseline="ideographic">manufacturing date </tspan><tspan x="37.48" y="66.6" dominant-baseline="ideographic">are included.</tspan></text></g></g></g><g id="g-root-tx_serialnu_1d30qgx1df8pou-fill" data-item-order="0" transform="translate(645, 303)"><g id="tx_serialnu_1d30qgx1df8pou-fill" stroke="none" fill="#484848"><g><text style="font: 15px Roboto, sans-serif; white-space: pre;" font-size="15px" font-family="Roboto, sans-serif"><tspan x="14.44" y="30.6" dominant-baseline="ideographic">Serial number is </tspan><tspan x="26.64" y="48.6" dominant-baseline="ideographic">assigned for </tspan><tspan x="39.32" y="66.6" dominant-baseline="ideographic">tracking.</tspan></text></g></g></g><g id="g-root-tx_products_1uooh6p1dfqya2-fill" data-item-order="0" transform="translate(827, 303)"><g id="tx_products_1uooh6p1dfqya2-fill" stroke="none" fill="#484848"><g><text style="font: 15px Roboto, sans-serif; white-space: pre;" font-size="15px" font-family="Roboto, sans-serif"><tspan x="14.59" y="27.6" dominant-baseline="ideographic">Products are stored </tspan><tspan x="20.94" y="45.6" dominant-baseline="ideographic">in inventory under </tspan><tspan x="46.74" y="63.6" dominant-baseline="ideographic">controlled </tspan><tspan x="43.19" y="81.6" dominant-baseline="ideographic">conditions.</tspan></text></g></g></g><g id="g-root-tf_1lvjgg11df8r9o-stroke" data-item-order="-449280" transform="translate(-9, -9)"></g><g id="g-root-1.g-1_fr_4hbh8h1dfsdmp-stroke" data-item-order="-333304" transform="translate(39, 207)"><g id="1.g-1_fr_4hbh8h1dfsdmp-stroke" fill="none" stroke-linecap="round" stroke-linejoin="round" stroke-miterlimit="4" stroke="#e0cb15" stroke-width="2"><g><path d="M 22 10L 166 10M 165.5 82L 169 82L 193 46L 169 10L 165.5 10M 166 82L 22 82M 22 10L 10 10L 10 82L 22 82"></path></g></g></g><g id="g-root-2.g-2_fr_1q6z0u91dfsf0j-stroke" data-item-order="-333278" transform="translate(211, 207)"><g id="2.g-2_fr_1q6z0u91dfsf0j-stroke" fill="none" stroke-linecap="round" stroke-linejoin="round" stroke-miterlimit="4" stroke="#de8431" stroke-width="2"><g><path d="M 44 10L 188 10M 187.5 82L 191 82L 215 46L 191 10L 187.5 10M 188 82L 44 82M 44 10L 10 10L 34 46L 10 82L 44 82"></path></g></g></g><g id="g-root-3.g-3_fr_140hzb51dfse8d-stroke" data-item-order="-333252" transform="translate(405, 207)"><g id="3.g-3_fr_140hzb51dfse8d-stroke" fill="none" stroke-linecap="round" stroke-linejoin="round" stroke-miterlimit="4" stroke="#e55753" stroke-width="2"><g><path d="M 44 10L 188 10M 187.5 82L 191 82L 215 46L 191 10L 187.5 10M 188 82L 44 82M 44 10L 10 10L 34 46L 10 82L 44 82"></path></g></g></g><g id="g-root-4.g-4_fr_m9ufwh1dfsdfr-stroke" data-item-order="-333226" transform="translate(599, 207)"><g id="4.g-4_fr_m9ufwh1dfsdfr-stroke" fill="none" stroke-linecap="round" stroke-linejoin="round" stroke-miterlimit="4" stroke="#de58a9" stroke-width="2"><g><path d="M 44 10L 188 10M 187.5 82L 191 82L 215 46L 191 10L 187.5 10M 188 82L 44 82M 44 10L 10 10L 34 46L 10 82L 44 82"></path></g></g></g><g id="g-root-5.g-5_fr_8ydxj51dfsf0p-stroke" data-item-order="-333200" transform="translate(793, 207)"><g id="5.g-5_fr_8ydxj51dfsf0p-stroke" fill="none" stroke-linecap="round" stroke-linejoin="round" stroke-miterlimit="4" stroke="#ba5de5" stroke-width="2"><g><path d="M 44 10L 188 10M 187.5 82L 191 82L 215 46L 191 10L 187.5 10M 188 82L 44 82M 44 10L 10 10L 34 46L 10 82L 44 82"></path></g></g></g><g id="g-root-tx_productl_1uony811dfsd8r-stroke" data-item-order="0" transform="translate(337, 87)"></g><g id="g-root-fill_qqww751dfsetp-stroke" data-item-order="0" transform="translate(99, 147)"><g id="fill_qqww751dfsetp-stroke" fill="none" stroke-linecap="round" stroke-linejoin="round" stroke-miterlimit="4" stroke="#e0cb15" stroke-width="2"><g><path d="M 13.5 38.370003L 13.5 41.370003L 11.5 46.869999L 11.5 54.369999C 11.5 55.474571 12.395431 56.369999 13.5 56.369999L 19.5 56.369999C 20.604568 56.369999 21.5 55.474571 21.5 54.369999L 21.5 46.869999L 19.5 41.370003L 19.5 38.370003M 54.5 38.370003L 54.5 41.370003L 56.5 46.869999L 56.5 54.369999C 56.5 55.474571 55.604568 56.369999 54.5 56.369999L 48.5 56.369999C 47.395432 56.369999 46.5 55.474571 46.5 54.369999L 46.5 46.869999L 48.5 41.370003L 48.5 38.370003M 31 38.370003L 31 41.370003L 29 46.869999L 29 54.369999C 29 55.474571 29.89543 56.369999 31 56.369999L 37 56.369999C 38.104568 56.369999 39 55.474571 39 54.369999L 39 46.869999L 37 41.370003L 37 38.370003M 25.5 11.63L 25.5 16.959999C 25.5 18.064569 26.39543 18.959999 27.5 18.959999L 29.318001 18.959999L 31 22.959999L 37 22.959999L 38.681999 18.959999L 40.5 18.959999C 41.604568 18.959999 42.5 18.064569 42.5 16.959999L 42.5 11.63M 30.636 42.369999L 37.363998 42.369999M 36.534 31.054001C 36.533997 32.453491 35.39949 33.587997 34 33.587997C 32.60051 33.587997 31.466 32.453491 31.466 31.053999C 32.013382 29.256922 32.870979 27.569477 34 26.067999C 35.129021 27.569477 35.986618 29.256922 36.534 31.053999Z"></path></g></g></g><g id="g-root-add_3dr0h1dfcxlb-stroke" data-item-order="0" transform="translate(293, 147)"><g id="add_3dr0h1dfcxlb-stroke" fill="none" stroke-linecap="round" stroke-linejoin="round" stroke-miterlimit="4" stroke="#de8431" stroke-width="2"><g><path d="M 43.084 28.098L 46.683998 24.424C 47.522617 23.471119 48.0158 22.263523 48.084 20.995998L 48.084 12.996C 48.084 11.891431 47.188568 10.996 46.084 10.996L 37.568001 11.01C 36.302147 11.080307 35.098015 11.579739 34.153999 12.426L 12.498 34.082001C 11.717237 34.862999 11.717237 36.128998 12.498 36.91L 22.17 46.582001C 22.543736 46.955734 23.051384 47.164532 23.57992 47.1619C 24.108456 47.159271 24.614 46.945435 24.983999 46.567997L 27.084 44.424M 38.084 17.996C 38.084 19.652855 39.427147 20.996 41.084 20.996C 42.740856 20.996 44.084 19.652855 44.084 17.996C 44.084 16.339146 42.740856 14.996 41.084 14.996C 39.427147 14.996 38.084 16.339146 38.084 17.996ZM 32.084 44.995998C 32.084 51.623417 37.456585 56.996002 44.084 56.996002C 50.711418 56.996002 56.084 51.623417 56.084 44.996002C 56.084 38.368584 50.711418 32.996002 44.084 32.996002C 37.456585 32.996002 32.084 38.368584 32.084 44.996002ZM 44.084 38.996002L 44.084 50.995998M 50.084 44.995998L 38.084 44.995998"></path></g></g></g><g id="g-root-add_7r2m91dftt73-stroke" data-item-order="0" transform="translate(487, 147)"><g id="add_7r2m91dftt73-stroke" fill="none" stroke-linecap="round" stroke-linejoin="round" stroke-miterlimit="4" stroke="#e55753" stroke-width="2"><g><path d="M 28.226 44.734001L 15.1 44.734001C 12.841156 44.734001 11.01 42.902847 11.01 40.644001L 11.01 15.087999C 11.009999 12.829478 12.841478 10.998895 15.1 11L 45.765999 11C 48.023739 11 49.854 12.830259 49.854 15.087999L 49.854 28.378M 11.01 18.984001L 49.854 18.984001M 11.01 35.952L 29.870001 35.952M 11.01 27.482L 49.854 27.482M 26.875999 18.984001L 26.875999 44.734001M 38.25 18.984001L 38.25 28.378M 44.723999 57C 51.499687 56.999996 56.992367 51.507019 56.991997 44.731331C 56.991631 37.955643 51.498352 32.463261 44.722664 32.463997C 37.946976 32.464737 32.454895 37.958305 32.456001 44.733997C 32.456001 51.509106 37.948891 57.001102 44.723999 56.999996ZM 44.723999 38.599998L 44.723999 50.866001M 38.599998 44.734001L 50.866001 44.734001"></path></g></g></g><g id="g-root-focu_dg3apt1dflcei-stroke" data-item-order="0" transform="translate(681, 147)"><g id="focu_dg3apt1dflcei-stroke" fill="none" stroke-linecap="round" stroke-linejoin="round" stroke-miterlimit="4" stroke="#de58a9" stroke-width="2"><g><path d="M 45.599998 56.5C 42.799999 53.099998 38.599998 50.900002 33.799999 50.900002C 29 50.900002 24.799999 53.099998 22 56.5M 33.799999 46.5C 38.3288 46.5 42 42.8288 42 38.299999C 42 33.771202 38.3288 30.1 33.799999 30.1C 29.27124 30.1 25.599979 33.771202 25.599979 38.299999C 25.599979 42.8288 29.27124 46.5 33.799999 46.5ZM 25.699959 39.700001C 26.49996 39.700001 31.200001 39.5 33.799999 35.5C 36.400002 39.5 41.099998 39.700001 41.900002 39.700001M 21.39996 45.5C 21.39996 45.5 25.59996 44.5 25.59996 38.299999M 46.099998 45.5C 46.099998 45.5 41.900002 44.5 41.900002 38.299999M 15 30.5L 15 28.49996C 15 27.299959 15.8 26.49996 17 26.49996L 19 26.49996M 53 30.5L 53 28.49996C 53 27.299959 52.200001 26.49996 51 26.49996L 49 26.49996M 15 48.5L 15 50.5C 15 51.700001 15.8 52.5 17 52.5L 19 52.5M 53 48.5L 53 50.5C 53 51.700001 52.200001 52.5 51 52.5L 49 52.5M 42.533401 14.57292L 42.533401 18.73958C 42.533401 20.35042 43.839199 21.65624 45.450001 21.65624L 46.283401 21.65624C 47.894199 21.65624 49.200001 20.35042 49.200001 18.73958L 49.200001 14.57292C 49.200001 12.96208 47.894199 11.65625 46.283401 11.65625L 45.450001 11.65625C 43.839199 11.65625 42.533401 12.96208 42.533401 14.57292ZM 10 10M 22.53344 11.65625L 22.53344 21.65624M 10 10M 19.200119 14.15624L 20.03344 14.15624C 21.41416 14.15624 22.53344 13.03696 22.53344 11.65625L 22.53344 11.65625M 10 10M 25.866699 21.65624L 19.200039 21.65626M 37.533401 21.65624L 30.8666 21.65624L 30.8666 20.23572C 30.8666 19.242481 31.454599 18.343441 32.364601 17.945339L 36.0742 16.32238C 36.960602 15.93458 37.533401 15.05888 37.533401 14.0914C 37.533401 12.7465 36.443199 11.65625 35.098198 11.65625L 33.3666 11.65625C 32.278198 11.65625 31.3522 12.35192 31.009001 13.32292"></path></g></g></g><g id="g-root-2_zn6wht1dfa2v8-stroke" data-item-order="0" transform="translate(875, 147)"><g id="2_zn6wht1dfa2v8-stroke" fill="none" stroke-linecap="round" stroke-linejoin="round" stroke-miterlimit="4" stroke="#ba5de5" stroke-width="2"><g><path d="M 34 11C 25.621296 10.926499 17.5254 14.027664 11.34 19.68C 11.12158 19.871866 10.997471 20.149288 11 20.439999L 11 24C 11 24.552284 11.447716 25 12 25L 56 25C 56.552284 25 57 24.552284 57 24L 57 20.439999C 57.002529 20.149288 56.878422 19.871866 56.66 19.68C 50.474598 14.027664 42.378704 10.926499 34 11ZM 13 25L 13 54M 55 25L 55 54M 21 45L 34 45L 34 45L 34 57L 34 57L 21 57C 20.447716 57 20 56.552284 20 56L 20 46C 20 45.447716 20.447716 45 21 45ZM 34 45L 47 45C 47.552284 45 48 45.447716 48 46L 48 56C 48 56.552284 47.552284 57 47 57L 34 57L 34 57L 34 45L 34 45ZM 28 33L 40 33C 40.552284 33 41 33.447716 41 34L 41 45L 41 45L 27 45L 27 45L 27 34C 27 33.447716 27.447716 33 28 33ZM 31 33L 37 33L 37 33L 37 38C 37 38.552284 36.552284 39 36 39L 32 39C 31.447716 39 31 38.552284 31 38L 31 33L 31 33ZM 24 45L 30 45L 30 45L 30 50C 30 50.552284 29.552284 51 29 51L 25 51C 24.447716 51 24 50.552284 24 50L 24 45L 24 45ZM 38 45L 44 45L 44 45L 44 50C 44 50.552284 43.552284 51 43 51L 39 51C 38.447716 51 38 50.552284 38 50L 38 45L 38 45ZM 30.5 19L 37.5 19"></path></g></g></g><g id="g-root-tx_productl_1cy0etd1dfscg4-stroke" data-item-order="0" transform="translate(81, 219)"></g><g id="g-root-tx_includes_m9usjl1dfcydi-stroke" data-item-order="0" transform="translate(251, 219)"></g><g id="g-root-tx_addbatch_qu1m9t1dftt72-stroke" data-item-order="0" transform="translate(457, 219)"></g><g id="g-root-tx_serialnu_qqxc011dfldzd-stroke" data-item-order="0" transform="translate(633, 219)"></g><g id="g-root-tx_storeini_1hdufwh1dfa3nv-stroke" data-item-order="0" transform="translate(851, 219)"></g><g id="g-root-tx_theprodu_1qdulfl1dfbk7d-stroke" data-item-order="0" transform="translate(69, 303)"></g><g id="g-root-tx_productn_1q8usqp1dftr7t-stroke" data-item-order="0" transform="translate(251, 303)"></g><g id="g-root-tx_batchnum_4pg35t1dfjz7o-stroke" data-item-order="0" transform="translate(439, 303)"></g><g id="g-root-tx_serialnu_1d30qgx1df8pou-stroke" data-item-order="0" transform="translate(645, 303)"></g><g id="g-root-tx_products_1uooh6p1dfqya2-stroke" data-item-order="0" transform="translate(827, 303)"></g></g></g></svg>