<?xml version="1.0" encoding="utf-8" standalone="yes"?>
<!DOCTYPE svg PUBLIC "-//W3C//DTD SVG 1.1//EN" "http://www.w3.org/Graphics/SVG/1.1/DTD/svg11.dtd">
<svg width="680" height="650" viewBox="0 0 680 650" style="fill:none;stroke:none;fill-rule:evenodd;clip-rule:evenodd;stroke-linecap:round;stroke-linejoin:round;stroke-miterlimit:1.5;" version="1.1" xmlns="http://www.w3.org/2000/svg" xmlns:xlink="http://www.w3.org/1999/xlink"><style class="text-font-style fontImports" data-font-family="Roboto">@import url('https://fonts.googleapis.com/css2?family=Roboto:wght@400;700&amp;display=block');</style><rect id="" x="0" y="0" width="680" height="650" style="fill: #ffffff;"></rect><g id="items" style="isolation: isolate"><g id="blend" style="mix-blend-mode: normal"><g id="g-root-tf_1ums0001dzexah-fill" data-item-order="-435456" transform="translate(-9, -9)"><g id="tf_1ums0001dzexah-fill" stroke="none" fill="#ffffff"><g><path d="M 10 10L 682 10L 682 658L 10 658Z"></path></g></g></g><g id="g-root-2.sign-2_fr_dgprsw1dpb5sc-fill" data-item-order="-344436" transform="translate(327, 231)"><g id="2.sign-2_fr_dgprsw1dpb5sc-fill" stroke="none" fill="#3cc583"><g><path d="M 10 10L 268 10L 268 106L 10 106L 10 10ZM 316 58C 316 31.4903 294.5097 10.000002 268.000008 10L 268 106C 294.5097 106 316 84.5097 316 58Z"></path></g></g></g><g id="g-root-4.sign-4_fr_5vqio1dpb47i-fill" data-item-order="-344412" transform="translate(327, 471)"><g id="4.sign-4_fr_5vqio1dpb47i-fill" stroke="none" fill="#e0cb15"><g><path d="M 10 10L 304 10L 304 106L 10 106L 10 10ZM 352 58C 352 31.4903 330.5097 10.000002 304.000008 10L 304 106C 330.5097 106 352 84.5097 352 58Z"></path></g></g></g><g id="g-root-1.sign-1_fr_1ur6adc1dpb4so-fill" data-item-order="-344392" transform="translate(69, 111)"><g id="1.sign-1_fr_1ur6adc1dpb4so-fill" stroke="none" fill="#4e88e7"><g><path d="M 58 10L 268 10L 268 106L 58 106L 58 10ZM 10 58C 10 84.5097 31.4903 106 58 106L 58 10C 31.4903 10 10 31.4903 10 58Z"></path></g></g></g><g id="g-root-3.sign-3_fr_1hgc9341dpb37u-fill" data-item-order="-344368" transform="translate(69, 351)"><g id="3.sign-3_fr_1hgc9341dpb37u-fill" stroke="none" fill="#92bd39"><g><path d="M 58 10L 268 10L 268 106L 58 106L 58 10ZM 10 58C 10 84.5097 31.4903 106 58 106L 58 10C 31.4903 10 10 31.4903 10 58Z"></path></g></g></g><g id="g-root-tx_material_144vqps1dpb4ss-fill" data-item-order="0" transform="translate(141, 39)"><g id="tx_material_144vqps1dpb4ss-fill" stroke="none" fill="#484848"><g><text style="font: 20px Roboto, sans-serif; white-space: pre;" font-size="20px" font-family="Roboto, sans-serif"><tspan x="12.31" y="34" dominant-baseline="ideographic">Material Ordering and Inspection Process</tspan></text></g></g></g><g id="g-root-sign_1umt88w1dpb30s-fill" data-item-order="0" transform="translate(99, 141)"></g><g id="g-root-tx_finalize_mg3w1s1dpqjgi-fill" data-item-order="0" transform="translate(147, 147)"><g id="tx_finalize_mg3w1s1dpqjgi-fill" stroke="none" fill="#ffffff"><g><text style="font: 20px Roboto, sans-serif; white-space: pre;" font-size="20px" font-family="Roboto, sans-serif"><tspan x="20.3" y="34" dominant-baseline="ideographic">Finalize Suppliers</tspan></text></g></g></g><g id="g-root-tx_identify_me87b41dpb405-fill" data-item-order="0" transform="translate(339, 141)"><g id="tx_identify_me87b41dpb405-fill" stroke="none" fill="#3a4455"><g><text style="font: 15px Roboto, sans-serif; white-space: pre;" font-size="15px" font-family="Roboto, sans-serif"><tspan x="12" y="27.6" dominant-baseline="ideographic">Identify and confirm suppliers </tspan><tspan x="12" y="45.6" dominant-baseline="ideographic">for materials</tspan></text></g></g></g><g id="g-root-tx_issueord_1cws5xc1dps0ln-fill" data-item-order="0" transform="translate(123, 261)"><g id="tx_issueord_1cws5xc1dps0ln-fill" stroke="none" fill="#374840"><g><text style="font: 15px Roboto, sans-serif; white-space: pre;" font-size="15px" font-family="Roboto, sans-serif"><tspan x="13.49" y="27.6" dominant-baseline="ideographic">Issue orders to suppliers for </tspan><tspan x="137.54" y="45.6" dominant-baseline="ideographic">materials</tspan></text></g></g></g><g id="g-root-tx_placepur_mg3sw01dpdx59-fill" data-item-order="0" transform="translate(339, 267)"><g id="tx_placepur_mg3sw01dpdx59-fill" stroke="none" fill="#ffffff"><g><text style="font: 20px Roboto, sans-serif; white-space: pre;" font-size="20px" font-family="Roboto, sans-serif"><tspan x="12" y="34" dominant-baseline="ideographic">Place Purchase Orders</tspan></text></g></g></g><g id="g-root-pen_92roxs1dpb5l2-fill" data-item-order="0" transform="translate(567, 261)"></g><g id="g-root-truc_1ur6juo1dptdkw-fill" data-item-order="0" transform="translate(99, 381)"></g><g id="g-root-tx_receivem_hs4zk01dzdk3z-fill" data-item-order="0" transform="translate(147, 387)"><g id="tx_receivem_hs4zk01dzdk3z-fill" stroke="none" fill="#ffffff"><g><text style="font: 20px Roboto, sans-serif; white-space: pre;" font-size="20px" font-family="Roboto, sans-serif"><tspan x="18.81" y="34" dominant-baseline="ideographic">Receive Materials</tspan></text></g></g></g><g id="g-root-tx_acceptde_140ilfk1dpfaiz-fill" data-item-order="0" transform="translate(339, 381)"><g id="tx_acceptde_140ilfk1dpfaiz-fill" stroke="none" fill="#424736"><g><text style="font: 15px Roboto, sans-serif; white-space: pre;" font-size="15px" font-family="Roboto, sans-serif"><tspan x="12" y="27.6" dominant-baseline="ideographic">Accept delivery of materials </tspan><tspan x="12" y="45.6" dominant-baseline="ideographic">from suppliers</tspan></text></g></g></g><g id="g-root-tx_checkmat_140hgcg1dzdjwh-fill" data-item-order="0" transform="translate(99, 501)"><g id="tx_checkmat_140hgcg1dzdjwh-fill" stroke="none" fill="#46432d"><g><text style="font: 15px Roboto, sans-serif; white-space: pre;" font-size="15px" font-family="Roboto, sans-serif"><tspan x="18.64" y="27.6" dominant-baseline="ideographic">Check materials to ensure they </tspan><tspan x="119.45" y="45.6" dominant-baseline="ideographic">meet standards</tspan></text></g></g></g><g id="g-root-tx_conductq_1luwzcw1dptd6z-fill" data-item-order="0" transform="translate(339, 507)"><g id="tx_conductq_1luwzcw1dptd6z-fill" stroke="none" fill="#ffffff"><g><text style="font: 20px Roboto, sans-serif; white-space: pre;" font-size="20px" font-family="Roboto, sans-serif"><tspan x="12" y="34" dominant-baseline="ideographic">Conduct Quality Inspection</tspan></text></g></g></g><g id="g-root-box_4myo01dpfb4b-fill" data-item-order="0" transform="translate(603, 501)"></g><g id="g-root-tf_1ums0001dzexah-stroke" data-item-order="-435456" transform="translate(-9, -9)"></g><g id="g-root-2.sign-2_fr_dgprsw1dpb5sc-stroke" data-item-order="-344436" transform="translate(327, 231)"><g id="2.sign-2_fr_dgprsw1dpb5sc-stroke" fill="none" stroke-linecap="round" stroke-linejoin="round" stroke-miterlimit="4" stroke="#ffffff" stroke-width="2"><g><path d="M 268 106L 10 106M 10 10L 268 10M 268 10C 294.5097 10 316 31.4903 316 58C 316 84.5097 294.5097 106 268 106M 10 106L 10 10"></path></g></g></g><g id="g-root-4.sign-4_fr_5vqio1dpb47i-stroke" data-item-order="-344412" transform="translate(327, 471)"><g id="4.sign-4_fr_5vqio1dpb47i-stroke" fill="none" stroke-linecap="round" stroke-linejoin="round" stroke-miterlimit="4" stroke="#ffffff" stroke-width="2"><g><path d="M 304 106L 10 106M 10 10L 304 10M 304 10C 330.5097 10 352 31.4903 352 58C 352 84.5097 330.5097 106 304 106M 10 106L 10 10"></path></g></g></g><g id="g-root-1.sign-1_fr_1ur6adc1dpb4so-stroke" data-item-order="-344392" transform="translate(69, 111)"><g id="1.sign-1_fr_1ur6adc1dpb4so-stroke" fill="none" stroke-linecap="round" stroke-linejoin="round" stroke-miterlimit="4" stroke="#ffffff" stroke-width="2"><g><path d="M 58 10L 268 10M 268 106L 58 106M 58 106C 31.4903 106 10 84.5097 10 58C 10 31.4903 31.4903 10 58 10M 268 10L 268 106"></path></g></g></g><g id="g-root-3.sign-3_fr_1hgc9341dpb37u-stroke" data-item-order="-344368" transform="translate(69, 351)"><g id="3.sign-3_fr_1hgc9341dpb37u-stroke" fill="none" stroke-linecap="round" stroke-linejoin="round" stroke-miterlimit="4" stroke="#ffffff" stroke-width="2"><g><path d="M 58 10L 268 10M 268 106L 58 106M 58 106C 31.4903 106 10 84.5097 10 58C 10 31.4903 31.4903 10 58 10M 268 10L 268 106"></path></g></g></g><g id="g-root-tx_material_144vqps1dpb4ss-stroke" data-item-order="0" transform="translate(141, 39)"></g><g id="g-root-sign_1umt88w1dpb30s-stroke" data-item-order="0" transform="translate(99, 141)"><g id="sign_1umt88w1dpb30s-stroke" fill="none" stroke-linecap="round" stroke-linejoin="round" stroke-miterlimit="4" stroke="#ffffff" stroke-width="2"><g><path d="M 40.75 40.974998L 34.855 42.16M 35.5 35.5L 32.724998 36.639999C 32.282623 36.820087 31.787373 36.820087 31.344999 36.639999C 30.696657 36.367188 30.266626 35.741707 30.244053 35.038666C 30.221478 34.335625 30.610495 33.683846 31.24 33.369999L 34 32.02C 34.342667 31.84141 34.723591 31.748751 35.110001 31.75C 35.401665 31.748604 35.691227 31.799404 35.965004 31.900002L 41.035 33.834999M 24.25 42.25L 26.349998 42.25L 29.844999 44.904999C 30.206755 45.320595 30.83568 45.367428 31.255001 45.010002L 36.505001 40.810001C 36.928867 40.451988 36.995029 39.823425 36.654999 39.385002L 33.775002 36.204998M 31 33.52L 30.625 33.205002C 30.249029 32.921658 29.790781 32.768909 29.32 32.77C 29.041775 32.771187 28.76652 32.827259 28.51 32.935001L 24.25 34.75M 19.75 43.75L 22.75 43.75C 23.578428 43.75 24.25 43.078426 24.25 42.25L 24.25 34.75C 24.25 33.921574 23.578428 33.25 22.75 33.25L 19.75 33.25M 45.25 43.75L 42.25 43.75C 41.421574 43.75 40.75 43.078426 40.75 42.25L 40.75 34.75C 40.75 33.921574 41.421574 33.25 42.25 33.25L 45.25 33.25M 35.5 10.75L 15.25 10.75C 12.764719 10.75 10.75 12.764719 10.75 15.25L 10.75 44.5C 10.75 44.914215 11.085787 45.25 11.5 45.25L 16 45.25M 15.25 16.75L 27.25 16.75M 15.25 21.25L 27.25 21.25M 15.25 25.75L 20.5 25.75M 31.75 29.5L 31.75 14.5C 31.75 12.428932 33.428932 10.75 35.5 10.75C 37.57 10.75 39.25 12.43 39.25 15.25L 31.75 15.25"></path></g></g></g><g id="g-root-tx_finalize_mg3w1s1dpqjgi-stroke" data-item-order="0" transform="translate(147, 147)"></g><g id="g-root-tx_identify_me87b41dpb405-stroke" data-item-order="0" transform="translate(339, 141)"></g><g id="g-root-tx_issueord_1cws5xc1dps0ln-stroke" data-item-order="0" transform="translate(123, 261)"></g><g id="g-root-tx_placepur_mg3sw01dpdx59-stroke" data-item-order="0" transform="translate(339, 267)"></g><g id="g-root-pen_92roxs1dpb5l2-stroke" data-item-order="0" transform="translate(567, 261)"><g id="pen_92roxs1dpb5l2-stroke" fill="none" stroke-linecap="round" stroke-linejoin="round" stroke-miterlimit="4" stroke="#ffffff" stroke-width="2"><g><path d="M 20.5 17.498501L 16 21.998501L 13.75 19.748501M 20.5 25.748499L 16 30.248499L 13.75 27.998499M 24.25 42.25L 12.25 42.25C 11.421573 42.25 10.75 41.578426 10.75 40.75L 10.75 15.25C 10.75 14.421573 11.421573 13.75 12.25 13.75L 30.25 13.75C 31.078428 13.75 31.75 14.421573 31.75 15.25L 31.75 34.75ZM 24.25 42.248501L 24.25 34.748501L 31.75 34.748501M 36.246998 22.748499L 42.248497 22.748499L 42.248497 38.498501L 36.246998 38.498501ZM 42.25 12.25C 43.906857 12.25 45.25 13.593145 45.25 15.25L 45.25 27.25M 39.25 41.498501L 39.25 45.248501M 36.248501 10.7485L 42.248501 10.7485L 42.248501 22.748499L 36.248501 22.748499ZM 37.75 38.498501L 40.75 38.498501L 40.75 41.498501L 37.75 41.498501ZM 22.75 21.248501L 28 21.248501M 22.75 28.748499L 28 28.748499"></path></g></g></g><g id="g-root-truc_1ur6juo1dptdkw-stroke" data-item-order="0" transform="translate(99, 381)"><g id="truc_1ur6juo1dptdkw-stroke" fill="none" stroke-linecap="round" stroke-linejoin="round" stroke-miterlimit="4" stroke="#ffffff" stroke-width="2"><g><path d="M 37.75 37L 37.75 31C 37.75 30.171572 37.078426 29.5 36.25 29.5L 22.75 29.5C 21.921574 29.5 21.25 30.171572 21.25 31L 21.25 41.5L 24.25 41.5M 37.75 40L 37.75 31.75L 40.75 31.75C 43.235283 31.75 45.25 33.764721 45.25 36.25L 45.25 40C 45.25 40.828426 44.578426 41.5 43.75 41.5L 40 41.5M 45.25 37L 42.25 37C 41.421574 37 40.75 36.328426 40.75 35.5L 40.75 31.75M 35.5 42.25C 35.5 43.492641 36.507362 44.5 37.75 44.5C 38.992641 44.5 40 43.492641 40 42.25C 40 41.007362 38.992641 40 37.75 40C 36.507362 40 35.5 41.007362 35.5 42.25M 24.25 42.25C 24.25 43.492641 25.25736 44.5 26.5 44.5C 27.742641 44.5 28.75 43.492641 28.75 42.25C 28.75 41.007362 27.742641 40 26.5 40C 25.25736 40 24.25 41.007362 24.25 42.25M 35.5 41.5L 28.75 41.5M 18.25 34L 12.25 34C 11.421573 34 10.75 33.328426 10.75 32.5L 10.75 18.115C 10.751657 17.721491 10.907884 17.344391 11.185 17.065001L 16.315001 11.934999C 16.594391 11.657884 16.971491 11.501657 17.365 11.5L 25.135 11.5C 25.528509 11.501657 25.905609 11.657884 26.184999 11.934999L 31.315001 17.065001C 31.592115 17.344391 31.748344 17.721491 31.75 18.115L 31.75 26.5M 21.25 11.5L 21.25 17.5M 31.615 17.5L 10.885 17.5"></path></g></g></g><g id="g-root-tx_receivem_hs4zk01dzdk3z-stroke" data-item-order="0" transform="translate(147, 387)"></g><g id="g-root-tx_acceptde_140ilfk1dpfaiz-stroke" data-item-order="0" transform="translate(339, 381)"></g><g id="g-root-tx_checkmat_140hgcg1dzdjwh-stroke" data-item-order="0" transform="translate(99, 501)"></g><g id="g-root-tx_conductq_1luwzcw1dptd6z-stroke" data-item-order="0" transform="translate(339, 507)"></g><g id="g-root-box_4myo01dpfb4b-stroke" data-item-order="0" transform="translate(603, 501)"><g id="box_4myo01dpfb4b-stroke" fill="none" stroke-linecap="round" stroke-linejoin="round" stroke-miterlimit="4" stroke="#ffffff" stroke-width="2"><g><path d="M 22.203999 10.75L 10.75 17.054501L 22.203999 23.3575L 33.656502 17.054501L 22.203999 10.75ZM 24.142 34.898502L 22.203999 35.965L 10.75 29.661999L 10.75 17.054501M 33.656502 17.054501L 33.656502 23.3575M 22.203999 23.3575L 22.203999 35.965M 26.875 35.125C 26.875002 39.681351 30.568653 43.375 35.125 43.375C 39.681351 43.375 43.375 39.681351 43.375 35.125C 43.375 30.568653 39.681351 26.875002 35.125 26.875002C 30.568653 26.875002 26.875002 30.568653 26.875002 35.125M 40.9585 40.9585L 45.25 45.25"></path></g></g></g></g></g></svg>