<?xml version="1.0" encoding="utf-8" standalone="yes"?>
<!DOCTYPE svg PUBLIC "-//W3C//DTD SVG 1.1//EN" "http://www.w3.org/Graphics/SVG/1.1/DTD/svg11.dtd">
<svg width="674" height="566" viewBox="0 0 674 566" style="fill:none;stroke:none;fill-rule:evenodd;clip-rule:evenodd;stroke-linecap:round;stroke-linejoin:round;stroke-miterlimit:1.5;" version="1.1" xmlns="http://www.w3.org/2000/svg" xmlns:xlink="http://www.w3.org/1999/xlink"><style class="text-font-style fontImports" data-font-family="Roboto">@import url('https://fonts.googleapis.com/css2?family=Roboto:wght@400;700&amp;display=block');</style><rect id="" x="0" y="0" width="674" height="566" style="fill: #ffffff;"></rect><g id="items" style="isolation: isolate"><g id="blend" style="mix-blend-mode: normal"><g id="g-root-tf_1hf2va81g7lhxe-fill" data-item-order="-379008" transform="translate(-9, -9)"><g id="tf_1hf2va81g7lhxe-fill" stroke="none" fill="#ffffff"><g><path d="M 10 10L 682 10L 682 574L 10 574Z"></path></g></g></g><g id="g-root--1.line_sy_93zoio1g7k2dd-fill" data-item-order="-119801" transform="translate(570, 326.9970703125)"></g><g id="g-root--1.vector_sy_1utn84g1g7k3r6-fill" data-item-order="-119799" transform="translate(15, 327)"></g><g id="g-root-5.cr-big_cr_1ly07vk1g7k4jv-fill" data-item-order="-119796" transform="translate(531, 351)"><g id="5.cr-big_cr_1ly07vk1g7k4jv-fill" stroke="none" fill="#fd6a65"><g><path d="M 10 46.001367C 10.000006 65.883691 26.117755 82.00144 46.000006 82.00144C 65.882257 82.00144 82.000006 65.883691 82.000006 46.00144C 82.000006 26.119189 65.882257 10.00144 46.000006 10.00144C 26.117755 10.00144 10.000006 26.119189 10.000006 46.00144"></path></g></g></g><g id="g-root-5.cu-smallCircle_sy_18n66lc1g7k2z0-fill" data-item-order="-119793" transform="translate(564, 324)"></g><g id="g-root-5.ln_ln_18n66lc1g7k2z1-fill" data-item-order="-119791" transform="translate(567, 330)"></g><g id="g-root-5.cr-big_cr_zrk5401h1bu2u-fill" data-item-order="-119788" transform="translate(435, 231)"><g id="5.cr-big_cr_zrk5401h1bu2u-fill" stroke="none" fill="#ffe60a"><g><path d="M 10 46C 10 65.882251 26.117749 82 46 82C 65.882251 82 82 65.882251 82 46C 82 26.117749 65.882251 10 46 10C 26.117749 10 10 26.117749 10 46"></path></g></g></g><g id="g-root-5.cu-smallCircle_sy_mg3mqo1h1bvnr-fill" data-item-order="-119785" transform="translate(468, 324)"></g><g id="g-root-5.ln_ln_i0a4m81h1bwg0-fill" data-item-order="-119783" transform="translate(471, 303)"></g><g id="g-root-4.cr-big_cr_vbpo801g7k4jy-fill" data-item-order="-119780" transform="translate(339, 351)"><g id="4.cr-big_cr_vbpo801g7k4jy-fill" stroke="none" fill="#1ac6ff"><g><path d="M 10 46.001367C 10.000005 65.883691 26.117754 82.00144 46.000005 82.00144C 65.882256 82.00144 82.000005 65.883691 82.000005 46.00144C 82.000005 26.119189 65.882256 10.00144 46.000005 10.00144C 26.117754 10.00144 10.000005 26.119189 10.000005 46.00144"></path></g></g></g><g id="g-root-4.cu-smallCircle_sy_qvw63k1g7k5c7-fill" data-item-order="-119777" transform="translate(372, 324)"></g><g id="g-root-4.ln_ln_mgp5281g7k2yo-fill" data-item-order="-119775" transform="translate(375, 330)"></g><g id="g-root-3.cr-big_cr_dl24tc1g7k3rd-fill" data-item-order="-119772" transform="translate(243, 231)"><g id="3.cr-big_cr_dl24tc1g7k3rd-fill" stroke="none" fill="#a8dd38"><g><path d="M 10 45.999414C 10.000004 65.881737 26.117753 81.999486 46.000004 81.999486C 65.882255 81.999486 82.000004 65.881737 82.000004 45.999486C 82.000004 26.117235 65.882255 9.999486 46.000004 9.999486C 26.117753 9.999486 10.000004 26.117235 10.000004 45.999486"></path></g></g></g><g id="g-root-3.cu-smallCircle_sy_958mow1g7k4jm-fill" data-item-order="-119769" transform="translate(276, 324)"></g><g id="g-root-3.ln_ln_9lmg01g7k5cb-fill" data-item-order="-119767" transform="translate(279, 303)"></g><g id="g-root-2.cr-big_cr_1ulj2001g7lhc4-fill" data-item-order="-119764" transform="translate(147, 351)"><g id="2.cr-big_cr_1ulj2001g7lhc4-fill" stroke="none" fill="#44e095"><g><path d="M 10 45.999414C 10.000003 65.881738 26.117752 81.999487 46.000003 81.999487C 65.882254 81.999487 82.000003 65.881738 82.000003 45.999487C 82.000003 26.117236 65.882254 9.999487 46.000003 9.999487C 26.117752 9.999487 10.000003 26.117236 10.000003 45.999487"></path></g></g></g><g id="g-root-2.cu-smallCircle_sy_1lpw1r41g7li4t-fill" data-item-order="-119761" transform="translate(180, 324)"></g><g id="g-root-2.ln_ln_1ha2jmo1g7lix2-fill" data-item-order="-119759" transform="translate(183, 330)"></g><g id="g-root-1.cr-big_cr_18efjds1g7ljpr-fill" data-item-order="-119756" transform="translate(51, 231)"><g id="1.cr-big_cr_18efjds1g7ljpr-fill" stroke="none" fill="#4f92ff"><g><path d="M 10 45.999414C 10.000003 65.881737 26.117752 81.999486 46.000003 81.999486C 65.882254 81.999486 82.000003 65.881737 82.000003 45.999486C 82.000003 26.117235 65.882254 9.999486 46.000003 9.999486C 26.117752 9.999486 10.000003 26.117235 10.000003 45.999486"></path></g></g></g><g id="g-root-1.cu-smallCircle_sy_13z8icg1g7lhc8-fill" data-item-order="-119753" transform="translate(84, 324)"></g><g id="g-root-1.ln_ln_zjf0801g7li4h-fill" data-item-order="-119751" transform="translate(87, 303)"></g><g id="g-root-7_18efw0w1g7lhjf-fill" data-item-order="0" transform="translate(255, 243)"></g><g id="g-root-tx_issueres_9407hc1g7inta-fill" data-item-order="0" transform="translate(513, 435)"><g id="tx_issueres_9407hc1g7inta-fill" stroke="none" fill="#543a3a"><g><text style="font: 20px Roboto, sans-serif; white-space: pre;" font-size="20px" font-family="Roboto, sans-serif"><tspan x="40.14" y="34" dominant-baseline="ideographic">Issue </tspan><tspan x="16.79" y="58" dominant-baseline="ideographic">Resolution</tspan></text></g></g></g><g id="g-root-tx_preprodu_9595nk1g7k45c-fill" data-item-order="0" transform="translate(147, 39)"><g id="tx_preprodu_9595nk1g7k45c-fill" stroke="none" fill="#484848"><g><text style="font: 20px Roboto, sans-serif; white-space: pre;" font-size="20px" font-family="Roboto, sans-serif"><tspan x="16.81" y="34" dominant-baseline="ideographic">Pre-Production Safety Check Sequence</tspan></text></g></g></g><g id="g-root-malf_mcc99c1g7hbt2-fill" data-item-order="0" transform="translate(63, 243)"></g><g id="g-root-tx_neweleme_1lr5yow1h1d9u1-fill" data-item-order="0" transform="translate(405, 339)"><g id="tx_neweleme_1lr5yow1h1d9u1-fill" stroke="none" fill="#484848"><g><text style="font: 20px Roboto, sans-serif; white-space: pre;" font-size="20px" font-family="Roboto, sans-serif"><tspan x="17.66" y="34" dominant-baseline="ideographic">New element</tspan></text></g></g></g><g id="g-root-tx_neweleme_v4vf1c1h1d9u2-fill" data-item-order="0" transform="translate(405, 195)"><g id="tx_neweleme_v4vf1c1h1d9u2-fill" stroke="none" fill="#484848"><g><text style="font: 20px Roboto, sans-serif; white-space: pre;" font-size="20px" font-family="Roboto, sans-serif"><tspan x="17.66" y="34" dominant-baseline="ideographic">New element</tspan></text></g></g></g><g id="g-root-budg_1lxe3fk1g7ljpo-fill" data-item-order="0" transform="translate(159, 363)"></g><g id="g-root-tx_wearandt_1cu9kgw1g7k54z-fill" data-item-order="0" transform="translate(207, 171)"><g id="tx_wearandt_1cu9kgw1g7k54z-fill" stroke="none" fill="#424736"><g><text style="font: 20px Roboto, sans-serif; white-space: pre;" font-size="20px" font-family="Roboto, sans-serif"><tspan x="15.68" y="34" dominant-baseline="ideographic">Wear and Tear </tspan><tspan x="33.03" y="58" dominant-baseline="ideographic">Inspection</tspan></text></g></g></g><g id="g-root-task_958w681g7egaq-fill" data-item-order="0" transform="translate(351, 363)"></g><g id="g-root-tx_safetych_3dejk1g7k3d3-fill" data-item-order="0" transform="translate(21, 171)"><g id="tx_safetych_3dejk1g7k3d3-fill" stroke="none" fill="#3a4455"><g><text style="font: 20px Roboto, sans-serif; white-space: pre;" font-size="20px" font-family="Roboto, sans-serif"><tspan x="15.37" y="34" dominant-baseline="ideographic">Safety Check </tspan><tspan x="34.77" y="58" dominant-baseline="ideographic">Initiation</tspan></text></g></g></g><g id="g-root-2_qnrzz41g7lix6-fill" data-item-order="0" transform="translate(543, 363)"></g><g id="g-root-tx_calibrat_hu0xy81g7k45q-fill" data-item-order="0" transform="translate(111, 435)"><g id="tx_calibrat_hu0xy81g7k45q-fill" stroke="none" fill="#374840"><g><text style="font: 20px Roboto, sans-serif; white-space: pre;" font-size="20px" font-family="Roboto, sans-serif"><tspan x="13.46" y="34" dominant-baseline="ideographic">Calibration and </tspan><tspan x="22.81" y="58" dominant-baseline="ideographic">Maintenance</tspan></text></g></g></g><g id="g-root-tx_workplac_1d307og1g7ioeg-fill" data-item-order="0" transform="translate(321, 435)"><g id="tx_workplac_1d307og1g7ioeg-fill" stroke="none" fill="#32444a"><g><text style="font: 20px Roboto, sans-serif; white-space: pre;" font-size="20px" font-family="Roboto, sans-serif"><tspan x="16.37" y="34" dominant-baseline="ideographic">Workplace </tspan><tspan x="35.23" y="58" dominant-baseline="ideographic">Safety </tspan><tspan x="12.86" y="82" dominant-baseline="ideographic">Verification</tspan></text></g></g></g><g id="g-root-tf_1hf2va81g7lhxe-stroke" data-item-order="-379008" transform="translate(-9, -9)"></g><g id="g-root--1.line_sy_93zoio1g7k2dd-stroke" data-item-order="-119801" transform="translate(570, 326.9970703125)"><g id="-1.line_sy_93zoio1g7k2dd-stroke" fill="none" stroke-linecap="round" stroke-linejoin="round" stroke-miterlimit="4" stroke="#484848" stroke-width="2"><g><path d="M 77 10.00293L 10 10.00293"></path><path d="M 71 16.50293L 77.5 10.00293L 71 3.50293" stroke-dasharray="none"></path></g></g></g><g id="g-root--1.vector_sy_1utn84g1g7k3r6-stroke" data-item-order="-119799" transform="translate(15, 327)"><g id="-1.vector_sy_1utn84g1g7k3r6-stroke" fill="none" stroke-linecap="round" stroke-linejoin="round" stroke-miterlimit="4" stroke="#484848" stroke-width="2"><g><path d="M 559 10L 469 10M 78.9976 10L 10 10M 174.9976 10L 84.9976 10M 271 10L 181 10M 367 10L 277 10M 463 10L 373 10"></path></g></g></g><g id="g-root-5.cr-big_cr_1ly07vk1g7k4jv-stroke" data-item-order="-119796" transform="translate(531, 351)"><g id="5.cr-big_cr_1ly07vk1g7k4jv-stroke" fill="none" stroke-linecap="round" stroke-linejoin="round" stroke-miterlimit="4" stroke="#ffffff" stroke-width="2"><g><path d="M 10 46.001367C 10.000006 65.883691 26.117755 82.00144 46.000006 82.00144C 65.882257 82.00144 82.000006 65.883691 82.000006 46.00144C 82.000006 26.119189 65.882257 10.00144 46.000006 10.00144C 26.117755 10.00144 10.000006 26.119189 10.000006 46.00144"></path></g></g></g><g id="g-root-5.cu-smallCircle_sy_18n66lc1g7k2z0-stroke" data-item-order="-119793" transform="translate(564, 324)"><g id="5.cu-smallCircle_sy_18n66lc1g7k2z0-stroke" fill="none" stroke-linecap="round" stroke-linejoin="round" stroke-miterlimit="4" stroke="#969696" stroke-width="2"><g><path d="M 10 13C 10 11.343109 11.343079 10 13 10C 14.656921 10 16 11.343109 16 13C 16 14.656891 14.656921 16 13 16C 11.343079 16 10 14.656891 10 13Z"></path></g></g></g><g id="g-root-5.ln_ln_18n66lc1g7k2z1-stroke" data-item-order="-119791" transform="translate(567, 330)"><g id="5.ln_ln_18n66lc1g7k2z1-stroke" fill="none" stroke-linecap="round" stroke-linejoin="round" stroke-miterlimit="4" stroke="#969696" stroke-width="2"><g><path d="M 10 31L 10 20.5L 10 10"></path></g></g></g><g id="g-root-5.cr-big_cr_zrk5401h1bu2u-stroke" data-item-order="-119788" transform="translate(435, 231)"><g id="5.cr-big_cr_zrk5401h1bu2u-stroke" fill="none" stroke-linecap="round" stroke-linejoin="round" stroke-miterlimit="4" stroke="#ffffff" stroke-width="2"><g><path d="M 10 46C 10 65.882251 26.117749 82 46 82C 65.882251 82 82 65.882251 82 46C 82 26.117749 65.882251 10 46 10C 26.117749 10 10 26.117749 10 46"></path></g></g></g><g id="g-root-5.cu-smallCircle_sy_mg3mqo1h1bvnr-stroke" data-item-order="-119785" transform="translate(468, 324)"><g id="5.cu-smallCircle_sy_mg3mqo1h1bvnr-stroke" fill="none" stroke-linecap="round" stroke-linejoin="round" stroke-miterlimit="4" stroke="#969696" stroke-width="2"><g><path d="M 16 13C 16 14.6569 14.6569 16 13 16C 11.3431 16 10 14.6569 10 13C 10 11.3431 11.3431 10 13 10C 14.6569 10 16 11.3431 16 13Z"></path></g></g></g><g id="g-root-5.ln_ln_i0a4m81h1bwg0-stroke" data-item-order="-119783" transform="translate(471, 303)"><g id="5.ln_ln_i0a4m81h1bwg0-stroke" fill="none" stroke-linecap="round" stroke-linejoin="round" stroke-miterlimit="4" stroke="#969696" stroke-width="2"><g><path d="M 10 10L 10 20.5L 10 31"></path></g></g></g><g id="g-root-4.cr-big_cr_vbpo801g7k4jy-stroke" data-item-order="-119780" transform="translate(339, 351)"><g id="4.cr-big_cr_vbpo801g7k4jy-stroke" fill="none" stroke-linecap="round" stroke-linejoin="round" stroke-miterlimit="4" stroke="#ffffff" stroke-width="2"><g><path d="M 10 46.001367C 10.000005 65.883691 26.117754 82.00144 46.000005 82.00144C 65.882256 82.00144 82.000005 65.883691 82.000005 46.00144C 82.000005 26.119189 65.882256 10.00144 46.000005 10.00144C 26.117754 10.00144 10.000005 26.119189 10.000005 46.00144"></path></g></g></g><g id="g-root-4.cu-smallCircle_sy_qvw63k1g7k5c7-stroke" data-item-order="-119777" transform="translate(372, 324)"><g id="4.cu-smallCircle_sy_qvw63k1g7k5c7-stroke" fill="none" stroke-linecap="round" stroke-linejoin="round" stroke-miterlimit="4" stroke="#969696" stroke-width="2"><g><path d="M 10 13C 10 11.343109 11.343079 10 13 10C 14.656921 10 16 11.343109 16 13C 16 14.656891 14.656921 16 13 16C 11.343079 16 10 14.656891 10 13Z"></path></g></g></g><g id="g-root-4.ln_ln_mgp5281g7k2yo-stroke" data-item-order="-119775" transform="translate(375, 330)"><g id="4.ln_ln_mgp5281g7k2yo-stroke" fill="none" stroke-linecap="round" stroke-linejoin="round" stroke-miterlimit="4" stroke="#969696" stroke-width="2"><g><path d="M 10 31L 10 20.5L 10 10"></path></g></g></g><g id="g-root-3.cr-big_cr_dl24tc1g7k3rd-stroke" data-item-order="-119772" transform="translate(243, 231)"><g id="3.cr-big_cr_dl24tc1g7k3rd-stroke" fill="none" stroke-linecap="round" stroke-linejoin="round" stroke-miterlimit="4" stroke="#ffffff" stroke-width="2"><g><path d="M 10 45.999414C 10.000004 65.881737 26.117753 81.999486 46.000004 81.999486C 65.882255 81.999486 82.000004 65.881737 82.000004 45.999486C 82.000004 26.117235 65.882255 9.999486 46.000004 9.999486C 26.117753 9.999486 10.000004 26.117235 10.000004 45.999486"></path></g></g></g><g id="g-root-3.cu-smallCircle_sy_958mow1g7k4jm-stroke" data-item-order="-119769" transform="translate(276, 324)"><g id="3.cu-smallCircle_sy_958mow1g7k4jm-stroke" fill="none" stroke-linecap="round" stroke-linejoin="round" stroke-miterlimit="4" stroke="#969696" stroke-width="2"><g><path d="M 16 13C 16 14.6569 14.6569 16 13 16C 11.3431 16 10 14.6569 10 13C 10 11.3431 11.3431 10 13 10C 14.6569 10 16 11.3431 16 13Z"></path></g></g></g><g id="g-root-3.ln_ln_9lmg01g7k5cb-stroke" data-item-order="-119767" transform="translate(279, 303)"><g id="3.ln_ln_9lmg01g7k5cb-stroke" fill="none" stroke-linecap="round" stroke-linejoin="round" stroke-miterlimit="4" stroke="#969696" stroke-width="2"><g><path d="M 10 10L 10 20.5L 10 31"></path></g></g></g><g id="g-root-2.cr-big_cr_1ulj2001g7lhc4-stroke" data-item-order="-119764" transform="translate(147, 351)"><g id="2.cr-big_cr_1ulj2001g7lhc4-stroke" fill="none" stroke-linecap="round" stroke-linejoin="round" stroke-miterlimit="4" stroke="#ffffff" stroke-width="2"><g><path d="M 10 45.999414C 10.000003 65.881738 26.117752 81.999487 46.000003 81.999487C 65.882254 81.999487 82.000003 65.881738 82.000003 45.999487C 82.000003 26.117236 65.882254 9.999487 46.000003 9.999487C 26.117752 9.999487 10.000003 26.117236 10.000003 45.999487"></path></g></g></g><g id="g-root-2.cu-smallCircle_sy_1lpw1r41g7li4t-stroke" data-item-order="-119761" transform="translate(180, 324)"><g id="2.cu-smallCircle_sy_1lpw1r41g7li4t-stroke" fill="none" stroke-linecap="round" stroke-linejoin="round" stroke-miterlimit="4" stroke="#969696" stroke-width="2"><g><path d="M 10 13C 10 11.343109 11.343109 10 13 10C 14.656891 10 16 11.343109 16 13C 16 14.656891 14.656891 16 13 16C 11.343109 16 10 14.656891 10 13Z"></path></g></g></g><g id="g-root-2.ln_ln_1ha2jmo1g7lix2-stroke" data-item-order="-119759" transform="translate(183, 330)"><g id="2.ln_ln_1ha2jmo1g7lix2-stroke" fill="none" stroke-linecap="round" stroke-linejoin="round" stroke-miterlimit="4" stroke="#969696" stroke-width="2"><g><path d="M 10 31L 10 20.5L 10 10"></path></g></g></g><g id="g-root-1.cr-big_cr_18efjds1g7ljpr-stroke" data-item-order="-119756" transform="translate(51, 231)"><g id="1.cr-big_cr_18efjds1g7ljpr-stroke" fill="none" stroke-linecap="round" stroke-linejoin="round" stroke-miterlimit="4" stroke="#ffffff" stroke-width="2"><g><path d="M 10 45.999414C 10.000003 65.881737 26.117752 81.999486 46.000003 81.999486C 65.882254 81.999486 82.000003 65.881737 82.000003 45.999486C 82.000003 26.117235 65.882254 9.999486 46.000003 9.999486C 26.117752 9.999486 10.000003 26.117235 10.000003 45.999486"></path></g></g></g><g id="g-root-1.cu-smallCircle_sy_13z8icg1g7lhc8-stroke" data-item-order="-119753" transform="translate(84, 324)"><g id="1.cu-smallCircle_sy_13z8icg1g7lhc8-stroke" fill="none" stroke-linecap="round" stroke-linejoin="round" stroke-miterlimit="4" stroke="#969696" stroke-width="2"><g><path d="M 16 13C 16 14.6569 14.6569 16 13 16C 11.3431 16 10 14.6569 10 13C 10 11.3431 11.3431 10 13 10C 14.6569 10 16 11.3431 16 13Z"></path></g></g></g><g id="g-root-1.ln_ln_zjf0801g7li4h-stroke" data-item-order="-119751" transform="translate(87, 303)"><g id="1.ln_ln_zjf0801g7li4h-stroke" fill="none" stroke-linecap="round" stroke-linejoin="round" stroke-miterlimit="4" stroke="#969696" stroke-width="2"><g><path d="M 10 10L 10 20.5L 10 31"></path></g></g></g><g id="g-root-7_18efw0w1g7lhjf-stroke" data-item-order="0" transform="translate(255, 243)"><g id="7_18efw0w1g7lhjf-stroke" fill="none" stroke-linecap="round" stroke-linejoin="round" stroke-miterlimit="4" stroke="#ffffff" stroke-width="2"><g><path d="M 14.812 23.49L 20.68 23.49M 20.68 20.49L 20.68 26.49M 11.32 46.490002L 14.812 46.490002L 14.812 11.51L 11.32 11.51M 19.68 14.49L 19.338001 12.28M 25.68 15.49L 26.68 13.49M 19.68 32.279999L 19.338001 34.489998M 25.68 31.280001L 26.68 33.279999M 43.758305 27.732359L 50.89407 29.575665L 50.89407 29.575665L 44.591305 53.974747C 44.129669 55.761818 42.306732 56.8363 40.519657 56.374664L 39.853523 56.202587C 38.067482 55.740078 36.994102 53.917755 37.455544 52.131439L 43.758305 27.732359L 43.758305 27.732359ZM 43.153469 19.015911L 51.038631 21.052803C 55.05978 22.090405 57.477974 26.191816 56.439304 30.212687L 56.24572 30.962088L 56.24572 30.962088L 41.079559 27.044371L 41.079559 27.044371L 43.153469 19.015911L 43.153469 19.015911ZM 40.425793 15.451516L 41.00853 15.602016C 41.00853 15.602016 43.838963 16.333015 43.10796 19.163448L 41.11496 26.880344C 41.11496 26.880344 40.383961 29.710777 37.553528 28.979776L 36.970795 28.829279C 36.970795 28.829279 34.140358 28.098276 34.871361 25.267845L 36.864361 17.550949C 36.864361 17.550949 37.59536 14.720516 40.425793 15.451516"></path></g></g></g><g id="g-root-tx_issueres_9407hc1g7inta-stroke" data-item-order="0" transform="translate(513, 435)"></g><g id="g-root-tx_preprodu_9595nk1g7k45c-stroke" data-item-order="0" transform="translate(147, 39)"></g><g id="g-root-malf_mcc99c1g7hbt2-stroke" data-item-order="0" transform="translate(63, 243)"><g id="malf_mcc99c1g7hbt2-stroke" fill="none" stroke-linecap="round" stroke-linejoin="round" stroke-miterlimit="4" stroke="#ffffff" stroke-width="2"><g><path d="M 39.450001 41.299999C 40.849998 43.299999 41.650002 45.700001 41.650002 48.5L 41.650002 50.5M 31.450001 40.299999L 31.450001 50.5M 25.449959 50.5L 25.449959 34.5C 25.449959 33.299999 26.24996 32.5 27.449961 32.5M 45.450001 54.5C 45.450001 55.700001 44.650002 56.5 43.450001 56.5L 13.44996 56.5C 12.24996 56.5 11.449952 55.700001 11.449952 54.5L 11.449952 52.5C 11.449952 51.299999 12.24996 50.5 13.44996 50.5L 43.450001 50.5C 44.650002 50.5 45.450001 51.299999 45.450001 52.5L 45.450001 54.5ZM 25.449959 35.900002C 19.64996 37.299999 15.449961 42.5 15.449961 48.5L 15.449961 50.5M 44.549999 29.89996C 44.1082 29.89996 43.75 29.5418 43.75 29.099979C 43.75 28.65814 44.1082 28.29998 44.549999 28.29998M 44.549999 29.89996C 44.991798 29.89996 45.349998 29.5418 45.349998 29.099979C 45.349998 28.65814 44.991798 28.29998 44.549999 28.29998M 44.549999 23.099979L 44.549999 20.099979M 46.150002 12.5C 45.75 11.9 45.150002 11.5 44.549999 11.5C 43.75 11.5 43.150002 11.9 42.950001 12.5L 32.75 31.700001C 32.349998 32.299999 32.549999 32.900002 32.75 33.5C 33.150002 34.099998 33.75 34.299999 34.349998 34.299999L 54.549999 34.299999C 55.150002 34.299999 55.75 33.900002 56.150002 33.5C 56.549999 32.900002 56.549999 32.299999 56.150002 31.700001L 46.150002 12.5Z"></path></g></g></g><g id="g-root-tx_neweleme_1lr5yow1h1d9u1-stroke" data-item-order="0" transform="translate(405, 339)"></g><g id="g-root-tx_neweleme_v4vf1c1h1d9u2-stroke" data-item-order="0" transform="translate(405, 195)"></g><g id="g-root-budg_1lxe3fk1g7ljpo-stroke" data-item-order="0" transform="translate(159, 363)"><g id="budg_1lxe3fk1g7ljpo-stroke" fill="none" stroke-linecap="round" stroke-linejoin="round" stroke-miterlimit="4" stroke="#ffffff" stroke-width="2"><g><path d="M 10 10M 38.7192 21.525L 36.919201 19.725021C 35.519199 18.125019 36.919399 15.525 39.1194 16.125L 41.519199 16.725019C 42.319199 16.92502 43.319199 16.525 43.519199 15.525L 44.319401 13.125C 44.919399 10.925006 47.919201 10.925006 48.519199 13.125L 49.319401 15.525C 49.519402 16.325001 50.519402 16.92502 51.319401 16.725019L 53.7192 16.125C 55.919201 15.725 57.319199 18.125019 55.919201 19.725021L 54.1194 21.525C 53.519402 22.125 53.519402 23.125019 54.1194 23.725021L 55.919201 25.525C 57.319199 27.125 55.919201 29.725 53.7192 29.125L 51.319401 28.525C 50.519402 28.325001 49.519402 28.725019 49.319401 29.725019L 48.519199 32.125C 47.919201 34.325001 44.919399 34.325001 44.319401 32.125L 43.519199 29.725019M 37.519199 52.525002C 37.519199 54.724998 35.7192 56.525002 33.519199 56.525002L 15.519279 56.525002C 13.31928 56.525002 11.519288 54.724998 11.519288 52.525002L 11.519288 30.525C 11.519288 28.325001 13.31928 26.525 15.519279 26.525L 33.519199 26.525C 35.7192 26.525 37.519199 28.325001 37.519199 30.525L 37.519199 52.525002ZM 31.519199 32.525002L 17.519279 32.525002L 17.519279 38.525002L 31.519199 38.525002L 31.519199 32.525002ZM 17.919281 44.325001C 17.69836 44.325001 17.519279 44.146 17.519279 43.924999C 17.519279 43.703999 17.69836 43.525002 17.919281 43.525002M 17.91934 44.325001C 18.140259 44.325001 18.31934 44.146 18.31934 43.924999C 18.31934 43.703999 18.140259 43.525002 17.91934 43.525002M 17.919281 50.325001C 17.69836 50.325001 17.519279 50.146 17.519279 49.924999C 17.519279 49.703999 17.69836 49.525002 17.919281 49.525002M 17.91934 50.325001C 18.140259 50.325001 18.31934 50.146 18.31934 49.924999C 18.31934 49.703999 18.140259 49.525002 17.91934 49.525002M 24.519379 44.325001C 24.29846 44.325001 24.119381 44.146 24.119381 43.924999C 24.119381 43.703999 24.29846 43.525002 24.519379 43.525002M 24.519199 44.325001C 24.740101 44.325001 24.91918 44.146 24.91918 43.924999C 24.91918 43.703999 24.740101 43.525002 24.519199 43.525002M 24.519379 50.325001C 24.29846 50.325001 24.119381 50.146 24.119381 49.924999C 24.119381 49.703999 24.29846 49.525002 24.519379 49.525002M 24.519199 50.325001C 24.740101 50.325001 24.91918 50.146 24.91918 49.924999C 24.91918 49.703999 24.740101 49.525002 24.519199 49.525002M 30.919201 44.325001C 30.6984 44.325001 30.519199 44.146 30.519199 43.924999C 30.519199 43.703999 30.6984 43.525002 30.919201 43.525002M 30.919399 44.325001C 31.1402 44.325001 31.319401 44.146 31.319401 43.924999C 31.319401 43.703999 31.1402 43.525002 30.919399 43.525002M 30.919201 50.325001C 30.6984 50.325001 30.519199 50.146 30.519199 49.924999C 30.519199 49.703999 30.6984 49.525002 30.919201 49.525002M 30.919399 50.325001C 31.1402 50.325001 31.319401 50.146 31.319401 49.924999C 31.319401 49.703999 31.1402 49.525002 30.919399 49.525002M 43.419998 22.625999C 43.420002 24.282856 44.763145 25.625999 46.420002 25.625999C 48.076855 25.625999 49.420002 24.282856 49.420002 22.625999C 49.420002 20.969147 48.076855 19.625999 46.420002 19.625999C 44.763145 19.625999 43.420002 20.969147 43.420002 22.625999"></path></g></g></g><g id="g-root-tx_wearandt_1cu9kgw1g7k54z-stroke" data-item-order="0" transform="translate(207, 171)"></g><g id="g-root-task_958w681g7egaq-stroke" data-item-order="0" transform="translate(351, 363)"><g id="task_958w681g7egaq-stroke" fill="none" stroke-linecap="round" stroke-linejoin="round" stroke-miterlimit="4" stroke="#ffffff" stroke-width="2"><g><path d="M 45.4002 18C 45.179401 18 45.000198 17.820919 45.000198 17.6C 45.000198 17.379101 45.179401 17.20002 45.4002 17.20002M 45.4002 18C 45.621201 18 45.800201 17.820919 45.800201 17.6C 45.800201 17.379101 45.621201 17.20002 45.4002 17.20002M 48.098801 42.599998L 54.400398 42.599998C 55.600399 42.599998 56.400398 41.799999 56.400398 40.599998L 56.400398 19.6C 56.400398 18.4 55.600399 17.6 54.400398 17.6L 51.400398 17.6C 51.400398 14.2 48.8004 11.600006 45.400398 11.600006C 42.000401 11.600006 39.400398 14.2 39.400398 17.6L 36.400398 17.6C 35.200401 17.6 34.400398 18.4 34.400398 19.6L 34.400398 27.30212M 46.000198 24.6L 50.4002 24.6M 46.000198 30.6L 50.4002 30.6M 46.000198 36.599998L 50.4002 36.599998M 40.400398 24.6L 41.000401 24.6M 40.400398 30.6L 41.000401 30.6M 31.6 35.799999C 37.400002 37.200001 41.599998 42.400002 41.599998 48.400002L 41.599998 50.400002M 25.599979 50.400002L 25.599979 34.400002C 25.599979 33.200001 26.399981 32.400002 27.599979 32.400002L 29.599979 32.400002C 30.799999 32.400002 31.6 33.200001 31.6 34.400002L 31.6 50.400002M 25.599979 35.799999C 19.79998 37.200001 15.599979 42.400002 15.599979 48.400002L 15.599979 50.400002M 45.599998 54.400002C 45.599998 55.599998 44.799999 56.400002 43.599998 56.400002L 13.59998 56.400002C 12.399981 56.400002 11.599976 55.599998 11.599976 54.400002L 11.599976 52.400002C 11.599976 51.200001 12.399981 50.400002 13.59998 50.400002L 43.599998 50.400002C 44.799999 50.400002 45.599998 51.200001 45.599998 52.400002L 45.599998 54.400002Z"></path></g></g></g><g id="g-root-tx_safetych_3dejk1g7k3d3-stroke" data-item-order="0" transform="translate(21, 171)"></g><g id="g-root-2_qnrzz41g7lix6-stroke" data-item-order="0" transform="translate(543, 363)"><g id="2_qnrzz41g7lix6-stroke" fill="none" stroke-linecap="round" stroke-linejoin="round" stroke-miterlimit="4" stroke="#ffffff" stroke-width="2"><g><path d="M 44.5 52C 44.085789 52 43.75 51.664215 43.75 51.25C 43.75 50.835789 44.085789 50.5 44.5 50.5M 44.5 52C 44.914215 52 45.25 51.664215 45.25 51.25C 45.25 50.835789 44.914215 50.5 44.5 50.5M 44.5 46L 44.5 40M 56.125999 51.366001C 56.674419 52.465961 56.614849 53.771339 55.968529 54.81678C 55.322205 55.862217 54.181095 56.498955 52.952 56.5L 36.048 56.5C 34.818905 56.498955 33.677795 55.862217 33.031471 54.81678C 32.385151 53.771339 32.325581 52.465961 32.874001 51.366001L 41.326 34.461998C 41.92572 33.258072 43.154968 32.497089 44.5 32.497089C 45.845032 32.497089 47.07428 33.258072 47.674 34.461998L 56.125999 51.366001ZM 39.945999 28.375999C 39.663727 28.128641 39.438538 27.822929 39.286003 27.48C 39.136063 27.140133 39.062988 26.77136 39.071999 26.4C 39.066002 26.028 39.139999 25.66 39.292 25.32C 39.442001 24.98 39.666 24.674 39.945999 24.422001L 41.372002 23.195999C 41.777485 22.843067 42.061577 22.371443 42.183998 21.848C 42.305481 21.326752 42.257847 20.780363 42.048 20.288C 41.835159 19.792091 41.473938 19.374279 41.014 19.091999C 40.547195 18.805614 40.005051 18.666245 39.458 18.692001L 37.543999 18.790001C 36.796814 18.828175 36.066895 18.556896 35.526001 18.040001C 35.264229 17.786119 35.059669 17.479282 34.926003 17.139999C 34.792564 16.803297 34.733875 16.441622 34.753998 16.08L 34.753998 14.243999C 34.79155 13.706897 34.655533 13.171941 34.366001 12.718C 34.071907 12.258485 33.641998 11.901976 33.136002 11.698C 32.624687 11.490896 32.062489 11.444162 31.524 11.564C 30.983999 11.684 30.497999 11.964 30.132 12.364L 28.85 13.748C 28.333984 14.286247 27.620644 14.590572 26.875 14.590572C 26.129358 14.590572 25.416016 14.286247 24.900002 13.748L 23.618 12.366C 23.247473 11.962326 22.761322 11.68293 22.226 11.566C 21.687511 11.446162 21.125313 11.492896 20.614 11.7C 20.104 11.906 19.674 12.262 19.383999 12.72C 19.094757 13.173323 18.958744 13.707553 18.996 14.243999L 18.996 16.082001C 19.039921 16.817152 18.757465 17.534267 18.223999 18.042C 17.682289 18.558685 16.951576 18.829266 16.204 18.790001L 14.292 18.689999C 13.744734 18.664719 13.202535 18.804798 12.736 19.091999C 12.275658 19.374702 11.91438 19.793282 11.702 20.289999C 11.492585 20.781769 11.444958 21.327385 11.566 21.848C 11.686 22.368 11.97 22.838001 12.378 23.195999L 13.804 24.422001C 14.084 24.674 14.308001 24.978001 14.458 25.32C 14.610001 25.66 14.684 26.028 14.677999 26.4C 14.688 26.77 14.614 27.139999 14.462 27.48C 14.312 27.82 14.086 28.125999 13.802 28.375999L 12.378 29.620001C 11.972 29.98 11.688 30.450001 11.568 30.969999C 11.448 31.49 11.496 32.034 11.706 32.526001C 11.916 33.015999 12.276 33.431999 12.74 33.716C 13.204 33.998001 13.746 34.136002 14.292 34.108002L 16.205999 34.108002C 16.952896 34.06929 17.682775 34.339832 18.223999 34.855999C 18.752895 35.366798 19.034489 36.081722 18.995998 36.815998L 18.996 38.653999C 18.962 39.186001 19.102001 39.716 19.394001 40.169998C 19.686001 40.622002 20.116001 40.975998 20.624001 41.18C 21.133999 41.384003 21.694 41.43 22.23 41.309998C 22.768 41.190002 23.25 40.91 23.618 40.510002L 24.9 39.148003C 25.151718 38.879501 25.456039 38.665726 25.793999 38.52C 26.843912 38.071133 28.06218 38.321484 28.85 39.148003L 30.132 40.512001C 30.497999 40.912003 30.982 41.190002 31.518 41.309998M 26.875999 31.200001C 29.639999 31.200001 31.882 29.024 31.882 26.34C 31.882 23.656 29.639999 21.48 26.875999 21.48C 24.112 21.48 21.868 23.656 21.868 26.34C 21.868 29.024 24.110001 31.200001 26.875999 31.200001Z"></path></g></g></g><g id="g-root-tx_calibrat_hu0xy81g7k45q-stroke" data-item-order="0" transform="translate(111, 435)"></g><g id="g-root-tx_workplac_1d307og1g7ioeg-stroke" data-item-order="0" transform="translate(321, 435)"></g></g></g></svg>