<?xml version="1.0" encoding="utf-8" standalone="yes"?>
<!DOCTYPE svg PUBLIC "-//W3C//DTD SVG 1.1//EN" "http://www.w3.org/Graphics/SVG/1.1/DTD/svg11.dtd">
<svg width="762" height="614" viewBox="0 0 762 614" style="fill:none;stroke:none;fill-rule:evenodd;clip-rule:evenodd;stroke-linecap:round;stroke-linejoin:round;stroke-miterlimit:1.5;" version="1.1" xmlns="http://www.w3.org/2000/svg" xmlns:xlink="http://www.w3.org/1999/xlink"><style class="text-font-style fontImports" data-font-family="Roboto">@import url('https://fonts.googleapis.com/css2?family=Roboto:wght@400;700&amp;display=block');</style><rect id="" x="0" y="0" width="762" height="614" style="fill: #ffffff;"></rect><g id="items" style="isolation: isolate"><g id="blend" style="mix-blend-mode: normal"><g id="g-root-tf_90vnmn1anh0y6-fill" data-item-order="-465120" transform="translate(-9, -9)"><g id="tf_90vnmn1anh0y6-fill" stroke="none" fill="#ffffff"><g><path d="M 10 10L 770 10L 770 622L 10 622Z"></path></g></g></g><g id="g-root-4.g-4_fr_vb4ifz1adoef6-fill" data-item-order="-367316" transform="translate(502, 400)"><g id="4.g-4_fr_vb4ifz1adoef6-fill" stroke="none" fill="#e0cb15"><g><path d="M 52.057191 91.618585C 60.665191 98.747385 68.411691 111.655185 73.987091 130.999985L 84.191691 101.569985C 85.746091 96.873185 85.881291 90.357985 84.749291 83.162285C 78.996491 86.252585 71.233191 87.780985 63.241691 89.577085C 59.060191 90.525385 55.360191 91.183585 52.048691 91.618585L 52.057191 91.618585Z"></path></g></g><g id="4.g-4_fr_vb4ifz1adoef6-fill" stroke="none" fill="#e0cb15"><g><path d="M 63.3684 40.010129C 58.6631 35.603429 53.3074 32.345829 47.3941 30.929029C 3.7876 20.442129 10.3514 34.800129 10.3514 34.800129C 12.5816 41.326529 34.9423 45.655129 63.3684 40.010129Z"></path></g></g><g id="4.g-4_fr_vb4ifz1adoef6-fill" stroke="none" fill="#e0cb15"><g><path d="M 92.470288 75.6541C 88.094488 84.5567 75.955288 86.7099 63.250188 89.5771C 45.586288 93.5598 36.429088 92.6115 29.324688 90.3914C 23.259288 77.3276 10.351388 34.8002 10.351388 34.8002C 12.598488 41.3823 35.280188 45.7332 64.027288 39.8874C 92.774388 34.0415 112.972388 15.9351 115.000388 10C 115.000388 10 96.846188 66.7515 92.470288 75.6541Z"></path></g></g></g><g id="g-root-3.g-3_fr_hzo02n1adog06-fill" data-item-order="-367308" transform="translate(472.00006103515625, 307)"><g id="3.g-3_fr_hzo02n1adog06-fill" stroke="none" fill="#92bd39"><g><path d="M 118.235859 124.999973C 133.542559 117.413173 143.434959 107.696773 144.818059 103.659373C 144.818059 103.659373 144.683059 104.080873 144.438559 104.846273L 145.163759 103.193573C 147.280559 96.150273 147.820359 89.606073 147.052859 83.549973C 137.000259 90.970373 118.514159 97.592173 96.747459 101.418873C 105.906159 107.774473 113.504659 115.971273 118.244259 124.999973L 118.235859 124.999973Z"></path></g></g><g id="3.g-3_fr_hzo02n1adog06-fill" stroke="none" fill="#92bd39"><g><path d="M 95.204139 50.562929C 102.979739 49.265129 110.383939 47.512629 117.333939 45.449629C 103.468939 37.518929 86.171939 32.139429 68.461739 29.277729C 57.709139 27.536329 48.339539 26.493729 40.243439 26.371729C 4.949539 25.828229 10.287939 40.081129 10.287939 40.081129C 13.551639 49.609029 49.537039 58.160729 95.195739 50.574029L 95.204139 50.562929Z"></path></g></g><g id="3.g-3_fr_hzo02n1adog06-fill" stroke="none" fill="#92bd39"><g><path d="M 177.000272 10C 177.000272 10 159.230272 65.0264 154.213272 75.6967C 149.186272 86.367 124.738272 96.8266 94.411372 101.829C 59.808972 107.5302 37.198972 101.7292 29.811272 97.1039C 23.309072 83.2281 10.296272 40.0698 10.296272 40.0698C 13.559972 49.5977 49.545472 58.1495 95.204072 50.5627C 140.862272 42.9759 173.753272 19.4724 177.000272 10Z"></path></g></g></g><g id="g-root-2.g-2_fr_4otysf1adoefe-fill" data-item-order="-367300" transform="translate(441.00006103515625, 213)"><g id="2.g-2_fr_4otysf1adoefe-fill" stroke="none" fill="#3cc583"><g><path d="M 127.155939 61.702757C 144.229939 59.137157 160.035939 55.110257 174.103939 50.335957C 160.052939 43.241457 142.894939 37.686357 124.580939 33.782157C 84.413039 39.036057 50.966839 35.511157 28.911439 29.822157C 6.349339 35.131857 10.258939 45.684357 10.258939 45.684357C 14.556839 58.278257 64.460139 71.117457 127.155939 61.691657L 127.155939 61.702757Z"></path></g></g><g id="2.g-2_fr_4otysf1adoefe-fill" stroke="none" fill="#3cc583"><g><path d="M 176.375301 128.988872C 194.403001 119.964572 205.912001 109.947472 207.769701 104.515072C 207.769701 104.515072 207.752801 104.581972 207.710501 104.693572L 208.251001 103.399572C 210.091701 97.197472 210.226801 91.330072 208.918001 85.808372C 197.789001 94.375272 177.354801 103.745372 151.871201 110.114872C 161.877201 115.669972 170.346401 122.095172 176.375301 128.999972L 176.375301 128.988872Z"></path></g></g><g id="2.g-2_fr_4otysf1adoefe-fill" stroke="none" fill="#3cc583"><g><path d="M 240.000399 10C 240.000399 10 223.086399 63.9338 217.395399 76.4941C 211.713399 89.0545 174.391399 108.174 126.328399 115.135C 74.719399 122.898 38.571199 111.911 30.878799 104.8163C 23.920999 89.9692 10.250399 45.6956 10.250399 45.6956C 14.548299 58.2894 64.451699 71.1286 127.147399 61.7028C 189.843399 52.2769 235.524399 23.1293 239.991399 10.0111L 240.000399 10Z"></path></g></g></g><g id="g-root-1.g-1_fr_1qehie71adofta-fill" data-item-order="-367292" transform="translate(411.00128173828125, 119)"><g id="1.g-1_fr_1qehie71adofta-fill" stroke="none" fill="#1eabda"><g><path d="M 235.117311 130.999957C 253.948011 121.462257 266.226311 111.514657 269.363311 104.945657L 270.282511 102.685857C 271.943811 97.080557 271.783611 91.696957 270.054811 86.590157C 258.527111 95.828857 237.427911 106.762357 210.231811 115.336357C 220.199511 120.110757 228.708311 125.405857 235.125811 130.999957L 235.117311 130.999957Z"></path></g></g><g id="1.g-1_fr_1qehie71adofta-fill" stroke="none" fill="#1eabda"><g><path d="M 158.386015 72.167108C 186.038015 68.301108 211.126015 61.610208 232.326015 53.844908L 232.361015 53.829508C 201.070015 39.382108 155.147015 30.097208 110.331015 27.666308C 93.281115 26.744608 77.346515 26.618908 62.892715 27.694208C 2.673215 32.184108 10.312915 50.831808 10.312915 50.831808C 15.625615 66.318208 78.805015 83.289008 158.386015 72.156008L 158.386015 72.167108Z"></path></g></g><g id="1.g-1_fr_1qehie71adofta-fill" stroke="none" fill="#1eabda"><g><path d="M 301.998904 10C 301.998904 10 285.461904 62.153 279.119904 76.4431C 272.786904 90.7331 223.201904 118.139 157.534904 127.09C 89.042504 136.672 39.465504 120.775 31.479504 111.315C 24.083804 95.6958 10.312904 50.8429 10.312904 50.8429C 15.625604 66.3293 78.805004 83.3001 158.385904 72.1671C 237.967904 61.0342 296.306904 26.5942 301.998904 10Z"></path></g></g></g><g id="g-root-tx_newprodu_18ntyzj1adof0q-fill" data-item-order="0" transform="translate(215, 39)"><g id="tx_newprodu_18ntyzj1adof0q-fill" stroke="none" fill="#484848"><g><text style="font: 20px Roboto, sans-serif; white-space: pre;" font-size="20px" font-family="Roboto, sans-serif"><tspan x="15.43" y="34" dominant-baseline="ideographic">New Product Development Funnel</tspan></text></g></g></g><g id="g-root-sear_wajj1adpssl-fill" data-item-order="0" transform="translate(51.22999572753906, 117)"></g><g id="g-root-tx_identify_vcdgm71adogln-fill" data-item-order="0" transform="translate(99, 123)"><g id="tx_identify_vcdgm71adogln-fill" stroke="none" fill="#32444a"><g><text style="font: bold 20px Roboto, sans-serif; white-space: pre;" font-weight="bold" font-size="20px" font-family="Roboto, sans-serif"><tspan x="12" y="34" dominant-baseline="ideographic">Identify Product Need</tspan></text></g></g></g><g id="g-root-tx_determin_dbqbtr1adpudg-fill" data-item-order="0" transform="translate(99, 159)"><g id="tx_determin_dbqbtr1adpudg-fill" stroke="none" fill="#32444a"><g><text style="font: 15px Roboto, sans-serif; white-space: pre;" font-size="15px" font-family="Roboto, sans-serif"><tspan x="12" y="30.6" dominant-baseline="ideographic">Determining necessity based on analysis</tspan></text></g></g></g><g id="g-root-wome_18gxly71anwf0s-fill" data-item-order="0" transform="translate(51.22601318359375, 213)"></g><g id="g-root-tx_analyzec_dcy4wv1anwgsp-fill" data-item-order="0" transform="translate(99, 219)"><g id="tx_analyzec_dcy4wv1anwgsp-fill" stroke="none" fill="#374840"><g><text style="font: bold 20px Roboto, sans-serif; white-space: pre;" font-weight="bold" font-size="20px" font-family="Roboto, sans-serif"><tspan x="12" y="34" dominant-baseline="ideographic">Analyze Consumer Preferences</tspan></text></g></g></g><g id="g-root-tx_understa_243mn1anwf7u-fill" data-item-order="0" transform="translate(99, 255)"><g id="tx_understa_243mn1anwf7u-fill" stroke="none" fill="#374840"><g><text style="font: 15px Roboto, sans-serif; white-space: pre;" font-size="15px" font-family="Roboto, sans-serif"><tspan x="12" y="30.6" dominant-baseline="ideographic">Understanding customer desires and needs</tspan></text></g></g></g><g id="g-root-rati_qv9ye71anmn0i-fill" data-item-order="0" transform="translate(51.22999572753906, 309)"></g><g id="g-root-tx_evaluate_1qd7ian1anmlfz-fill" data-item-order="0" transform="translate(99, 315)"><g id="tx_evaluate_1qd7ian1anmlfz-fill" stroke="none" fill="#424736"><g><text style="font: bold 20px Roboto, sans-serif; white-space: pre;" font-weight="bold" font-size="20px" font-family="Roboto, sans-serif"><tspan x="12" y="34" dominant-baseline="ideographic">Evaluate Competitor Offerings</tspan></text></g></g></g><g id="g-root-tx_assessin_146qgrj1anmlfl-fill" data-item-order="0" transform="translate(99, 351)"><g id="tx_assessin_146qgrj1anmlfl-fill" stroke="none" fill="#424736"><g><text style="font: 15px Roboto, sans-serif; white-space: pre;" font-size="15px" font-family="Roboto, sans-serif"><tspan x="12" y="27.6" dominant-baseline="ideographic">Assessing competitors' products and </tspan><tspan x="12" y="45.6" dominant-baseline="ideographic">strategies</tspan></text></g></g></g><g id="g-root-crea_4m6an1ane5mp-fill" data-item-order="0" transform="translate(51.22999572753906, 417)"></g><g id="g-root-tx_consider_mb37tr1ane5n3-fill" data-item-order="0" transform="translate(99, 423)"><g id="tx_consider_mb37tr1ane5n3-fill" stroke="none" fill="#46432d"><g><text style="font: bold 20px Roboto, sans-serif; white-space: pre;" font-weight="bold" font-size="20px" font-family="Roboto, sans-serif"><tspan x="12" y="34" dominant-baseline="ideographic">Consider Technological </tspan><tspan x="12" y="58" dominant-baseline="ideographic">Advancements</tspan></text></g></g></g><g id="g-root-tx_incorpor_dfg7kv1ane77k-fill" data-item-order="0" transform="translate(99, 483)"><g id="tx_incorpor_dfg7kv1ane77k-fill" stroke="none" fill="#46432d"><g><text style="font: 15px Roboto, sans-serif; white-space: pre;" font-size="15px" font-family="Roboto, sans-serif"><tspan x="12" y="27.6" dominant-baseline="ideographic">Incorporating latest technologies into </tspan><tspan x="12" y="45.6" dominant-baseline="ideographic">planning</tspan></text></g></g></g><g id="g-root-tf_90vnmn1anh0y6-stroke" data-item-order="-465120" transform="translate(-9, -9)"></g><g id="g-root-4.g-4_fr_vb4ifz1adoef6-stroke" data-item-order="-367316" transform="translate(502, 400)"><g id="4.g-4_fr_vb4ifz1adoef6-stroke" fill="none" stroke-linecap="round" stroke-linejoin="round" stroke-miterlimit="4" stroke="#ffffff" stroke-width="2"><g><path d="M 52.057191 91.618585C 60.665191 98.747385 68.411691 111.655185 73.987091 130.999985L 84.191691 101.569985C 85.746091 96.873185 85.881291 90.357985 84.749291 83.162285C 78.996491 86.252585 71.233191 87.780985 63.241691 89.577085C 59.060191 90.525385 55.360191 91.183485 52.048691 91.618585L 52.057191 91.618585Z"></path></g></g><g id="4.g-4_fr_vb4ifz1adoef6-stroke" fill="none" stroke-linecap="round" stroke-linejoin="round" stroke-miterlimit="4" stroke="#ffffff" stroke-width="2"><g><path d="M 63.3684 40.010129C 58.6631 35.603429 53.3074 32.345829 47.3941 30.929029C 3.7877 20.442129 10.3514 34.800129 10.3514 34.800129C 12.5816 41.326529 34.9423 45.655129 63.3684 40.010129Z"></path></g></g><g id="4.g-4_fr_vb4ifz1adoef6-stroke" fill="none" stroke-linecap="round" stroke-linejoin="round" stroke-miterlimit="4" stroke="#ffffff" stroke-width="2"><g><path d="M 92.470288 75.6541C 88.094488 84.5567 75.955288 86.7099 63.250188 89.5771C 45.586288 93.5598 36.429088 92.6115 29.324688 90.3914C 23.259288 77.3276 10.351388 34.8002 10.351388 34.8002C 12.598488 41.3823 35.280188 45.7332 64.027288 39.8874C 92.774388 34.0415 112.972588 15.9351 114.999988 10C 114.999988 10 96.846188 66.7515 92.470288 75.6541Z"></path></g></g></g><g id="g-root-3.g-3_fr_hzo02n1adog06-stroke" data-item-order="-367308" transform="translate(472.00006103515625, 307)"><g id="3.g-3_fr_hzo02n1adog06-stroke" fill="none" stroke-linecap="round" stroke-linejoin="round" stroke-miterlimit="4" stroke="#ffffff" stroke-width="2"><g><path d="M 118.235859 124.999973C 133.542559 117.413173 143.434959 107.696773 144.818059 103.659373C 144.818059 103.659373 144.683059 104.080873 144.438559 104.846273L 145.163759 103.193573C 147.280559 96.150273 147.820359 89.606073 147.052859 83.549973C 137.000259 90.970373 118.514159 97.592173 96.747459 101.418873C 105.906159 107.774473 113.504759 115.971273 118.244259 124.999973L 118.235859 124.999973Z"></path></g></g><g id="3.g-3_fr_hzo02n1adog06-stroke" fill="none" stroke-linecap="round" stroke-linejoin="round" stroke-miterlimit="4" stroke="#ffffff" stroke-width="2"><g><path d="M 95.204139 50.562929C 102.979739 49.265129 110.384339 47.512629 117.333439 45.449629C 103.468939 37.518929 86.171939 32.139429 68.461739 29.277729C 57.709139 27.536329 48.339539 26.493729 40.243439 26.371729C 4.949539 25.828229 10.287939 40.081129 10.287939 40.081129C 13.551639 49.608929 49.537039 58.160729 95.195739 50.574029L 95.204139 50.562929Z"></path></g></g><g id="3.g-3_fr_hzo02n1adog06-stroke" fill="none" stroke-linecap="round" stroke-linejoin="round" stroke-miterlimit="4" stroke="#ffffff" stroke-width="2"><g><path d="M 176.999972 10C 176.999972 10 159.230672 65.0264 154.212772 75.6967C 149.186472 86.367 124.737972 96.8266 94.411372 101.829C 59.808972 107.5302 37.198972 101.7292 29.811272 97.1039C 23.309072 83.2281 10.296272 40.0698 10.296272 40.0698C 13.559972 49.5977 49.545472 58.1495 95.204072 50.5627C 140.862672 42.9759 173.753072 19.4724 176.999972 10Z"></path></g></g></g><g id="g-root-2.g-2_fr_4otysf1adoefe-stroke" data-item-order="-367300" transform="translate(441.00006103515625, 213)"><g id="2.g-2_fr_4otysf1adoefe-stroke" fill="none" stroke-linecap="round" stroke-linejoin="round" stroke-miterlimit="4" stroke="#ffffff" stroke-width="2"><g><path d="M 127.155939 61.702757C 144.229539 59.137157 160.036439 55.110257 174.103939 50.335957C 160.053339 43.241457 142.895339 37.686357 124.580639 33.782157C 84.413039 39.036057 50.966839 35.511157 28.911439 29.822157C 6.349339 35.131857 10.258939 45.684357 10.258939 45.684357C 14.556839 58.278257 64.460139 71.117457 127.155939 61.691657L 127.155939 61.702757Z"></path></g></g><g id="2.g-2_fr_4otysf1adoefe-stroke" fill="none" stroke-linecap="round" stroke-linejoin="round" stroke-miterlimit="4" stroke="#ffffff" stroke-width="2"><g><path d="M 176.375301 128.988872C 194.403001 119.964572 205.912001 109.947472 207.769701 104.515072C 207.769701 104.515072 207.752801 104.581972 207.710501 104.693572L 208.251001 103.399572C 210.091701 97.197472 210.226801 91.330072 208.918001 85.808372C 197.789001 94.375272 177.354801 103.745372 151.871201 110.114872C 161.877201 115.669972 170.346401 122.095172 176.375301 128.999972L 176.375301 128.988872Z"></path></g></g><g id="2.g-2_fr_4otysf1adoefe-stroke" fill="none" stroke-linecap="round" stroke-linejoin="round" stroke-miterlimit="4" stroke="#ffffff" stroke-width="2"><g><path d="M 239.999899 10C 239.999899 10 223.086799 63.9337 217.395599 76.4941C 211.712899 89.0545 174.390999 108.174 126.328399 115.1346C 74.719399 122.8984 38.571199 111.9108 30.878799 104.8163C 23.920999 89.9692 10.250399 45.6956 10.250399 45.6956C 14.548299 58.2894 64.451699 71.1286 127.147499 61.7028C 189.843299 52.2769 235.524699 23.1293 239.991499 10.0111L 239.999899 10Z"></path></g></g></g><g id="g-root-1.g-1_fr_1qehie71adofta-stroke" data-item-order="-367292" transform="translate(411.00128173828125, 119)"><g id="1.g-1_fr_1qehie71adofta-stroke" fill="none" stroke-linecap="round" stroke-linejoin="round" stroke-miterlimit="4" stroke="#ffffff" stroke-width="2"><g><path d="M 235.117311 130.999957C 253.948011 121.462257 266.226311 111.514657 269.363311 104.945657L 270.282511 102.685857C 271.943811 97.080557 271.783611 91.696857 270.054811 86.590157C 258.527111 95.828857 237.427911 106.762357 210.231811 115.336357C 220.199511 120.110757 228.708311 125.405857 235.125811 130.999957L 235.117311 130.999957Z"></path></g></g><g id="1.g-1_fr_1qehie71adofta-stroke" fill="none" stroke-linecap="round" stroke-linejoin="round" stroke-miterlimit="4" stroke="#ffffff" stroke-width="2"><g><path d="M 158.386315 72.167108C 186.037815 68.301108 211.125715 61.610208 232.326015 53.844908L 232.361415 53.829508C 201.069715 39.382108 155.146615 30.097208 110.330515 27.666308C 93.281115 26.744608 77.346515 26.618908 62.892715 27.694208C 2.673215 32.184108 10.312915 50.831808 10.312915 50.831808C 15.625615 66.318208 78.805015 83.289008 158.386315 72.156008L 158.386315 72.167108Z"></path></g></g><g id="1.g-1_fr_1qehie71adofta-stroke" fill="none" stroke-linecap="round" stroke-linejoin="round" stroke-miterlimit="4" stroke="#ffffff" stroke-width="2"><g><path d="M 301.998704 10C 301.998704 10 285.461804 62.153 279.120204 76.4431C 272.787104 90.7331 223.201604 118.1389 157.534604 127.0896C 89.042504 136.6716 39.465504 120.7754 31.479504 111.3152C 24.083804 95.6958 10.312904 50.8429 10.312904 50.8429C 15.625604 66.3293 78.805004 83.3001 158.386304 72.1671C 237.967704 61.0342 296.306504 26.5942 301.998704 10Z"></path></g></g></g><g id="g-root-tx_newprodu_18ntyzj1adof0q-stroke" data-item-order="0" transform="translate(215, 39)"></g><g id="g-root-sear_wajj1adpssl-stroke" data-item-order="0" transform="translate(51.22999572753906, 117)"><g id="sear_wajj1adpssl-stroke" fill="none" stroke-linecap="round" stroke-linejoin="round" stroke-miterlimit="4" stroke="#1eabda" stroke-width="2"><g><path d="M 30.25 36.25C 30.25 39.563709 32.936291 42.25 36.25 42.25C 39.563709 42.25 42.25 39.563709 42.25 36.25C 42.25 32.936291 39.563709 30.25 36.25 30.25C 32.936291 30.25 30.25 32.936291 30.25 36.25M 40.491997 40.491997L 45.25 45.25M 15.3085 18.25L 19.217501 10.75M 36.151001 18.25L 32.2435 10.75M 37.951 26.923L 38.7565 22.75L 12.7 22.75L 14.92 34.234001C 15.183905 35.431652 16.257391 36.275871 17.483501 36.25L 25 36.25M 12.25 18.25L 39.25 18.25C 39.25 18.25 40.75 18.25 40.75 19.75L 40.75 21.25C 40.75 21.25 40.75 22.75 39.25 22.75L 12.25 22.75C 12.25 22.75 10.75 22.75 10.75 21.25L 10.75 19.75C 10.75 19.75 10.75 18.25 12.25 18.25M 25.75 26.5L 25.75 31.058498M 19.888 26.5L 20.539 31.058498"></path></g></g></g><g id="g-root-tx_identify_vcdgm71adogln-stroke" data-item-order="0" transform="translate(99, 123)"></g><g id="g-root-tx_determin_dbqbtr1adpudg-stroke" data-item-order="0" transform="translate(99, 159)"></g><g id="g-root-wome_18gxly71anwf0s-stroke" data-item-order="0" transform="translate(51.22601318359375, 213)"><g id="wome_18gxly71anwf0s-stroke" fill="none" stroke-linecap="round" stroke-linejoin="round" stroke-miterlimit="4" stroke="#3cc583" stroke-width="2"><g><path d="M 28.75 17.482C 28.75 21.233946 31.791553 24.275499 35.543499 24.275499C 39.295444 24.275499 42.336998 21.233946 42.336998 17.482C 42.336998 13.730054 39.295444 10.6885 35.543499 10.6885C 31.791553 10.6885 28.75 13.730054 28.75 17.482ZM 45.25 27.187L 40.378002 22.316502M 36.311501 34.658501C 38.44434 34.89716 40.587269 34.306377 42.296501 33.008499C 41.353001 32.066502 40.704998 31.473999 40.456001 27.814001M 38.5 45.187L 45.25 45.187C 45.186443 43.691105 44.808754 42.225338 44.141499 40.885002C 43.360001 39.321999 41.099499 38.238998 37 36.721001C 36.558861 36.562378 36.260796 36.148666 36.25 35.68L 36.25 33.656502C 36.259991 33.341679 36.400127 33.045113 36.637001 32.837502C 37.41037 32.182716 37.824028 31.19762 37.749996 30.186998L 37.75 29.437M 25.75 20.7715C 25.020779 20.548866 24.262451 20.436129 23.500002 20.437C 20.341 20.437 16.663 22.355501 16.299999 27.807999C 16.051001 31.468 15.4 32.060501 14.4595 33.002499C 16.179371 34.306854 18.335947 34.897846 20.480499 34.6525M 26.561501 34.658501C 28.69434 34.89716 30.837269 34.306377 32.546497 33.008499C 31.603001 32.066502 30.955 31.473999 30.705999 27.814001C 30.675701 27.352915 30.617596 26.894081 30.532 26.440001M 27.25 36.721001C 26.808859 36.562378 26.510796 36.148666 26.499998 35.68L 26.5 33.656502C 26.509989 33.341679 26.650127 33.045113 26.887001 32.837502C 27.660366 32.182716 28.074028 31.19762 27.999998 30.186998L 28 27.187C 26.236645 26.884686 24.640081 25.960276 23.5 24.581499C 22.359919 25.960276 20.763353 26.884686 19 27.187L 19 30.187C 18.926334 31.197878 19.340574 32.183022 20.1145 32.837498C 20.350964 33.045265 20.490572 33.341869 20.5 33.656502L 20.5 35.68C 20.489204 36.148666 20.191139 36.562378 19.75 36.721001C 15.6505 38.238998 12.64 39.321999 11.8585 40.885002C 11.191245 42.225338 10.813559 43.691105 10.75 45.187L 36.25 45.187C 36.186443 43.691105 35.808754 42.225338 35.141499 40.885002C 34.360001 39.321999 31.349499 38.238998 27.25 36.721001Z"></path></g></g></g><g id="g-root-tx_analyzec_dcy4wv1anwgsp-stroke" data-item-order="0" transform="translate(99, 219)"></g><g id="g-root-tx_understa_243mn1anwf7u-stroke" data-item-order="0" transform="translate(99, 255)"></g><g id="g-root-rati_qv9ye71anmn0i-stroke" data-item-order="0" transform="translate(51.22999572753906, 309)"><g id="rati_qv9ye71anmn0i-stroke" fill="none" stroke-linecap="round" stroke-linejoin="round" stroke-miterlimit="4" stroke="#92bd39" stroke-width="2"><g><path d="M 35.5 19.75L 36.987999 19.75L 38.532997 15.6805C 38.66988 15.41625 38.942654 15.250346 39.24025 15.250346C 39.537849 15.250346 39.810623 15.41625 39.947502 15.6805L 41.487999 19.75L 44.487999 19.75C 44.798653 19.736868 45.083958 19.920633 45.200478 20.208902C 45.317001 20.497173 45.239525 20.827578 45.007 21.034L 42.400002 22.855L 43.843002 26.168501C 43.972496 26.479668 43.889191 26.838762 43.635925 27.061136C 43.382656 27.283512 43.0158 27.319662 42.723999 27.151001L 39.2365 25.189001L 35.7505 27.151001C 35.458698 27.319662 35.091843 27.283512 34.838573 27.061136C 34.585304 26.838762 34.502003 26.479668 34.6315 26.168501L 36.072998 22.855M 20.5 19.75L 19.011999 19.75L 17.467001 15.6865C 17.330122 15.42225 17.057348 15.256347 16.75975 15.256347C 16.462152 15.256347 16.189379 15.42225 16.0525 15.686501L 14.512 19.75L 11.512 19.75C 11.201348 19.736868 10.916041 19.920633 10.79952 20.208902C 10.683001 20.497173 10.760477 20.827578 10.993 21.034L 13.6 22.855L 12.157 26.168501C 12.027503 26.479668 12.110807 26.838762 12.364076 27.061136C 12.617344 27.283512 12.984198 27.319662 13.276 27.151001L 16.7635 25.189001L 20.2495 27.151001C 20.541302 27.319662 20.908155 27.283512 21.161425 27.061136C 21.414692 26.838762 21.497997 26.479668 21.3685 26.168501L 19.924 22.855M 28.708 11.1865L 30.25 15.25L 33.25 15.25C 33.560371 15.237546 33.845066 15.42155 33.961182 15.709653C 34.077301 15.997756 33.999763 16.327751 33.767502 16.534L 31.164999 18.355L 32.606499 21.668499C 32.735996 21.979668 32.652695 22.338764 32.399422 22.561136C 32.146156 22.783512 31.779301 22.819662 31.487499 22.651001L 28 20.688999L 24.515499 22.651001C 24.223698 22.819662 23.856844 22.783512 23.603575 22.561136C 23.350307 22.338764 23.267004 21.979668 23.3965 21.668499L 24.838001 18.355L 22.2355 16.540001C 21.998764 16.335115 21.917801 16.002756 22.033787 15.711948C 22.149771 15.421141 22.437241 15.235726 22.75 15.25L 25.75 15.25L 27.295 11.1865C 27.431408 10.922125 27.704006 10.756031 28.001499 10.756031C 28.298992 10.756031 28.57159 10.922125 28.707998 11.1865ZM 20.9485 33.243999L 24.185499 28.006001M 35.051498 33.243999L 31.814501 28.006001M 36.036999 42.9175C 35.725677 44.281624 34.512699 45.249393 33.113503 45.25L 22.886499 45.25C 21.48909 45.250038 20.276718 44.28524 19.963001 42.9235L 18.25 36.25L 37.75 36.25ZM 16.75 33.243999L 39.25 33.243999L 39.25 36.243999L 16.75 36.243999ZM 25.75 39.256001L 25.75 42.256001M 30.25 39.256001L 30.25 42.256001"></path></g></g></g><g id="g-root-tx_evaluate_1qd7ian1anmlfz-stroke" data-item-order="0" transform="translate(99, 315)"></g><g id="g-root-tx_assessin_146qgrj1anmlfl-stroke" data-item-order="0" transform="translate(99, 351)"></g><g id="g-root-crea_4m6an1ane5mp-stroke" data-item-order="0" transform="translate(51.22999572753906, 417)"><g id="crea_4m6an1ane5mp-stroke" fill="none" stroke-linecap="round" stroke-linejoin="round" stroke-miterlimit="4" stroke="#e0cb15" stroke-width="2"><g><path d="M 31.75 25.599998L 26.5 27.099998L 28 21.85L 38.719002 11.1235C 38.859703 10.982437 39.050758 10.903159 39.25 10.903159C 39.449242 10.903159 39.640297 10.982437 39.780998 11.1235L 42.469002 13.813C 42.761787 14.105875 42.761787 14.580626 42.469002 14.8735ZM 36.25 13.594L 40 17.344M 27.997 21.845499L 31.747 25.595501M 43 18.1L 44.5 18.1C 44.914215 18.1 45.25 18.435787 45.25 18.85L 45.25 44.349998C 45.25 44.764214 44.914215 45.099998 44.5 45.099998L 11.5 45.099998C 11.085787 45.099998 10.75 44.764214 10.75 44.349998L 10.75 18.85C 10.75 18.435787 11.085787 18.1 11.5 18.1L 28 18.1M 22 22.599998L 16 22.599998C 15.585787 22.599998 15.25 22.935787 15.25 23.349998L 15.25 39.849998C 15.25 40.264214 15.585787 40.599998 16 40.599998L 28.75 40.599998L 28.75 35.349998C 28.75 34.935787 29.085787 34.599998 29.5 34.599998L 35.5 34.599998C 35.914215 34.599998 36.25 34.935787 36.25 35.349998L 36.25 40.599998L 40 40.599998C 40.414215 40.599998 40.75 40.264214 40.75 39.849998L 40.75 23.349998M 28.75 37.595497L 36.25 37.595497M 28.75 40.595497L 36.25 40.595497M 15.25 30.095501L 22 30.095501M 34 31.595501L 40.75 31.595501M 34 28.595501L 40.75 28.595501M 15.25 34.599998L 20.5 34.599998C 20.914213 34.599998 21.25 34.935787 21.25 35.349998L 21.25 40.599998"></path></g></g></g><g id="g-root-tx_consider_mb37tr1ane5n3-stroke" data-item-order="0" transform="translate(99, 423)"></g><g id="g-root-tx_incorpor_dfg7kv1ane77k-stroke" data-item-order="0" transform="translate(99, 483)"></g></g></g></svg>