<?xml version="1.0" encoding="utf-8" standalone="yes"?>
<!DOCTYPE svg PUBLIC "-//W3C//DTD SVG 1.1//EN" "http://www.w3.org/Graphics/SVG/1.1/DTD/svg11.dtd">
<svg width="700" height="506" viewBox="0 0 700 506" style="fill:none;stroke:none;fill-rule:evenodd;clip-rule:evenodd;stroke-linecap:round;stroke-linejoin:round;stroke-miterlimit:1.5;" version="1.1" xmlns="http://www.w3.org/2000/svg" xmlns:xlink="http://www.w3.org/1999/xlink"><style class="text-font-style fontImports" data-font-family="Roboto">@import url('https://fonts.googleapis.com/css2?family=Roboto:wght@400;700&amp;display=block');</style><rect id="" x="0" y="0" width="700" height="506" style="fill: #ffffff;"></rect><g id="items" style="isolation: isolate"><g id="blend" style="mix-blend-mode: normal"><g id="g-root-tf_de7lzl1ghe328-fill" data-item-order="-351792" transform="translate(-9, -9)"><g id="tf_de7lzl1ghe328-fill" stroke="none" fill="#ffffff"><g><path d="M 10 10L 708 10L 708 514L 10 514Z"></path></g></g></g><g id="g-root-3.g-3_fr_4njvgx1ghmhvv-fill" data-item-order="-265138" transform="translate(472, 299)"><g id="3.g-3_fr_4njvgx1ghmhvv-fill" stroke="none" fill="url(#gradient-bceb57-497517668)"><g><path d="M 52.057191 91.618585C 60.665191 98.747385 68.411691 111.655185 73.987091 130.999985L 84.191691 101.569985C 85.746091 96.873185 85.881291 90.357985 84.749291 83.162285C 78.996491 86.252585 71.233191 87.780985 63.241691 89.577085C 59.060191 90.525385 55.360191 91.183585 52.048691 91.618585L 52.057191 91.618585Z"></path></g></g><g id="3.g-3_fr_4njvgx1ghmhvv-fill" stroke="none" fill="url(#gradient-bceb57-497517668)"><g><path d="M 63.3684 40.010129C 58.6631 35.603429 53.3074 32.345829 47.3941 30.929029C 3.7876 20.442129 10.3514 34.800129 10.3514 34.800129C 12.5816 41.326529 34.9423 45.655129 63.3684 40.010129Z"></path></g></g><g id="3.g-3_fr_4njvgx1ghmhvv-fill" stroke="none" fill="url(#gradient-bceb57-497517668)"><g><path d="M 92.470288 75.6541C 88.094488 84.5567 75.955288 86.7099 63.250188 89.5771C 45.586288 93.5598 36.429088 92.6115 29.324688 90.3914C 23.259288 77.3276 10.351388 34.8002 10.351388 34.8002C 12.598488 41.3823 35.280188 45.7332 64.027288 39.8874C 92.774388 34.0415 112.972388 15.9351 115.000388 10C 115.000388 10 96.846188 66.7515 92.470288 75.6541Z"></path></g></g></g><g id="g-root-2.g-2_fr_1ly0e1d1ghmgw7-fill" data-item-order="-265130" transform="translate(442.00006103515625, 206)"><g id="2.g-2_fr_1ly0e1d1ghmgw7-fill" stroke="none" fill="url(#gradient-64edab-240055791)"><g><path d="M 118.235859 124.999973C 133.542559 117.413173 143.434959 107.696773 144.818059 103.659373C 144.818059 103.659373 144.683059 104.080873 144.438559 104.846273L 145.163759 103.193573C 147.280559 96.150273 147.820359 89.606073 147.052859 83.549973C 137.000259 90.970373 118.514159 97.592173 96.747459 101.418873C 105.906159 107.774473 113.504659 115.971273 118.244259 124.999973L 118.235859 124.999973Z"></path></g></g><g id="2.g-2_fr_1ly0e1d1ghmgw7-fill" stroke="none" fill="url(#gradient-64edab-240055791)"><g><path d="M 95.204139 50.562929C 102.979739 49.265129 110.383939 47.512629 117.333939 45.449629C 103.468939 37.518929 86.171939 32.139429 68.461739 29.277729C 57.709139 27.536329 48.339539 26.493729 40.243439 26.371729C 4.949539 25.828229 10.287939 40.081129 10.287939 40.081129C 13.551639 49.609029 49.537039 58.160729 95.195739 50.574029L 95.204139 50.562929Z"></path></g></g><g id="2.g-2_fr_1ly0e1d1ghmgw7-fill" stroke="none" fill="url(#gradient-64edab-240055791)"><g><path d="M 177.000272 10C 177.000272 10 159.230272 65.0264 154.213272 75.6967C 149.186272 86.367 124.738272 96.8266 94.411372 101.829C 59.808972 107.5302 37.198972 101.7292 29.811272 97.1039C 23.309072 83.2281 10.296272 40.0698 10.296272 40.0698C 13.559972 49.5977 49.545472 58.1495 95.204072 50.5627C 140.862272 42.9759 173.753272 19.4724 177.000272 10Z"></path></g></g></g><g id="g-root-1.g-1_fr_18mjvo11ghmih7-fill" data-item-order="-265122" transform="translate(411.00006103515625, 112)"><defs><linearGradient id="gradient-bceb57-497517668" x2="0" y2="1"><stop offset="0" stop-color="#cff976"></stop><stop offset="1" stop-color="#a8dd38"></stop></linearGradient><linearGradient id="gradient-64edab-240055791" x2="0" y2="1"><stop offset="0" stop-color="#83fac1"></stop><stop offset="1" stop-color="#44e095"></stop></linearGradient><linearGradient id="gradient-4dd3ff-378786070" x2="0" y2="1"><stop offset="0" stop-color="#7fdfff"></stop><stop offset="1" stop-color="#1ac6ff"></stop></linearGradient></defs><g id="1.g-1_fr_18mjvo11ghmih7-fill" stroke="none" fill="url(#gradient-4dd3ff-378786070)"><g><path d="M 127.15598 61.702767C 144.22998 59.137067 160.03698 55.110267 174.10398 50.335967L 174.13198 50.326767C 151.39998 38.816267 120.52598 31.341767 89.78258 28.429067C 75.85908 27.113667 63.19508 26.508767 51.90748 26.980067C 4.09458 28.984867 10.25908 45.684367 10.25908 45.684367C 14.55698 58.278167 64.46028 71.117467 127.15598 61.691567L 127.15598 61.702767Z"></path></g></g><g id="1.g-1_fr_18mjvo11ghmih7-fill" stroke="none" fill="url(#gradient-4dd3ff-378786070)"><g><path d="M 176.375301 128.988872C 194.403001 119.964572 205.912001 109.947472 207.769701 104.515072C 207.769701 104.515072 207.752801 104.581972 207.710501 104.693572L 208.251001 103.399572C 210.091701 97.197472 210.226801 91.330072 208.918001 85.808372C 197.789001 94.375272 177.354801 103.745372 151.871201 110.114872C 161.877201 115.669972 170.346401 122.095172 176.375301 128.999972L 176.375301 128.988872Z"></path></g></g><g id="1.g-1_fr_18mjvo11ghmih7-fill" stroke="none" fill="url(#gradient-4dd3ff-378786070)"><g><path d="M 240.000399 10C 240.000399 10 223.086399 63.9338 217.395399 76.4941C 211.713399 89.0545 174.391399 108.174 126.328399 115.135C 74.719399 122.898 38.571199 111.911 30.878799 104.8163C 23.920999 89.9692 10.250399 45.6956 10.250399 45.6956C 14.548299 58.2894 64.451699 71.1286 127.147399 61.7028C 189.843399 52.2769 235.524399 23.1293 239.991399 10.0111L 240.000399 10Z"></path></g></g></g><g id="g-root-tx_productd_vbpudt1ghmgwf-fill" data-item-order="0" transform="translate(226, 39)"><g id="tx_productd_vbpudt1ghmgwf-fill" stroke="none" fill="#484848"><g><text style="font: 20px Roboto, sans-serif; white-space: pre;" font-size="20px" font-family="Roboto, sans-serif"><tspan x="12.89" y="34" dominant-baseline="ideographic">Product Delivery Process</tspan></text></g></g></g><g id="g-root-box_1hjfu351ghmjuq-fill" data-item-order="0" transform="translate(51.22601318359375, 117)"></g><g id="g-root-tx_securepa_mg2u4x1ghmigw-fill" data-item-order="0" transform="translate(99, 123)"><g id="tx_securepa_mg2u4x1ghmigw-fill" stroke="none" fill="#484848"><g><text style="font: bold 20px Roboto, sans-serif; white-space: pre;" font-weight="bold" font-size="20px" font-family="Roboto, sans-serif"><tspan x="12" y="34" dominant-baseline="ideographic">Secure Packing</tspan></text></g></g></g><g id="g-root-tx_theprodu_9lslt1ghmhop-fill" data-item-order="0" transform="translate(99, 159)"><g id="tx_theprodu_9lslt1ghmhop-fill" stroke="none" fill="#484848"><g><text style="font: 15px Roboto, sans-serif; white-space: pre;" font-size="15px" font-family="Roboto, sans-serif"><tspan x="12" y="27.6" dominant-baseline="ideographic">The product is packed securely to prevent </tspan><tspan x="12" y="45.6" dominant-baseline="ideographic">damage during transit.</tspan></text></g></g></g><g id="g-root-pack_zs668h1ghmjnn-fill" data-item-order="0" transform="translate(51.22601318359375, 225)"></g><g id="g-root-tx_shipping_hzn7kh1ghmjuo-fill" data-item-order="0" transform="translate(99, 231)"><g id="tx_shipping_hzn7kh1ghmjuo-fill" stroke="none" fill="#484848"><g><text style="font: bold 20px Roboto, sans-serif; white-space: pre;" font-weight="bold" font-size="20px" font-family="Roboto, sans-serif"><tspan x="12" y="34" dominant-baseline="ideographic">Shipping Method Selection</tspan></text></g></g></g><g id="g-root-tx_thelogis_4ot6a91ghmi9t-fill" data-item-order="0" transform="translate(99, 267)"><g id="tx_thelogis_4ot6a91ghmi9t-fill" stroke="none" fill="#484848"><g><text style="font: 15px Roboto, sans-serif; white-space: pre;" font-size="15px" font-family="Roboto, sans-serif"><tspan x="12" y="27.6" dominant-baseline="ideographic">The logistics team selects the most efficient </tspan><tspan x="12" y="45.6" dominant-baseline="ideographic">shipping method.</tspan></text></g></g></g><g id="g-root-time_1q6cmxd1ghgv0o-fill" data-item-order="0" transform="translate(51.22601318359375, 333)"></g><g id="g-root-tx_shipment_1ltni8h1ghfitd-fill" data-item-order="0" transform="translate(99, 339)"><g id="tx_shipment_1ltni8h1ghfitd-fill" stroke="none" fill="#484848"><g><text style="font: bold 20px Roboto, sans-serif; white-space: pre;" font-weight="bold" font-size="20px" font-family="Roboto, sans-serif"><tspan x="12" y="34" dominant-baseline="ideographic">Shipment Tracking</tspan></text></g></g></g><g id="g-root-tx_continuo_4l2exd1ghfite-fill" data-item-order="0" transform="translate(99, 375)"><g id="tx_continuo_4l2exd1ghfite-fill" stroke="none" fill="#484848"><g><text style="font: 15px Roboto, sans-serif; white-space: pre;" font-size="15px" font-family="Roboto, sans-serif"><tspan x="12" y="27.6" dominant-baseline="ideographic">Continuous monitoring of the shipment until </tspan><tspan x="12" y="45.6" dominant-baseline="ideographic">it reaches the customer.</tspan></text></g></g></g><g id="g-root-tf_de7lzl1ghe328-stroke" data-item-order="-351792" transform="translate(-9, -9)"></g><g id="g-root-3.g-3_fr_4njvgx1ghmhvv-stroke" data-item-order="-265138" transform="translate(472, 299)"><g id="3.g-3_fr_4njvgx1ghmhvv-stroke" fill="none" stroke-linecap="round" stroke-linejoin="round" stroke-miterlimit="4" stroke="#484848" stroke-width="2"><g><path d="M 52.057191 91.618585C 60.665191 98.747385 68.411691 111.655185 73.987091 130.999985L 84.191691 101.569985C 85.746091 96.873185 85.881291 90.357985 84.749291 83.162285C 78.996491 86.252585 71.233191 87.780985 63.241691 89.577085C 59.060191 90.525385 55.360191 91.183485 52.048691 91.618585L 52.057191 91.618585Z"></path></g></g><g id="3.g-3_fr_4njvgx1ghmhvv-stroke" fill="none" stroke-linecap="round" stroke-linejoin="round" stroke-miterlimit="4" stroke="#484848" stroke-width="2"><g><path d="M 63.3684 40.010129C 58.6631 35.603429 53.3074 32.345829 47.3941 30.929029C 3.7877 20.442129 10.3514 34.800129 10.3514 34.800129C 12.5816 41.326529 34.9423 45.655129 63.3684 40.010129Z"></path></g></g><g id="3.g-3_fr_4njvgx1ghmhvv-stroke" fill="none" stroke-linecap="round" stroke-linejoin="round" stroke-miterlimit="4" stroke="#484848" stroke-width="2"><g><path d="M 92.470288 75.6541C 88.094488 84.5567 75.955288 86.7099 63.250188 89.5771C 45.586288 93.5598 36.429088 92.6115 29.324688 90.3914C 23.259288 77.3276 10.351388 34.8002 10.351388 34.8002C 12.598488 41.3823 35.280188 45.7332 64.027288 39.8874C 92.774388 34.0415 112.972588 15.9351 114.999988 10C 114.999988 10 96.846188 66.7515 92.470288 75.6541Z"></path></g></g></g><g id="g-root-2.g-2_fr_1ly0e1d1ghmgw7-stroke" data-item-order="-265130" transform="translate(442.00006103515625, 206)"><g id="2.g-2_fr_1ly0e1d1ghmgw7-stroke" fill="none" stroke-linecap="round" stroke-linejoin="round" stroke-miterlimit="4" stroke="#484848" stroke-width="2"><g><path d="M 118.235859 124.999973C 133.542559 117.413173 143.434959 107.696773 144.818059 103.659373C 144.818059 103.659373 144.683059 104.080873 144.438559 104.846273L 145.163759 103.193573C 147.280559 96.150273 147.820359 89.606073 147.052859 83.549973C 137.000259 90.970373 118.514159 97.592173 96.747459 101.418873C 105.906159 107.774473 113.504759 115.971273 118.244259 124.999973L 118.235859 124.999973Z"></path></g></g><g id="2.g-2_fr_1ly0e1d1ghmgw7-stroke" fill="none" stroke-linecap="round" stroke-linejoin="round" stroke-miterlimit="4" stroke="#484848" stroke-width="2"><g><path d="M 95.204139 50.562929C 102.979739 49.265129 110.384339 47.512629 117.333439 45.449629C 103.468939 37.518929 86.171939 32.139429 68.461739 29.277729C 57.709139 27.536329 48.339539 26.493729 40.243439 26.371729C 4.949539 25.828229 10.287939 40.081129 10.287939 40.081129C 13.551639 49.608929 49.537039 58.160729 95.195739 50.574029L 95.204139 50.562929Z"></path></g></g><g id="2.g-2_fr_1ly0e1d1ghmgw7-stroke" fill="none" stroke-linecap="round" stroke-linejoin="round" stroke-miterlimit="4" stroke="#484848" stroke-width="2"><g><path d="M 176.999972 10C 176.999972 10 159.230672 65.0264 154.212772 75.6967C 149.186472 86.367 124.737972 96.8266 94.411372 101.829C 59.808972 107.5302 37.198972 101.7292 29.811272 97.1039C 23.309072 83.2281 10.296272 40.0698 10.296272 40.0698C 13.559972 49.5977 49.545472 58.1495 95.204072 50.5627C 140.862672 42.9759 173.753072 19.4724 176.999972 10Z"></path></g></g></g><g id="g-root-1.g-1_fr_18mjvo11ghmih7-stroke" data-item-order="-265122" transform="translate(411.00006103515625, 112)"><g id="1.g-1_fr_18mjvo11ghmih7-stroke" fill="none" stroke-linecap="round" stroke-linejoin="round" stroke-miterlimit="4" stroke="#484848" stroke-width="2"><g><path d="M 127.15608 61.702767C 144.22968 59.137067 160.03658 55.110267 174.10408 50.335967L 174.13168 50.326767C 151.39968 38.816267 120.52608 31.341767 89.78258 28.429067C 75.85908 27.113667 63.19508 26.508767 51.90748 26.980067C 4.09458 28.984867 10.25908 45.684367 10.25908 45.684367C 14.55698 58.278167 64.46028 71.117467 127.15608 61.691567L 127.15608 61.702767Z"></path></g></g><g id="1.g-1_fr_18mjvo11ghmih7-stroke" fill="none" stroke-linecap="round" stroke-linejoin="round" stroke-miterlimit="4" stroke="#484848" stroke-width="2"><g><path d="M 176.375301 128.988872C 194.403001 119.964572 205.912001 109.947472 207.769701 104.515072C 207.769701 104.515072 207.752801 104.581972 207.710501 104.693572L 208.251001 103.399572C 210.091701 97.197472 210.226801 91.330072 208.918001 85.808372C 197.789001 94.375272 177.354801 103.745372 151.871201 110.114872C 161.877201 115.669972 170.346401 122.095172 176.375301 128.999972L 176.375301 128.988872Z"></path></g></g><g id="1.g-1_fr_18mjvo11ghmih7-stroke" fill="none" stroke-linecap="round" stroke-linejoin="round" stroke-miterlimit="4" stroke="#484848" stroke-width="2"><g><path d="M 239.999899 10C 239.999899 10 223.086799 63.9337 217.395599 76.4941C 211.712899 89.0545 174.390999 108.174 126.328399 115.1346C 74.719399 122.8984 38.571199 111.9108 30.878799 104.8163C 23.920999 89.9692 10.250399 45.6956 10.250399 45.6956C 14.548299 58.2894 64.451699 71.1286 127.147499 61.7028C 189.843299 52.2769 235.524699 23.1293 239.991499 10.0111L 239.999899 10Z"></path></g></g></g><g id="g-root-tx_productd_vbpudt1ghmgwf-stroke" data-item-order="0" transform="translate(226, 39)"></g><g id="g-root-box_1hjfu351ghmjuq-stroke" data-item-order="0" transform="translate(51.22601318359375, 117)"><g id="box_1hjfu351ghmjuq-stroke" fill="none" stroke-linecap="round" stroke-linejoin="round" stroke-miterlimit="4" stroke="#484848" stroke-width="2"><g><path d="M 38.199997 11.3785C 37.918121 10.983624 37.462662 10.749468 36.977501 10.75L 19.022499 10.75C 18.537338 10.749468 18.081879 10.983624 17.799999 11.3785L 11.029 20.8585C 10.847498 21.11285 10.749958 21.417532 10.75 21.73L 10.75 43.75C 10.75 44.578426 11.421573 45.25 12.25 45.25L 43.75 45.25C 44.578426 45.25 45.25 44.578426 45.25 43.75L 45.25 21.73C 45.250042 21.417532 45.152504 21.11285 44.971001 20.8585ZM 28 10.75L 28 21.25M 10.8295 21.25L 45.170502 21.25M 28 34L 28 30.25M 35.313999 38.531502L 29.314001 26.5315C 29.051201 26.04945 28.546034 25.749491 27.997 25.749491C 27.447968 25.749491 26.942801 26.04945 26.68 26.5315L 20.68 38.531502C 20.426111 38.996773 20.436621 39.561493 20.707645 40.016998C 20.978668 40.472504 21.469965 40.75116 22 40.75L 34 40.75C 34.528965 40.749043 35.018322 40.469543 35.287888 40.01442C 35.557453 39.559296 35.567375 38.995834 35.313999 38.531502ZM 28 36.625C 28.207108 36.625 28.375 36.792892 28.375 37C 28.375 37.207108 28.207108 37.375 28 37.375C 27.792892 37.375 27.625 37.207108 27.625 37C 27.625 36.792892 27.792892 36.625 28 36.625"></path></g></g></g><g id="g-root-tx_securepa_mg2u4x1ghmigw-stroke" data-item-order="0" transform="translate(99, 123)"></g><g id="g-root-tx_theprodu_9lslt1ghmhop-stroke" data-item-order="0" transform="translate(99, 159)"></g><g id="g-root-pack_zs668h1ghmjnn-stroke" data-item-order="0" transform="translate(51.22601318359375, 225)"><g id="pack_zs668h1ghmjnn-stroke" fill="none" stroke-linecap="round" stroke-linejoin="round" stroke-miterlimit="4" stroke="#484848" stroke-width="2"><g><path d="M 25 27.25L 31 27.25M 25 24.25L 31 24.25M 17.5 17.5L 17.5 29.5C 17.5 29.914213 17.835787 30.25 18.25 30.25L 37.75 30.25C 38.164215 30.25 38.5 29.914213 38.5 29.5L 38.5 17.5M 38.5 17.5L 17.5 17.5C 17.5 17.5 17.5 10.75 28 10.75C 37.75 10.75 38.5 17.5 38.5 17.5ZM 11.5 36.25L 20.5 36.25C 20.5 36.25 21.25 36.25 21.25 37L 21.25 44.5C 21.25 44.5 21.25 45.25 20.5 45.25L 11.5 45.25C 11.5 45.25 10.75 45.25 10.75 44.5L 10.75 37C 10.75 37 10.75 36.25 11.5 36.25M 16 36.25L 16 38.5M 35.5 36.25L 44.5 36.25C 44.5 36.25 45.25 36.25 45.25 37L 45.25 44.5C 45.25 44.5 45.25 45.25 44.5 45.25L 35.5 45.25C 35.5 45.25 34.75 45.25 34.75 44.5L 34.75 37C 34.75 37 34.75 36.25 35.5 36.25M 40 36.25L 40 38.5M 22 21.25L 34 21.25L 34 30.25L 22 30.25ZM 28 40.75L 28 33.25M 24.25 40.75L 31.75 40.75"></path></g></g></g><g id="g-root-tx_shipping_hzn7kh1ghmjuo-stroke" data-item-order="0" transform="translate(99, 231)"></g><g id="g-root-tx_thelogis_4ot6a91ghmi9t-stroke" data-item-order="0" transform="translate(99, 267)"></g><g id="g-root-time_1q6cmxd1ghgv0o-stroke" data-item-order="0" transform="translate(51.22601318359375, 333)"><g id="time_1q6cmxd1ghgv0o-stroke" fill="none" stroke-linecap="round" stroke-linejoin="round" stroke-miterlimit="4" stroke="#484848" stroke-width="2"><g><path d="M 30.571428 18.228571C 30.571428 22.205023 33.794979 25.428572 37.771427 25.428572C 41.747879 25.428572 44.971428 22.205023 44.971428 18.228571C 44.971428 14.252121 41.747879 11.028571 37.771427 11.028571C 33.794979 11.028571 30.571428 14.252121 30.571428 18.228571M 37.771427 18.228571L 39.571426 16.428572M 11.285714 44.714287L 38.285713 44.714287C 41.885712 44.714287 44.714287 41.885712 44.714287 38.285713C 44.714287 34.685715 41.885712 31.857143 38.285713 31.857143L 11.285714 31.857143M 11.542857 38.285713C 11.542857 38.569748 11.77311 38.799999 12.057143 38.799999C 12.341175 38.799999 12.571428 38.569748 12.571428 38.285713C 12.571428 38.001682 12.341175 37.771427 12.057143 37.771427C 11.77311 37.771427 11.542857 38.001682 11.542857 38.285713M 24.4 38.285713C 24.4 38.569748 24.630255 38.799999 24.914286 38.799999C 25.198318 38.799999 25.428572 38.569748 25.428572 38.285713C 25.428572 38.001682 25.198318 37.771427 24.914286 37.771427C 24.630255 37.771427 24.4 38.001682 24.4 38.285713M 37.257145 38.285713C 37.257145 38.569748 37.487396 38.799999 37.771427 38.799999C 38.055458 38.799999 38.285713 38.569748 38.285713 38.285713C 38.285713 38.001682 38.055458 37.771427 37.771427 37.771427C 37.487396 37.771427 37.257145 38.001682 37.257145 38.285713"></path></g></g></g><g id="g-root-tx_shipment_1ltni8h1ghfitd-stroke" data-item-order="0" transform="translate(99, 339)"></g><g id="g-root-tx_continuo_4l2exd1ghfite-stroke" data-item-order="0" transform="translate(99, 375)"></g></g></g></svg>