<?xml version="1.0" encoding="utf-8" standalone="yes"?>
<!DOCTYPE svg PUBLIC "-//W3C//DTD SVG 1.1//EN" "http://www.w3.org/Graphics/SVG/1.1/DTD/svg11.dtd">
<svg width="698" height="506" viewBox="0 0 698 506" style="fill:none;stroke:none;fill-rule:evenodd;clip-rule:evenodd;stroke-linecap:round;stroke-linejoin:round;stroke-miterlimit:1.5;" version="1.1" xmlns="http://www.w3.org/2000/svg" xmlns:xlink="http://www.w3.org/1999/xlink"><style class="text-font-style fontImports" data-font-family="Roboto">@import url('https://fonts.googleapis.com/css2?family=Roboto:wght@400;700&amp;display=block');</style><rect id="" x="0" y="0" width="698" height="506" style="fill: #ffffff;"></rect><g id="items" style="isolation: isolate"><g id="blend" style="mix-blend-mode: normal"><g id="g-root-tf_mg2xdb19tp7gs-fill" data-item-order="-350784" transform="translate(-9, -9)"><g id="tf_mg2xdb19tp7gs-fill" stroke="none" fill="#ffffff"><g><path d="M 10 10L 706 10L 706 514L 10 514Z"></path></g></g></g><g id="g-root-3.cu_sy_1d15krz19jftop-fill" data-item-order="-84666" transform="translate(119.239990234375, 314.6700134277344)"><g id="3.cu_sy_1d15krz19jftop-fill" stroke="none" fill="#92bd39"><g><path d="M 10 10.00711C 10.052002 10.178497 10.103005 10.350006 10.155007 10.521606C 14.041405 17.233215 35.711998 22.345489 61.766106 22.345489C 87.964501 22.345489 109.694207 17.154205 113.404808 10.388L 113.523003 10C 106.678795 32.765808 101.569603 57.014587 97.984795 82.333709C 97.984795 88.96109 81.766701 94.333709 61.760598 94.333709C 41.754601 94.333709 25.536492 88.96109 25.536492 82.333709C 21.978997 57.207885 16.920403 33.135986 10.155007 10.521606C 10.153 10.519012 10.152001 10.516296 10.150002 10.51361L 10 10.00711Z"></path></g></g></g><g id="g-root-3.line_sy_zqbjhr19jfs3u-fill" data-item-order="-84661" transform="translate(214, 350.9999694824219)"></g><g id="g-root-2.cu_sy_mev14f19jftor-fill" data-item-order="-84658" transform="translate(87.55999755859375, 240.89999389648438)"><g id="2.cu_sy_mev14f19jftor-fill" stroke="none" fill="#3cc583"><g><path d="M 41.675995 83.777405C 33.630005 57.011292 23.184997 32.295197 10 10.300003L 10.263 10.7305C 16.772003 18.336899 51.565002 24.102906 93.441604 24.102906C 135.460602 24.102906 170.343002 18.262299 176.681595 10.617905C 176.804901 10.411698 176.928299 10.205704 177.052002 10L 176.748306 10.536103C 176.726394 10.563401 176.704208 10.590699 176.681595 10.617905C 163.587799 32.531296 153.205795 57.135804 145.198608 83.770295L 145.080307 84.157502C 141.369705 90.923706 119.639999 96.114991 93.441604 96.114991C 67.376999 96.114991 45.699997 90.998719 41.826004 84.283204L 41.675995 83.777405Z"></path></g></g></g><g id="g-root-2.line_sy_hz1izz19jfuh0-fill" data-item-order="-84653" transform="translate(236, 278.9999084472656)"></g><g id="g-root-1.cu_sy_1hiui5r19jfrwt-fill" data-item-order="-84650" transform="translate(15, 147)"><g id="1.cu_sy_1hiui5r19jfrwt-fill" stroke="none" fill="#1eabda"><g><path d="M 14.053986 32.094498C 11.402008 30.779099 10 29.408508 10 28C 10 18.058899 79.843994 10 166 10C 252.156403 10 322 18.058899 322 28C 322 29.263702 320.871399 30.496994 318.724091 31.687195L 317.889404 32.131104C 289.7164 50.149796 267.229004 74.601196 249.615997 103.895203L 249.312302 104.432495C 243.155396 112.117004 208.174011 117.998993 166.005997 117.998993C 124.128998 117.998993 89.335999 112.233002 82.826996 104.626892L 82.565002 104.19519C 64.954987 74.817993 42.457001 50.294495 14.255005 32.223099L 14.053986 32.094498Z"></path></g></g></g><g id="g-root-1.line_sy_147dzsf19jfthq-fill" data-item-order="-84645" transform="translate(280, 206.99996948242188)"></g><g id="g-root-tx_productd_qp17jj19tp89b-fill" data-item-order="0" transform="translate(165, 39)"><g id="tx_productd_qp17jj19tp89b-fill" stroke="none" fill="#484848"><g><text style="font: bold 20px Roboto, sans-serif; white-space: pre;" font-weight="bold" font-size="20px" font-family="Roboto, sans-serif"><tspan x="12.88" y="34" dominant-baseline="ideographic">Product Development Decision Funnel</tspan></text></g></g></g><g id="g-root-tx_marketre_1um5shb19tp9u5-fill" data-item-order="0" transform="translate(51, 99)"><g id="tx_marketre_1um5shb19tp9u5-fill" stroke="none" fill="#484848"><g><text style="font: 20px Roboto, sans-serif; white-space: pre;" font-size="20px" font-family="Roboto, sans-serif"><tspan x="17.14" y="34" dominant-baseline="ideographic">Market Research Insights</tspan></text></g></g></g><g id="g-root-wome_1lsdy0f19tgrut-fill" data-item-order="0" transform="translate(147.224365234375, 195.111328125)"></g><g id="g-root-tx_identify_1cu9awf19tp6ve-fill" data-item-order="0" transform="translate(375, 195)"><g id="tx_identify_1cu9awf19tp6ve-fill" stroke="none" fill="#32444a"><g><text style="font: 20px Roboto, sans-serif; white-space: pre;" font-size="20px" font-family="Roboto, sans-serif"><tspan x="12" y="34" dominant-baseline="ideographic">Identify Consumer Preferences</tspan></text></g></g></g><g id="g-root-men_94ngxb19jmtxk-fill" data-item-order="0" transform="translate(147.22000122070312, 267.1099548339844)"></g><g id="g-root-tx_analyzec_mg2xdb19tntan-fill" data-item-order="0" transform="translate(375.1099853515625, 266.9999694824219)"><g id="tx_analyzec_mg2xdb19tntan-fill" stroke="none" fill="#374840"><g><text style="font: 20px Roboto, sans-serif; white-space: pre;" font-size="20px" font-family="Roboto, sans-serif"><tspan x="12" y="34" dominant-baseline="ideographic">Analyze Competitor Offerings</tspan></text></g></g></g><g id="g-root-tx_assesste_1qd7ib319tnuvh-fill" data-item-order="0" transform="translate(375.1099853515625, 326.9999694824219)"><g id="tx_assesste_1qd7ib319tnuvh-fill" stroke="none" fill="#424736"><g><text style="font: 20px Roboto, sans-serif; white-space: pre;" font-size="20px" font-family="Roboto, sans-serif"><tspan x="12" y="34" dominant-baseline="ideographic">Assess Technological </tspan><tspan x="12" y="58" dominant-baseline="ideographic">Advancements</tspan></text></g></g></g><g id="g-root-helm_qwjyi719jfrwv-fill" data-item-order="0" transform="translate(147.22000122070312, 339.1099548339844)"></g><g id="g-root-tx_determin_18kojn319tnv2h-fill" data-item-order="0" transform="translate(57, 422.9999694824219)"><g id="tx_determin_18kojn319tnv2h-fill" stroke="none" fill="#484848"><g><text style="font: 20px Roboto, sans-serif; white-space: pre;" font-size="20px" font-family="Roboto, sans-serif"><tspan x="14.84" y="34" dominant-baseline="ideographic">Determine Product Need</tspan></text></g></g></g><g id="g-root-tf_mg2xdb19tp7gs-stroke" data-item-order="-350784" transform="translate(-9, -9)"></g><g id="g-root-3.cu_sy_1d15krz19jftop-stroke" data-item-order="-84666" transform="translate(119.239990234375, 314.6700134277344)"><g id="3.cu_sy_1d15krz19jftop-stroke" fill="none" stroke-linecap="round" stroke-linejoin="round" stroke-miterlimit="4" stroke="#ffffff" stroke-width="2"><g><path d="M 10.000405 10.00711C 16.843506 32.770813 21.952004 57.017212 25.536492 82.333709C 25.536492 88.96109 41.754601 94.333709 61.760598 94.333709C 81.766701 94.333709 97.984795 88.96109 97.984795 82.333709C 101.569603 57.014587 106.678795 32.765808 113.523003 10L 113.404808 10.388C 109.694207 17.154113 87.964501 22.345489 61.766106 22.345489C 35.701592 22.345489 14.024201 17.229095 10.150101 10.51361L 10.000405 10.00711Z"></path></g></g></g><g id="g-root-3.line_sy_zqbjhr19jfs3u-stroke" data-item-order="-84661" transform="translate(214, 350.9999694824219)"><g id="3.line_sy_zqbjhr19jfs3u-stroke" fill="none" stroke-linecap="round" stroke-linejoin="round" stroke-miterlimit="4" stroke="#484848" stroke-width="2"><g><path d="M 147 10L 12 10"></path><path d="M 18 3.5L 11.5 10L 18 16.5" stroke-dasharray="none"></path></g></g></g><g id="g-root-2.cu_sy_mev14f19jftor-stroke" data-item-order="-84658" transform="translate(87.55999755859375, 240.89999389648438)"><g id="2.cu_sy_mev14f19jftor-stroke" fill="none" stroke-linecap="round" stroke-linejoin="round" stroke-miterlimit="4" stroke="#ffffff" stroke-width="2"><g><path d="M 10.000503 10.300003C 23.185302 32.295197 33.629699 57.011292 41.675995 83.777405L 41.825607 84.283204C 45.699707 90.998719 67.377105 96.114991 93.441604 96.114991C 119.639999 96.114991 141.369705 90.923706 145.080307 84.157502L 145.198608 83.770295C 153.281204 56.885193 163.783401 32.068497 177.052002 10L 176.748306 10.536103C 170.5914 18.220597 135.610199 24.102906 93.441604 24.102906C 51.564903 24.102906 16.772003 18.336899 10.263107 10.7305L 10.000503 10.300003Z"></path></g></g></g><g id="g-root-2.line_sy_hz1izz19jfuh0-stroke" data-item-order="-84653" transform="translate(236, 278.9999084472656)"><g id="2.line_sy_hz1izz19jfuh0-stroke" fill="none" stroke-linecap="round" stroke-linejoin="round" stroke-miterlimit="4" stroke="#484848" stroke-width="2"><g><path d="M 125 10.000061L 12 10.000061"></path><path d="M 18 3.500061L 11.5 10.000061L 18 16.500061" stroke-dasharray="none"></path></g></g></g><g id="g-root-1.cu_sy_1hiui5r19jfrwt-stroke" data-item-order="-84650" transform="translate(15, 147)"><g id="1.cu_sy_1hiui5r19jfrwt-stroke" fill="none" stroke-linecap="round" stroke-linejoin="round" stroke-miterlimit="4" stroke="#ffffff" stroke-width="2"><g><path d="M 166 10C 79.843582 10 10 18.058868 10 28C 10 37.941132 79.843582 46 166 46C 252.156418 46 322 37.941132 322 28C 322 18.058868 252.156418 10 166 10M 11.027405 30.074219C 36.768677 45.467316 63.648376 71.154724 82.647293 104.20343C 85.901688 109.864624 113.652786 118.000519 165.989792 118.000519C 215.060791 118.000519 245.794098 110.939911 250.128891 103.552124C 270.4487 68.921112 297.323181 45.323914 320.95459 30.09642"></path></g></g></g><g id="g-root-1.line_sy_147dzsf19jfthq-stroke" data-item-order="-84645" transform="translate(280, 206.99996948242188)"><g id="1.line_sy_147dzsf19jfthq-stroke" fill="none" stroke-linecap="round" stroke-linejoin="round" stroke-miterlimit="4" stroke="#484848" stroke-width="2"><g><path d="M 81 10L 12 10"></path><path d="M 18 3.5L 11.5 10L 18 16.5" stroke-dasharray="none"></path></g></g></g><g id="g-root-tx_productd_qp17jj19tp89b-stroke" data-item-order="0" transform="translate(165, 39)"></g><g id="g-root-tx_marketre_1um5shb19tp9u5-stroke" data-item-order="0" transform="translate(51, 99)"></g><g id="g-root-wome_1lsdy0f19tgrut-stroke" data-item-order="0" transform="translate(147.224365234375, 195.111328125)"><g id="wome_1lsdy0f19tgrut-stroke" fill="none" stroke-linecap="round" stroke-linejoin="round" stroke-miterlimit="4" stroke="#ffffff" stroke-width="2"><g><path d="M 35 19.976C 35 24.978596 39.055405 29.033998 44.057999 29.033998C 49.060593 29.033998 53.115997 24.978596 53.115997 19.976C 53.115997 14.973405 49.060593 10.918 44.057999 10.918C 39.055405 10.918 35 14.973405 35 19.976ZM 57 32.916L 50.504002 26.422001M 45.082001 42.877998C 47.925785 43.196213 50.783024 42.408504 53.062 40.678001C 51.804001 39.422001 50.939999 38.632 50.608002 33.751999M 48 56.916L 57 56.916C 56.915257 54.921474 56.411674 52.967117 55.521999 51.18C 54.48 49.096001 51.466 47.652 46 45.627998C 45.411812 45.416504 45.014393 44.864887 45 44.239998L 45 41.542C 45.013321 41.122238 45.200169 40.726814 45.515999 40.450001C 46.547157 39.576958 47.098705 38.263496 46.999996 36.916L 47 35.916M 31 24.362C 30.027704 24.065155 29.016602 23.914839 28.000002 23.916C 23.788 23.916 18.883999 26.474001 18.4 33.743999C 18.068001 38.624001 17.200001 39.414001 15.946 40.669998C 18.239162 42.409142 21.114595 43.197128 23.973999 42.869999M 32.082001 42.877998C 34.925785 43.196213 37.783024 42.408504 40.061996 40.678001C 38.804001 39.422001 37.940002 38.632 37.608002 33.751999C 37.567604 33.137222 37.490128 32.52544 37.375999 31.92M 33 45.627998C 32.411812 45.416504 32.014393 44.864887 31.999998 44.239998L 32 41.542C 32.013321 41.122238 32.200169 40.726814 32.515999 40.450001C 33.547157 39.576958 34.098705 38.263496 34 36.916L 34 32.916C 31.648861 32.512917 29.520109 31.280367 28 29.441999C 26.479891 31.280367 24.351139 32.512917 22 32.916L 22 36.916C 21.901779 38.26384 22.454098 39.577362 23.486 40.449997C 23.801285 40.72702 23.987431 41.12249 24 41.542L 24 44.240002C 23.985607 44.864887 23.588186 45.416504 23 45.627998C 17.534 47.652 13.52 49.096001 12.478 51.18C 11.588326 52.967117 11.084745 54.921474 11 56.916L 45 56.916C 44.915257 54.921474 44.411674 52.967117 43.521999 51.18C 42.48 49.096001 38.466 47.652 33 45.627998Z"></path></g></g></g><g id="g-root-tx_identify_1cu9awf19tp6ve-stroke" data-item-order="0" transform="translate(375, 195)"></g><g id="g-root-men_94ngxb19jmtxk-stroke" data-item-order="0" transform="translate(147.22000122070312, 267.1099548339844)"><g id="men_94ngxb19jmtxk-stroke" fill="none" stroke-linecap="round" stroke-linejoin="round" stroke-miterlimit="4" stroke="#ffffff" stroke-width="2"><g><path d="M 35 19.976C 35 24.978596 39.055405 29.033998 44.057999 29.033998C 49.060593 29.033998 53.115997 24.978596 53.115997 19.976C 53.115997 14.973405 49.060593 10.918 44.057999 10.918C 39.055405 10.918 35 14.973405 35 19.976ZM 57 32.916L 50.504002 26.422001M 11 56.916C 11.846 52.344002 11.706 49.757999 14.218 48.68L 23 44.916L 23 40.916C 23 40.916 21.110001 40.218002 21.110001 35.916C 19.147999 35.916 19.147999 31.916 21.110001 31.916C 21.110001 31.34 17.822001 27.058001 21.954 27.916C 22.936001 23.916 32.615997 23.916 33.598 27.916C 33.857594 29.313475 33.540127 30.756506 32.718002 31.916C 34.620003 31.916 34.099998 35.916 32.732002 35.916C 32.732002 40.218002 31 40.916 31 40.916L 31 44.916L 39.781998 48.68C 42.287998 49.754002 42.150002 52.318001 43 56.916ZM 49.731998 35.916C 49.731998 40.216 48 40.916 48 40.916L 48 44.916L 54.624001 47.860001C 56.068317 48.501656 56.999409 49.933567 57 51.514L 57 56.914001L 50 56.914001"></path></g></g></g><g id="g-root-tx_analyzec_mg2xdb19tntan-stroke" data-item-order="0" transform="translate(375.1099853515625, 266.9999694824219)"></g><g id="g-root-tx_assesste_1qd7ib319tnuvh-stroke" data-item-order="0" transform="translate(375.1099853515625, 326.9999694824219)"></g><g id="g-root-helm_qwjyi719jfrwv-stroke" data-item-order="0" transform="translate(147.22000122070312, 339.1099548339844)"><g id="helm_qwjyi719jfrwv-stroke" fill="none" stroke-linecap="round" stroke-linejoin="round" stroke-miterlimit="4" stroke="#ffffff" stroke-width="2"><g><path d="M 31.5 35.799999C 37.299999 37.200001 41.5 42.400002 41.5 48.400002L 41.5 50.400002M 25.5 50.400002L 25.5 34.400002C 25.5 33.200001 26.299999 32.400002 27.5 32.400002L 29.5 32.400002C 30.700001 32.400002 31.5 33.200001 31.5 34.400002L 31.5 50.400002M 25.5 35.799999C 19.700001 37.200001 15.5 42.400002 15.5 48.400002L 15.5 50.400002M 45.5 54.400002C 45.5 55.599998 44.700001 56.400002 43.5 56.400002L 13.5 56.400002C 12.3 56.400002 11.5 55.599998 11.5 54.400002L 11.5 52.400002C 11.5 51.200001 12.3 50.400002 13.5 50.400002L 43.5 50.400002C 44.700001 50.400002 45.5 51.200001 45.5 52.400002L 45.5 54.400002ZM 41.099998 29.6L 41.099998 33.599998M 49.099998 29.6L 49.099998 33.599998M 41.099998 11.600006L 41.099998 15.6M 49.099998 11.600006L 49.099998 15.6M 34.0998 18.799999L 38.099998 18.799999M 34.099998 26.799999L 38.099998 26.799999M 56.100201 26.799999L 52.100201 26.799999M 56.100201 18.799999L 52.099998 18.799999M 52.099998 27.6C 52.099998 28.799999 51.299999 29.6 50.099998 29.6L 40.099998 29.6C 38.900002 29.6 38.099998 28.799999 38.099998 27.6L 38.099998 17.6C 38.099998 16.4 38.900002 15.6 40.099998 15.6L 50.099998 15.6C 51.299999 15.6 52.099998 16.4 52.099998 17.6L 52.099998 27.6ZM 46.099998 24.6L 47.099998 24.6"></path></g></g></g><g id="g-root-tx_determin_18kojn319tnv2h-stroke" data-item-order="0" transform="translate(57, 422.9999694824219)"></g></g></g></svg>