<?xml version="1.0" encoding="utf-8" standalone="yes"?>
<!DOCTYPE svg PUBLIC "-//W3C//DTD SVG 1.1//EN" "http://www.w3.org/Graphics/SVG/1.1/DTD/svg11.dtd">
<svg width="778" height="626" viewBox="0 0 778 626" style="fill:none;stroke:none;fill-rule:evenodd;clip-rule:evenodd;stroke-linecap:round;stroke-linejoin:round;stroke-miterlimit:1.5;" version="1.1" xmlns="http://www.w3.org/2000/svg" xmlns:xlink="http://www.w3.org/1999/xlink"><style class="text-font-style fontImports" data-font-family="Roboto">@import url('https://fonts.googleapis.com/css2?family=Roboto:wght@400;700&amp;display=block');</style><rect id="" x="0" y="0" width="778" height="626" style="fill: #ffffff;"></rect><g id="items" style="isolation: isolate"><g id="blend" style="mix-blend-mode: normal"><g id="g-root-tf_1d1rsf31cblma4-fill" data-item-order="-484224" transform="translate(-9, -9)"><g id="tf_1d1rsf31cblma4-fill" stroke="none" fill="#ffffff"><g><path d="M 10 10L 786 10L 786 634L 10 634Z"></path></g></g></g><g id="g-root--1.line_fr_18itndr1cbhdzi-fill" data-item-order="-384343" transform="translate(146.5, 231)"></g><g id="g-root--1.line_1_fr_znt47z1cbhce8-fill" data-item-order="-384339" transform="translate(350.5, 231)"></g><g id="g-root--1.line_2_fr_mcclun1cbhdz6-fill" data-item-order="-384335" transform="translate(554.5, 231)"></g><g id="g-root-1.g-1_1_fr_dhc2ov1cbhbm4-fill" data-item-order="-384332" transform="translate(85.00003051757812, 279)"><g id="1.g-1_1_fr_dhc2ov1cbhbm4-fill" stroke="none" fill="#4e88e7"><g><path d="M 149.501969 13.1012C 145.370969 8.9678 138.668969 8.966 134.535969 13.0974C 130.403969 17.2272 130.403969 23.923 134.535969 28.0529L 153.913969 47.4222L 99.582669 47.4222C 93.737969 47.4222 88.999969 52.1581 88.999969 58.0001C 88.999969 63.842 93.737969 68.5779 99.582669 68.5779L 153.913969 68.5779L 134.535969 87.9471C 130.403969 92.077 130.403969 98.7728 134.535969 102.9026C 138.668969 107.034 145.370969 107.0322 149.501969 102.8988L 186.903969 65.4758C 191.031969 61.3458 191.031969 54.6542 186.903969 50.5242L 149.501969 13.1012ZM 42.906869 51.2384L 49.668869 58.0003L 42.906869 64.7623C 41.974369 65.6948 41.974369 67.2067 42.906869 68.1392C 43.839669 69.072 45.352269 69.0716 46.284669 68.1383L 54.725969 59.6884C 55.657569 58.7558 55.657569 57.2449 54.725969 56.3123L 46.284669 47.8623C 45.352269 46.929 43.839669 46.9286 42.906869 47.8615C 41.974369 48.794 41.974369 50.3059 42.906869 51.2384ZM 26.803069 51.2384L 33.565069 58.0003L 26.803069 64.7623C 25.870569 65.6948 25.870569 67.2067 26.803069 68.1392C 27.735969 69.072 29.248469 69.0716 30.180869 68.1383L 38.622269 59.6884C 39.553869 58.7558 39.553869 57.2449 38.622269 56.3123L 30.180869 47.8623C 29.248469 46.929 27.735969 46.9286 26.803069 47.8615C 25.870569 48.794 25.870569 50.3059 26.803069 51.2384ZM 10.699369 51.2381L 17.461269 58.0001L 10.699369 64.7621C 9.766869 65.6946 9.766869 67.2064 10.699369 68.1389C 11.632169 69.0718 13.144769 69.0714 14.077069 68.1381L 22.518469 59.6881C 23.450069 58.7556 23.450069 57.2446 22.518469 56.3121L 14.077069 47.8621C 13.144769 46.9288 11.632169 46.9284 10.699369 47.8612C 9.766869 48.7937 9.766869 50.3056 10.699369 51.2381ZM 71.949869 68.5775C 66.107869 68.5775 61.372069 63.8417 61.372069 57.9997C 61.372069 52.1577 66.107869 47.4219 71.949869 47.4219C 77.791869 47.4219 82.527669 52.1577 82.527669 57.9997C 82.527669 63.8417 77.791869 68.5775 71.949869 68.5775Z"></path></g></g></g><g id="g-root-2.g-2_fr_5vkbj1cbhd72-fill" data-item-order="-384328" transform="translate(289.0000305175781, 279)"><g id="2.g-2_fr_5vkbj1cbhd72-fill" stroke="none" fill="#3cc583"><g><path d="M 149.501969 13.1012C 145.370969 8.9678 138.668969 8.966 134.535969 13.0974C 130.403969 17.2272 130.403969 23.923 134.535969 28.0529L 153.913969 47.4222L 99.582669 47.4222C 93.737969 47.4222 88.999969 52.1581 88.999969 58.0001C 88.999969 63.842 93.737969 68.5779 99.582669 68.5779L 153.913969 68.5779L 134.535969 87.9471C 130.403969 92.077 130.403969 98.7728 134.535969 102.9026C 138.668969 107.034 145.370969 107.0322 149.501969 102.8988L 186.903969 65.4758C 191.031969 61.3458 191.031969 54.6542 186.903969 50.5242L 149.501969 13.1012ZM 42.906869 51.2384L 49.668869 58.0003L 42.906869 64.7623C 41.974369 65.6948 41.974369 67.2067 42.906869 68.1392C 43.839669 69.072 45.352269 69.0716 46.284669 68.1383L 54.725969 59.6884C 55.657569 58.7558 55.657569 57.2449 54.725969 56.3123L 46.284669 47.8623C 45.352269 46.929 43.839669 46.9286 42.906869 47.8615C 41.974369 48.794 41.974369 50.3059 42.906869 51.2384ZM 26.803069 51.2384L 33.565069 58.0003L 26.803069 64.7623C 25.870569 65.6948 25.870569 67.2067 26.803069 68.1392C 27.735969 69.072 29.248469 69.0716 30.180869 68.1383L 38.622269 59.6884C 39.553869 58.7558 39.553869 57.2449 38.622269 56.3123L 30.180869 47.8623C 29.248469 46.929 27.735969 46.9286 26.803069 47.8615C 25.870569 48.794 25.870569 50.3059 26.803069 51.2384ZM 10.699369 51.2381L 17.461269 58.0001L 10.699369 64.7621C 9.766869 65.6946 9.766869 67.2064 10.699369 68.1389C 11.632169 69.0718 13.144769 69.0714 14.077069 68.1381L 22.518469 59.6881C 23.450069 58.7556 23.450069 57.2446 22.518469 56.3121L 14.077069 47.8621C 13.144769 46.9288 11.632169 46.9284 10.699369 47.8612C 9.766869 48.7937 9.766869 50.3056 10.699369 51.2381ZM 71.949869 68.5775C 66.107869 68.5775 61.372069 63.8417 61.372069 57.9997C 61.372069 52.1577 66.107869 47.4219 71.949869 47.4219C 77.791869 47.4219 82.527669 52.1577 82.527669 57.9997C 82.527669 63.8417 77.791869 68.5775 71.949869 68.5775Z"></path></g></g></g><g id="g-root-3.g-3_1_fr_1qbcm1r1cbhekg-fill" data-item-order="-384324" transform="translate(493, 279)"><g id="3.g-3_1_fr_1qbcm1r1cbhekg-fill" stroke="none" fill="#92bd39"><g><path d="M 149.502 13.1012C 145.371 8.9678 138.669 8.966 134.536 13.0974C 130.404 17.2272 130.404 23.923 134.536 28.0529L 153.914 47.4222L 99.5827 47.4222C 93.738 47.4222 89 52.1581 89 58.0001C 89 63.842 93.738 68.5779 99.5827 68.5779L 153.914 68.5779L 134.536 87.9471C 130.404 92.077 130.404 98.7728 134.536 102.9026C 138.669 107.034 145.371 107.0322 149.502 102.8988L 186.904 65.4758C 191.032 61.3458 191.032 54.6542 186.904 50.5242L 149.502 13.1012ZM 42.9069 51.2384L 49.6689 58.0003L 42.9069 64.7623C 41.9744 65.6948 41.9744 67.2067 42.9069 68.1392C 43.8397 69.072 45.3523 69.0716 46.2847 68.1383L 54.726 59.6884C 55.6576 58.7558 55.6576 57.2449 54.726 56.3123L 46.2847 47.8623C 45.3523 46.929 43.8397 46.9286 42.9069 47.8615C 41.9744 48.794 41.9744 50.3059 42.9069 51.2384ZM 26.8031 51.2384L 33.5651 58.0003L 26.8031 64.7623C 25.8706 65.6948 25.8706 67.2067 26.8031 68.1392C 27.736 69.072 29.2485 69.0716 30.1809 68.1383L 38.6223 59.6884C 39.5539 58.7558 39.5539 57.2449 38.6223 56.3123L 30.1809 47.8623C 29.2485 46.929 27.736 46.9286 26.8031 47.8615C 25.8706 48.794 25.8706 50.3059 26.8031 51.2384ZM 10.6994 51.2381L 17.4613 58.0001L 10.6994 64.7621C 9.7669 65.6946 9.7669 67.2064 10.6994 68.1389C 11.6322 69.0718 13.1448 69.0714 14.0771 68.1381L 22.5185 59.6881C 23.4501 58.7556 23.4501 57.2446 22.5185 56.3121L 14.0771 47.8621C 13.1448 46.9288 11.6322 46.9284 10.6994 47.8612C 9.7669 48.7937 9.7669 50.3056 10.6994 51.2381ZM 71.9499 68.5775C 66.1079 68.5775 61.3721 63.8417 61.3721 57.9997C 61.3721 52.1577 66.1079 47.4219 71.9499 47.4219C 77.7919 47.4219 82.5277 52.1577 82.5277 57.9997C 82.5277 63.8417 77.7919 68.5775 71.9499 68.5775Z"></path></g></g></g><g id="g-root-tx_procurem_144vkin1cbhdsa-fill" data-item-order="0" transform="translate(211, 39)"><g id="tx_procurem_144vkin1cbhdsa-fill" stroke="none" fill="#484848"><g><text style="font: 20px Roboto, sans-serif; white-space: pre;" font-size="20px" font-family="Roboto, sans-serif"><tspan x="16.13" y="34" dominant-baseline="ideographic">Procurement Process After Planning</tspan></text></g></g></g><g id="g-root-tx_complete_me813z1cbhczn-fill" data-item-order="0" transform="translate(75, 123)"><g id="tx_complete_me813z1cbhczn-fill" stroke="none" fill="#3a4455"><g><text style="font: bold 20px Roboto, sans-serif; white-space: pre;" font-weight="bold" font-size="20px" font-family="Roboto, sans-serif"><tspan x="38.69" y="34" dominant-baseline="ideographic">Complete </tspan><tspan x="13.89" y="58" dominant-baseline="ideographic">Planning Stage</tspan></text></g></g></g><g id="g-root-tx_ordermat_1luac2n1cbk4y5-fill" data-item-order="0" transform="translate(477, 123)"><g id="tx_ordermat_1luac2n1cbk4y5-fill" stroke="none" fill="#424736"><g><text style="font: bold 20px Roboto, sans-serif; white-space: pre;" font-weight="bold" font-size="20px" font-family="Roboto, sans-serif"><tspan x="16.76" y="34" dominant-baseline="ideographic">Order Materials </tspan><tspan x="20.36" y="58" dominant-baseline="ideographic">from Suppliers</tspan></text></g></g></g><g id="g-root-moly_1lxej6n1cbhdl9-fill" data-item-order="0" transform="translate(321, 159)"></g><g id="g-root-tx_finalizi_92riqn1cbhekk-fill" data-item-order="0" transform="translate(99, 183)"><g id="tx_finalizi_92riqn1cbhekk-fill" stroke="none" fill="#3a4455"><g><text style="font: 15px Roboto, sans-serif; white-space: pre;" font-size="15px" font-family="Roboto, sans-serif"><tspan x="11.97" y="27.6" dominant-baseline="ideographic">Finalizing the </tspan><tspan x="14.31" y="45.6" dominant-baseline="ideographic">product plan</tspan></text></g></g></g><g id="g-root-tx_placingo_hwja1r1cbk6j3-fill" data-item-order="0" transform="translate(483, 183)"><g id="tx_placingo_hwja1r1cbk6j3-fill" stroke="none" fill="#424736"><g><text style="font: 15px Roboto, sans-serif; white-space: pre;" font-size="15px" font-family="Roboto, sans-serif"><tspan x="16.26" y="27.6" dominant-baseline="ideographic">Placing orders with </tspan><tspan x="49.66" y="45.6" dominant-baseline="ideographic">suppliers</tspan></text></g></g></g><g id="g-root-1_1uo1x271cbljbe-fill" data-item-order="0" transform="translate(117, 435)"></g><g id="g-root-tx_identify_zqba1r1cbfx1n-fill" data-item-order="0" transform="translate(291, 435)"><g id="tx_identify_zqba1r1cbfx1n-fill" stroke="none" fill="#374840"><g><text style="font: bold 20px Roboto, sans-serif; white-space: pre;" font-weight="bold" font-size="20px" font-family="Roboto, sans-serif"><tspan x="33.3" y="34" dominant-baseline="ideographic">Identify </tspan><tspan x="14.44" y="58" dominant-baseline="ideographic">Materials in </tspan><tspan x="45.47" y="82" dominant-baseline="ideographic">BOM</tspan></text></g></g></g><g id="g-root-mana_m9uyzj1cbhdds-fill" data-item-order="0" transform="translate(525, 435)"></g><g id="g-root-tx_listingr_4pg6fz1cbg001-fill" data-item-order="0" transform="translate(291, 519)"><g id="tx_listingr_4pg6fz1cbg001-fill" stroke="none" fill="#374840"><g><text style="font: 15px Roboto, sans-serif; white-space: pre;" font-size="15px" font-family="Roboto, sans-serif"><tspan x="16.56" y="27.6" dominant-baseline="ideographic">Listing required </tspan><tspan x="36.9" y="45.6" dominant-baseline="ideographic">materials</tspan></text></g></g></g><g id="g-root-tf_1d1rsf31cblma4-stroke" data-item-order="-484224" transform="translate(-9, -9)"></g><g id="g-root--1.line_fr_18itndr1cbhdzi-stroke" data-item-order="-384343" transform="translate(146.5, 231)"><g id="-1.line_fr_18itndr1cbhdzi-stroke" fill="none" stroke-linecap="round" stroke-linejoin="round" stroke-miterlimit="4" stroke="#484848" stroke-width="2" stroke-dasharray="5.0, 7.0"><g><path d="M 10 202L 10 10"></path></g></g></g><g id="g-root--1.line_1_fr_znt47z1cbhce8-stroke" data-item-order="-384339" transform="translate(350.5, 231)"><g id="-1.line_1_fr_znt47z1cbhce8-stroke" fill="none" stroke-linecap="round" stroke-linejoin="round" stroke-miterlimit="4" stroke="#484848" stroke-width="2" stroke-dasharray="5.0, 7.0"><g><path d="M 10 202L 10 10"></path></g></g></g><g id="g-root--1.line_2_fr_mcclun1cbhdz6-stroke" data-item-order="-384335" transform="translate(554.5, 231)"><g id="-1.line_2_fr_mcclun1cbhdz6-stroke" fill="none" stroke-linecap="round" stroke-linejoin="round" stroke-miterlimit="4" stroke="#484848" stroke-width="2" stroke-dasharray="5.0, 7.0"><g><path d="M 9.999992 202L 9.999992 10"></path></g></g></g><g id="g-root-1.g-1_1_fr_dhc2ov1cbhbm4-stroke" data-item-order="-384332" transform="translate(85.00003051757812, 279)"><g id="1.g-1_1_fr_dhc2ov1cbhbm4-stroke" fill="none" stroke-linecap="round" stroke-linejoin="round" stroke-miterlimit="4" stroke="#ffffff" stroke-width="2"><g><path d="M 149.501869 13.1012C 145.370769 8.9678 138.668969 8.9661 134.535669 13.0974C 130.403969 17.2272 130.403969 23.923 134.535669 28.0529L 153.913969 47.4222L 99.582669 47.4222C 93.737969 47.4222 88.999969 52.1581 88.999969 58.0001C 88.999969 63.842 93.737969 68.5779 99.582669 68.5779L 153.913869 68.5779L 134.535669 87.9471C 130.403969 92.077 130.403969 98.7728 134.535669 102.9026C 138.668969 107.0339 145.370769 107.0322 149.501969 102.8988L 186.904169 65.4758C 191.031869 61.3458 191.031869 54.6542 186.904169 50.5242L 149.501869 13.1012ZM 42.906869 51.2384L 49.668869 58.0003L 42.906869 64.7623C 41.974369 65.6948 41.974369 67.2067 42.906869 68.1392C 43.839669 69.072 45.352269 69.0716 46.284669 68.1383L 54.725969 59.6884C 55.657569 58.7558 55.657569 57.2449 54.725969 56.3123L 46.284669 47.8623C 45.352269 46.929 43.839669 46.9286 42.906869 47.8615C 41.974369 48.794 41.974369 50.3059 42.906869 51.2384ZM 26.803069 51.2384L 33.565069 58.0003L 26.803069 64.7623C 25.870569 65.6948 25.870569 67.2067 26.803069 68.1392C 27.735969 69.072 29.248469 69.0716 30.180869 68.1383L 38.622269 59.6884C 39.553869 58.7558 39.553869 57.2449 38.622269 56.3123L 30.180869 47.8623C 29.248469 46.929 27.735969 46.9286 26.803069 47.8615C 25.870569 48.794 25.870569 50.3059 26.803069 51.2384ZM 10.699369 51.2381L 17.461269 58.0001L 10.699369 64.7621C 9.766869 65.6946 9.766869 67.2064 10.699369 68.1389C 11.632169 69.0718 13.144769 69.0714 14.077069 68.1381L 22.518469 59.6881C 23.450069 58.7556 23.450069 57.2446 22.518469 56.3121L 14.077069 47.8621C 13.144769 46.9288 11.632169 46.9284 10.699369 47.8612C 9.766869 48.7937 9.766869 50.3056 10.699369 51.2381ZM 71.949869 68.5775C 66.107869 68.5775 61.372069 63.8417 61.372069 57.9997C 61.372069 52.1577 66.107869 47.4219 71.949869 47.4219C 77.791869 47.4219 82.527669 52.1577 82.527669 57.9997C 82.527669 63.8417 77.791869 68.5775 71.949869 68.5775Z"></path></g></g></g><g id="g-root-2.g-2_fr_5vkbj1cbhd72-stroke" data-item-order="-384328" transform="translate(289.0000305175781, 279)"><g id="2.g-2_fr_5vkbj1cbhd72-stroke" fill="none" stroke-linecap="round" stroke-linejoin="round" stroke-miterlimit="4" stroke="#ffffff" stroke-width="2"><g><path d="M 149.501869 13.1012C 145.370769 8.9678 138.668969 8.9661 134.535669 13.0974C 130.403969 17.2272 130.403969 23.923 134.535669 28.0529L 153.913969 47.4222L 99.582669 47.4222C 93.737969 47.4222 88.999969 52.1581 88.999969 58.0001C 88.999969 63.842 93.737969 68.5779 99.582669 68.5779L 153.913869 68.5779L 134.535669 87.9471C 130.403969 92.077 130.403969 98.7728 134.535669 102.9026C 138.668969 107.0339 145.370769 107.0322 149.501969 102.8988L 186.904169 65.4758C 191.031869 61.3458 191.031869 54.6542 186.904169 50.5242L 149.501869 13.1012ZM 42.906869 51.2384L 49.668869 58.0003L 42.906869 64.7623C 41.974369 65.6948 41.974369 67.2067 42.906869 68.1392C 43.839669 69.072 45.352269 69.0716 46.284669 68.1383L 54.725969 59.6884C 55.657569 58.7558 55.657569 57.2449 54.725969 56.3123L 46.284669 47.8623C 45.352269 46.929 43.839669 46.9286 42.906869 47.8615C 41.974369 48.794 41.974369 50.3059 42.906869 51.2384ZM 26.803069 51.2384L 33.565069 58.0003L 26.803069 64.7623C 25.870569 65.6948 25.870569 67.2067 26.803069 68.1392C 27.735969 69.072 29.248469 69.0716 30.180869 68.1383L 38.622269 59.6884C 39.553869 58.7558 39.553869 57.2449 38.622269 56.3123L 30.180869 47.8623C 29.248469 46.929 27.735969 46.9286 26.803069 47.8615C 25.870569 48.794 25.870569 50.3059 26.803069 51.2384ZM 10.699369 51.2381L 17.461269 58.0001L 10.699369 64.7621C 9.766869 65.6946 9.766869 67.2064 10.699369 68.1389C 11.632169 69.0718 13.144769 69.0714 14.077069 68.1381L 22.518469 59.6881C 23.450069 58.7556 23.450069 57.2446 22.518469 56.3121L 14.077069 47.8621C 13.144769 46.9288 11.632169 46.9284 10.699369 47.8612C 9.766869 48.7937 9.766869 50.3056 10.699369 51.2381ZM 71.949869 68.5775C 66.107869 68.5775 61.372069 63.8417 61.372069 57.9997C 61.372069 52.1577 66.107869 47.4219 71.949869 47.4219C 77.791869 47.4219 82.527669 52.1577 82.527669 57.9997C 82.527669 63.8417 77.791869 68.5775 71.949869 68.5775Z"></path></g></g></g><g id="g-root-3.g-3_1_fr_1qbcm1r1cbhekg-stroke" data-item-order="-384324" transform="translate(493, 279)"><g id="3.g-3_1_fr_1qbcm1r1cbhekg-stroke" fill="none" stroke-linecap="round" stroke-linejoin="round" stroke-miterlimit="4" stroke="#ffffff" stroke-width="2"><g><path d="M 149.5019 13.1012C 145.3708 8.9678 138.669 8.9661 134.5357 13.0974C 130.404 17.2272 130.404 23.923 134.5357 28.0529L 153.914 47.4222L 99.5827 47.4222C 93.738 47.4222 89 52.1581 89 58.0001C 89 63.842 93.738 68.5779 99.5827 68.5779L 153.9139 68.5779L 134.5357 87.9471C 130.404 92.077 130.404 98.7728 134.5357 102.9026C 138.669 107.0339 145.3708 107.0322 149.502 102.8988L 186.9042 65.4758C 191.0319 61.3458 191.0319 54.6542 186.9042 50.5242L 149.5019 13.1012ZM 42.9069 51.2384L 49.6689 58.0003L 42.9069 64.7623C 41.9744 65.6948 41.9744 67.2067 42.9069 68.1392C 43.8397 69.072 45.3523 69.0716 46.2847 68.1383L 54.726 59.6884C 55.6576 58.7558 55.6576 57.2449 54.726 56.3123L 46.2847 47.8623C 45.3523 46.929 43.8397 46.9286 42.9069 47.8615C 41.9744 48.794 41.9744 50.3059 42.9069 51.2384ZM 26.8031 51.2384L 33.5651 58.0003L 26.8031 64.7623C 25.8706 65.6948 25.8706 67.2067 26.8031 68.1392C 27.736 69.072 29.2485 69.0716 30.1809 68.1383L 38.6223 59.6884C 39.5539 58.7558 39.5539 57.2449 38.6223 56.3123L 30.1809 47.8623C 29.2485 46.929 27.736 46.9286 26.8031 47.8615C 25.8706 48.794 25.8706 50.3059 26.8031 51.2384ZM 10.6994 51.2381L 17.4613 58.0001L 10.6994 64.7621C 9.7669 65.6946 9.7669 67.2064 10.6994 68.1389C 11.6322 69.0718 13.1448 69.0714 14.0771 68.1381L 22.5185 59.6881C 23.4501 58.7556 23.4501 57.2446 22.5185 56.3121L 14.0771 47.8621C 13.1448 46.9288 11.6322 46.9284 10.6994 47.8612C 9.7669 48.7937 9.7669 50.3056 10.6994 51.2381ZM 71.9499 68.5775C 66.1079 68.5775 61.3721 63.8417 61.3721 57.9997C 61.3721 52.1577 66.1079 47.4219 71.9499 47.4219C 77.7919 47.4219 82.5277 52.1577 82.5277 57.9997C 82.5277 63.8417 77.7919 68.5775 71.9499 68.5775Z"></path></g></g></g><g id="g-root-tx_procurem_144vkin1cbhdsa-stroke" data-item-order="0" transform="translate(211, 39)"></g><g id="g-root-tx_complete_me813z1cbhczn-stroke" data-item-order="0" transform="translate(75, 123)"></g><g id="g-root-tx_ordermat_1luac2n1cbk4y5-stroke" data-item-order="0" transform="translate(477, 123)"></g><g id="g-root-moly_1lxej6n1cbhdl9-stroke" data-item-order="0" transform="translate(321, 159)"><g id="moly_1lxej6n1cbhdl9-stroke" fill="none" stroke-linecap="round" stroke-linejoin="round" stroke-miterlimit="4" stroke="#3cc583" stroke-width="2"><g><path d="M 13.75 11.25L 66.25 11.25C 66.25 11.25 68.75 11.25 68.75 13.75L 68.75 66.25C 68.75 66.25 68.75 68.75 66.25 68.75L 13.75 68.75C 13.75 68.75 11.25 68.75 11.25 66.25L 11.25 13.75C 11.25 13.75 11.25 11.25 13.75 11.25M 27.5 57.5L 52.5 57.5M 23.125 51.252499L 23.125 29.872499C 23.125 29.255001 23.625 28.752501 24.244999 28.752501L 24.244999 28.752501C 24.702499 28.752501 25.112499 29.0275 25.285 29.452499L 30.9175 43.317497C 31.02416 43.580074 31.279095 43.752007 31.562502 43.752502L 31.5625 43.752502C 31.845911 43.752007 32.100842 43.580074 32.2075 43.317501L 37.84 29.452499C 38.011383 29.028835 38.422985 28.751795 38.880001 28.752501L 38.880001 28.752501C 39.497498 28.752501 40 29.252501 40 29.872499L 40 51.252499M 45.650002 42.9175L 45.650002 47.0825C 45.612942 48.595291 46.398819 50.0093 47.703106 50.776592C 49.007393 51.543884 50.625114 51.543884 51.929398 50.776592C 53.233685 50.0093 54.019562 48.595291 53.982502 47.082504L 53.982502 42.9175C 54.019562 41.404716 53.233685 39.990707 51.929398 39.223412C 50.625114 38.45612 49.007393 38.45612 47.703106 39.223412C 46.398819 39.990707 45.612942 41.404716 45.650002 42.917503Z"></path></g></g></g><g id="g-root-tx_finalizi_92riqn1cbhekk-stroke" data-item-order="0" transform="translate(99, 183)"></g><g id="g-root-tx_placingo_hwja1r1cbk6j3-stroke" data-item-order="0" transform="translate(483, 183)"></g><g id="g-root-1_1uo1x271cbljbe-stroke" data-item-order="0" transform="translate(117, 435)"><g id="1_1uo1x271cbljbe-stroke" fill="none" stroke-linecap="round" stroke-linejoin="round" stroke-miterlimit="4" stroke="#4e88e7" stroke-width="2"><g><path d="M 36.25 66.25L 13.75 66.25C 12.369288 66.25 11.25 65.130707 11.25 63.75L 11.25 13.75C 11.25 12.369288 12.369288 11.25 13.75 11.25L 42.715 11.25C 43.377987 11.250141 44.013767 11.513626 44.482502 11.9825L 53.017502 20.5175C 53.486374 20.986231 53.749855 21.622013 53.75 22.285L 53.75 42.5M 41.25 11.25L 41.25 21.25C 41.25 22.630713 42.369286 23.75 43.75 23.75L 53.75 23.75M 18.75 26.25L 28.75 26.25L 28.75 36.25L 18.75 36.25ZM 18.75 43.75L 28.75 43.75L 28.75 53.75L 18.75 53.75ZM 28.75 31.25L 33.75 31.25C 35.130714 31.25 36.25 32.369286 36.25 33.75L 36.25 46.25C 36.25 47.630714 35.130714 48.75 33.75 48.75L 28.75 48.75M 45 38.75L 37.5 38.75M 50.514999 66.25L 41.764999 68.75L 44.264999 60L 62.135002 42.130001C 62.623123 41.642021 63.414375 41.642021 63.902504 42.130001L 68.385002 46.610001C 68.620102 46.844513 68.752235 47.16293 68.752235 47.494999C 68.752235 47.827068 68.620102 48.145489 68.385002 48.380001ZM 58.017502 46.247498L 64.267502 52.497501M 44.264999 60.002499L 50.514999 66.252502"></path></g></g></g><g id="g-root-tx_identify_zqba1r1cbfx1n-stroke" data-item-order="0" transform="translate(291, 435)"></g><g id="g-root-mana_m9uyzj1cbhdds-stroke" data-item-order="0" transform="translate(525, 435)"><g id="mana_m9uyzj1cbhdds-stroke" fill="none" stroke-linecap="round" stroke-linejoin="round" stroke-miterlimit="4" stroke="#92bd39" stroke-width="2"><g><path d="M 10 10M 62 66.5L 54.4725 62.045002C 53.124844 61.079224 52.445621 59.429699 52.722504 57.794998L 52.722504 53.150002L 49.900002 50.335003C 48.584248 49.018177 48.584248 46.884323 49.900002 45.567501C 50.056782 45.410439 50.22842 45.268944 50.412498 45.145L 50.412502 45.145C 51.74971 44.258568 53.525978 44.43515 54.662498 45.567501L 58.627502 49.535M 54.6175 32.379997L 63.927498 40.630001C 65.314682 42.569912 66.060326 44.895142 66.059998 47.279999L 66.059998 52.824997C 66.057739 54.417465 66.687073 55.945847 67.809998 57.075001L 68.537506 57.800003M 21.372499 49.535L 25.337502 45.567501C 26.474022 44.43515 28.250288 44.258568 29.5875 45.145L 29.5875 45.145C 29.77158 45.268944 29.943214 45.410439 30.1 45.567497C 31.415752 46.884323 31.415752 49.018177 30.1 50.335003L 27.2875 53.150002L 27.2875 57.785C 27.564375 59.419701 26.885159 61.069225 25.5375 62.034996L 18 66.5M 11.455 57.785L 12.1825 57.059998C 13.305428 55.930843 13.934758 54.402466 13.9325 52.809998L 13.9325 47.267498C 13.932169 44.882645 14.677816 42.557415 16.065001 40.6175L 25.3825 32.379997M 54.675003 45.567501L 54.675003 20.5C 54.673618 19.447088 53.820412 18.593878 52.767494 18.592499L 45.139999 18.592501C 45.139999 15.784132 42.863365 13.5075 40.055 13.5075C 37.246632 13.5075 34.970001 15.784132 34.970001 18.592499L 27.345001 18.592501C 26.291517 18.592501 25.4375 19.446518 25.4375 20.5L 25.4375 45.567501M 27.345001 57.592503L 52.767502 57.592503M 30.442501 26.557501L 38.5425 26.557501M 47.467503 26.557501L 49.802498 26.557501M 30.442501 32.392498L 38.5425 32.392498M 47.467503 32.392498L 49.802498 32.392498M 30.442501 39.602501L 38.5425 39.602501M 47.467503 39.602501L 49.802498 39.602501"></path></g></g></g><g id="g-root-tx_listingr_4pg6fz1cbg001-stroke" data-item-order="0" transform="translate(291, 519)"></g></g></g></svg>