<?xml version="1.0" encoding="utf-8" standalone="yes"?>
<!DOCTYPE svg PUBLIC "-//W3C//DTD SVG 1.1//EN" "http://www.w3.org/Graphics/SVG/1.1/DTD/svg11.dtd">
<svg width="722" height="518" viewBox="0 0 722 518" style="fill:none;stroke:none;fill-rule:evenodd;clip-rule:evenodd;stroke-linecap:round;stroke-linejoin:round;stroke-miterlimit:1.5;" version="1.1" xmlns="http://www.w3.org/2000/svg" xmlns:xlink="http://www.w3.org/1999/xlink"><style class="text-font-style fontImports" data-font-family="Roboto">@import url('https://fonts.googleapis.com/css2?family=Roboto:wght@400;700&amp;display=block');</style><rect id="" x="0" y="0" width="722" height="518" style="fill: #ffffff;"></rect><g id="items" style="isolation: isolate"><g id="blend" style="mix-blend-mode: normal"><g id="g-root-tf_1czw0f51fdlb7p-fill" data-item-order="-371520" transform="translate(-9, -9)"><g id="tf_1czw0f51fdlb7p-fill" stroke="none" fill="#ffffff"><g><path d="M 10 10L 730 10L 730 526L 10 526Z"></path></g></g></g><g id="g-root-3.cr-small_cr_1cz96ox1fdh3ph-fill" data-item-order="-117282" transform="translate(170, 99)"><g id="3.cr-small_cr_1cz96ox1fdh3ph-fill" stroke="none" fill="#de8431"><g><path d="M 10 46C 10 65.882251 26.117749 82 46 82C 65.882251 82 82 65.882251 82 46C 82 26.117749 65.882251 10 46 10C 26.117749 10 10 26.117749 10 46"></path></g></g></g><g id="g-root-2.cr-small_cr_143m6g11fdh4i6-fill" data-item-order="-117278" transform="translate(315, 351)"><g id="2.cr-small_cr_143m6g11fdh4i6-fill" stroke="none" fill="#e0cb15"><g><path d="M 10 46C 10 65.882251 26.117749 82 46 82C 65.882251 82 82 65.882251 82 46C 82 26.117749 65.882251 10 46 10C 26.117749 10 10 26.117749 10 46"></path></g></g></g><g id="g-root-1.cr-small_cr_143m6g11fdh4i7-fill" data-item-order="-117274" transform="translate(460.0001220703125, 99)"><g id="1.cr-small_cr_143m6g11fdh4i7-fill" stroke="none" fill="#3cc583"><g><path d="M 10 46C 10 65.882251 26.117749 82 46 82C 65.882251 82 82 65.882251 82 46C 82 26.117749 65.882251 10 46 10C 26.117749 10 10 26.117749 10 46"></path></g></g></g><g id="g-root-0.cu_sy_v8lna91fdh2ww-fill" data-item-order="-117270" transform="translate(254.03866577148438, 147)"><g id="0.cu_sy_v8lna91fdh2ww-fill" stroke="none" fill="#666666"><g><path d="M 172.006 51.0879C 176.465 60.4542 178.961 70.9356 178.961 82C 178.961 119.817 149.805 150.825 112.745 153.771L 112.745 180.035L 119.85 180.035L 106.9578 194L 94.0653 180.035L 101.2417 180.035L 101.2417 153.776C 64.1511 150.861 34.9612 119.839 34.9612 82C 34.9612 70.9048 37.4709 60.3957 41.9535 51.0095L 19.2006 37.8731L 15.6481 44.0263L 10 25.8783L 28.5406 21.6958L 24.9524 27.9107L 47.7262 41.0592C 60.7216 22.2923 82.4059 10 106.9612 10C 131.548 10.000003 153.256 22.3235 166.246 41.1306L 189.089 27.9421L 185.536 21.789L 204.077 25.9716L 198.429 44.1195L 194.84 37.9045L 172.006 51.0879Z"></path></g></g></g><g id="g-root-tx_improvin_zpo3kx1fdh4as-fill" data-item-order="0" transform="translate(231, 39)"><g id="tx_improvin_zpo3kx1fdh4as-fill" stroke="none" fill="#484848"><g><text style="font: 20px Roboto, sans-serif; white-space: pre;" font-size="20px" font-family="Roboto, sans-serif"><tspan x="14.94" y="34" dominant-baseline="ideographic">Improving Product Quality</tspan></text></g></g></g><g id="g-root-tx_manufact_mcyn1d1fdh3pl-fill" data-item-order="0" transform="translate(15, 111)"><g id="tx_manufact_mcyn1d1fdh3pl-fill" stroke="none" fill="#4c4034"><g><text style="font: 20px Roboto, sans-serif; white-space: pre;" font-size="20px" font-family="Roboto, sans-serif"><tspan x="21.8" y="34" dominant-baseline="ideographic">Manufacturing </tspan><tspan x="49.71" y="58" dominant-baseline="ideographic">Techniques</tspan></text></g></g></g><g id="g-root-2_vccra91fdebkc-fill" data-item-order="0" transform="translate(181, 111)"></g><g id="g-root-crea_hvw9wh1fdpi4n-fill" data-item-order="0" transform="translate(473, 111)"></g><g id="g-root-tx_productd_1hgbmzl1fdh53f-fill" data-item-order="0" transform="translate(543, 123)"><g id="tx_productd_1hgbmzl1fdh53f-fill" stroke="none" fill="#374840"><g><text style="font: 20px Roboto, sans-serif; white-space: pre;" font-size="20px" font-family="Roboto, sans-serif"><tspan x="12" y="34" dominant-baseline="ideographic">Product Design</tspan></text></g></g></g><g id="g-root-grap_dj721t1fdh3il-fill" data-item-order="0" transform="translate(315, 182.99609375)"></g><g id="g-root-chec_1uua4v51fdih3h-fill" data-item-order="0" transform="translate(327, 363)"></g><g id="g-root-tx_material_4mb3mp1fdh2wy-fill" data-item-order="0" transform="translate(267, 435)"><g id="tx_material_4mb3mp1fdh2wy-fill" stroke="none" fill="#46432d"><g><text style="font: 20px Roboto, sans-serif; white-space: pre;" font-size="20px" font-family="Roboto, sans-serif"><tspan x="13.94" y="34" dominant-baseline="ideographic">Material Selection</tspan></text></g></g></g><g id="g-root-tf_1czw0f51fdlb7p-stroke" data-item-order="-371520" transform="translate(-9, -9)"></g><g id="g-root-3.cr-small_cr_1cz96ox1fdh3ph-stroke" data-item-order="-117282" transform="translate(170, 99)"><g id="3.cr-small_cr_1cz96ox1fdh3ph-stroke" fill="none" stroke-linecap="round" stroke-linejoin="round" stroke-miterlimit="4" stroke="#ffffff" stroke-width="2"><g><path d="M 10 46C 10 65.882251 26.117749 82 46 82C 65.882251 82 82 65.882251 82 46C 82 26.117749 65.882251 10 46 10C 26.117749 10 10 26.117749 10 46"></path></g></g></g><g id="g-root-2.cr-small_cr_143m6g11fdh4i6-stroke" data-item-order="-117278" transform="translate(315, 351)"><g id="2.cr-small_cr_143m6g11fdh4i6-stroke" fill="none" stroke-linecap="round" stroke-linejoin="round" stroke-miterlimit="4" stroke="#ffffff" stroke-width="2"><g><path d="M 10 46C 10 65.882251 26.117749 82 46 82C 65.882251 82 82 65.882251 82 46C 82 26.117749 65.882251 10 46 10C 26.117749 10 10 26.117749 10 46"></path></g></g></g><g id="g-root-1.cr-small_cr_143m6g11fdh4i7-stroke" data-item-order="-117274" transform="translate(460.0001220703125, 99)"><g id="1.cr-small_cr_143m6g11fdh4i7-stroke" fill="none" stroke-linecap="round" stroke-linejoin="round" stroke-miterlimit="4" stroke="#ffffff" stroke-width="2"><g><path d="M 10 46C 10 65.882251 26.117749 82 46 82C 65.882251 82 82 65.882251 82 46C 82 26.117749 65.882251 10 46 10C 26.117749 10 10 26.117749 10 46"></path></g></g></g><g id="g-root-0.cu_sy_v8lna91fdh2ww-stroke" data-item-order="-117270" transform="translate(254.03866577148438, 147)"><g id="0.cu_sy_v8lna91fdh2ww-stroke" fill="none" stroke-linecap="round" stroke-linejoin="round" stroke-miterlimit="4" stroke="#ffffff" stroke-width="2"><g><path d="M 172.0063 51.0879C 176.4655 60.4542 178.9612 70.9357 178.9612 82C 178.9612 119.8175 149.8052 150.8252 112.7453 153.7711L 112.7453 180.0352L 119.8504 180.0352L 106.9578 194.0005L 94.0653 180.0352L 101.2417 180.0352L 101.2417 153.7762C 64.1511 150.8612 34.9612 119.8394 34.9612 82C 34.9612 70.9048 37.4709 60.3957 41.9535 51.0096L 19.2006 37.8731L 15.6481 44.0263L 10 25.8783L 28.5406 21.6958L 24.9524 27.9107L 47.7262 41.0592C 60.7216 22.2923 82.4059 10 106.9612 10C 131.5477 10 153.2558 22.3235 166.2456 41.1306L 189.0887 27.9421L 185.5362 21.789L 204.0768 25.9716L 198.4287 44.1195L 194.8405 37.9045L 172.0063 51.0879Z"></path></g></g></g><g id="g-root-tx_improvin_zpo3kx1fdh4as-stroke" data-item-order="0" transform="translate(231, 39)"></g><g id="g-root-tx_manufact_mcyn1d1fdh3pl-stroke" data-item-order="0" transform="translate(15, 111)"></g><g id="g-root-2_vccra91fdebkc-stroke" data-item-order="0" transform="translate(181, 111)"><g id="2_vccra91fdebkc-stroke" fill="none" stroke-linecap="round" stroke-linejoin="round" stroke-miterlimit="4" stroke="#ffffff" stroke-width="2"><g><path d="M 56.5 51.43C 56.5 54.191425 54.261425 56.43 51.5 56.43L 16.5 56.43C 13.738577 56.43 11.5 54.191425 11.5 51.43C 11.5 48.668575 13.738577 46.43 16.5 46.43L 51.5 46.43C 54.261425 46.43 56.5 48.668575 56.5 51.43ZM 18 36.099998L 27.4 36.099998C 28.50457 36.099998 29.4 36.99543 29.4 38.099998L 29.4 46.431999L 29.4 46.431999L 16 46.431999L 16 46.431999L 16 38.099998C 16 36.99543 16.895432 36.099998 18 36.099998ZM 39.540001 36.099998L 48.939999 36.099998C 50.044571 36.099998 50.939999 36.99543 50.939999 38.099998L 50.939999 46.431999L 50.939999 46.431999L 37.540001 46.431999L 37.540001 46.431999L 37.540001 38.099998C 37.540001 36.99543 38.435432 36.099998 39.540001 36.099998ZM 18 51.43C 18 51.982285 18.447716 52.43 19 52.43C 19.552284 52.43 20 51.982285 20 51.43C 20 50.877716 19.552284 50.43 19 50.43C 18.447716 50.43 18 50.877716 18 51.43M 28 51.43C 28 51.982285 28.447716 52.43 29 52.43C 29.552284 52.43 30 51.982285 30 51.43C 30 50.877716 29.552284 50.43 29 50.43C 28.447716 50.43 28 50.877716 28 51.43M 38.084 51.43C 38.084 51.982285 38.531715 52.43 39.084 52.43C 39.636284 52.43 40.084 51.982285 40.084 51.43C 40.084 50.877716 39.636284 50.43 39.084 50.43C 38.531715 50.43 38.084 50.877716 38.084 51.43M 48.084 51.43C 48.084 51.982285 48.531715 52.43 49.084 52.43C 49.636284 52.43 50.084 51.982285 50.084 51.43C 50.084 50.877716 49.636284 50.43 49.084 50.43C 48.531715 50.43 48.084 50.877716 48.084 51.43M 51.400002 25.799999L 36.765999 25.799999C 34.900009 25.800526 33.387047 24.287989 33.387047 22.422001C 33.387047 20.556011 34.900009 19.043476 36.765999 19.043999L 51.400002 19.043999M 48.026001 22.422001C 48.025475 24.287989 49.53801 25.800949 51.403999 25.800949C 53.269989 25.800949 54.782524 24.287989 54.781998 22.422001C 54.782524 20.556011 53.269989 19.043049 51.403999 19.043049C 49.53801 19.043049 48.025475 20.556011 48.025997 22.422001M 49.716 11.57L 53.655998 19.903999M 47.498001 19.043999L 44.084 11.57M 27.756001 22.422001L 33.386002 22.422001M 21 19.043999L 27.756001 19.043999L 27.756001 25.799999L 21 25.799999ZM 24.378 25.799999L 24.378 31.43"></path></g></g></g><g id="g-root-crea_hvw9wh1fdpi4n-stroke" data-item-order="0" transform="translate(473, 111)"><g id="crea_hvw9wh1fdpi4n-stroke" fill="none" stroke-linecap="round" stroke-linejoin="round" stroke-miterlimit="4" stroke="#ffffff" stroke-width="2"><g><path d="M 39 30.799999L 32 32.799999L 34 25.799999L 48.292 11.498C 48.479607 11.309916 48.734344 11.204212 49 11.204212C 49.265656 11.204212 49.520393 11.309916 49.708 11.498L 53.292 15.084C 53.682381 15.4745 53.682381 16.1075 53.292 16.498001ZM 45 14.792L 50 19.792M 33.996002 25.793999L 38.996002 30.794001M 54 20.799999L 56 20.799999C 56.552284 20.799999 57 21.247715 57 21.799999L 57 55.799999C 57 56.352283 56.552284 56.799999 56 56.799999L 12 56.799999C 11.447716 56.799999 11 56.352283 11 55.799999L 11 21.799999C 11 21.247715 11.447716 20.799999 12 20.799999L 34 20.799999M 26 26.799999L 18 26.799999C 17.447716 26.799999 17 27.247715 17 27.799999L 17 49.799999C 17 50.352283 17.447716 50.799999 18 50.799999L 35 50.799999L 35 43.799999C 35 43.247715 35.447716 42.799999 36 42.799999L 44 42.799999C 44.552284 42.799999 45 43.247715 45 43.799999L 45 50.799999L 50 50.799999C 50.552284 50.799999 51 50.352283 51 49.799999L 51 27.799999M 35 46.793999L 45 46.793999M 35 50.793999L 45 50.793999M 17 36.793999L 26 36.793999M 42 38.793999L 51 38.793999M 42 34.793999L 51 34.793999M 17 42.799999L 24 42.799999C 24.552284 42.799999 25 43.247715 25 43.799999L 25 50.799999"></path></g></g></g><g id="g-root-tx_productd_1hgbmzl1fdh53f-stroke" data-item-order="0" transform="translate(543, 123)"></g><g id="g-root-grap_dj721t1fdh3il-stroke" data-item-order="0" transform="translate(315, 182.99609375)"><g id="grap_dj721t1fdh3il-stroke" fill="none" stroke-linecap="round" stroke-linejoin="round" stroke-miterlimit="4" stroke="#ffffff" stroke-width="2"><g><path d="M 17.469999 40.329998C 17.349724 39.334534 17.289614 38.33271 17.290001 37.330002C 17.277348 26.513988 24.952595 17.215141 35.574883 15.177188C 46.19717 13.139233 56.768856 18.937288 60.760002 28.990002M 55.75 53.260002L 62.260002 59.77M 79 70.57C 80.203918 71.691826 80.699493 73.381332 80.292313 74.975739C 79.885132 76.570129 78.640137 77.815132 77.045731 78.222313C 75.45134 78.629494 73.761826 78.133919 72.639999 76.930008L 61 65.260002C 60.432064 64.696701 60.112602 63.929909 60.112602 63.129997C 60.112602 62.33009 60.432064 61.563301 61 61L 63.129997 58.870003C 63.693298 58.302063 64.460083 57.982605 65.260002 57.982605C 66.059914 57.982605 66.826706 58.302063 67.389999 58.870003ZM 64.029999 13.75L 76.029999 13.75L 76.029999 25.75M 62.32 38.68C 61.712887 48.881485 54.31546 57.396614 44.299011 59.42384C 34.282562 61.451057 24.156189 56.482563 19.630001 47.32M 76 13.75L 49.300003 40.48C 48.12989 41.643173 46.240112 41.643173 45.07 40.48L 37.900002 33.279999C 36.729889 32.116829 34.840115 32.116829 33.669998 33.279999L 11.65 55.300003"></path></g></g></g><g id="g-root-chec_1uua4v51fdih3h-stroke" data-item-order="0" transform="translate(327, 363)"><g id="chec_1uua4v51fdih3h-stroke" fill="none" stroke-linecap="round" stroke-linejoin="round" stroke-miterlimit="4" stroke="#ffffff" stroke-width="2"><g><path d="M 33.059998 44.993999C 33.060001 51.621418 38.432587 56.993999 45.060001 56.993999C 51.68742 56.993999 57.060001 51.621418 57.060001 44.993999C 57.060001 38.366585 51.68742 32.994003 45.060001 32.994003C 38.432587 32.994003 33.060001 38.366585 33.060001 44.993999ZM 50.400002 41.506001L 44.599998 49.254002C 44.338993 49.601555 43.94006 49.818806 43.506496 49.849503C 43.072933 49.880196 42.647373 49.721317 42.34 49.414001L 39.34 46.414001M 29.059999 47L 15.059999 47C 12.850861 47 11.059999 45.209141 11.059999 43L 11.059999 15.012C 11.059999 12.802861 12.850861 11.012 15.059999 11.012L 43.060001 11.012C 45.269138 11.012 47.060001 12.802861 47.060001 15.012L 47.060001 29.011999M 11.059999 23.012001L 47.060001 23.012001M 11.059999 34.993999L 31.059999 34.993999M 35.059998 11.012L 35.059998 31.011999M 23.060001 11.012L 23.060001 46.993999"></path></g></g></g><g id="g-root-tx_material_4mb3mp1fdh2wy-stroke" data-item-order="0" transform="translate(267, 435)"></g></g></g></svg>