<?xml version="1.0" encoding="utf-8" standalone="yes"?>
<!DOCTYPE svg PUBLIC "-//W3C//DTD SVG 1.1//EN" "http://www.w3.org/Graphics/SVG/1.1/DTD/svg11.dtd">
<svg width="434" height="590" viewBox="0 0 434 590" style="fill:none;stroke:none;fill-rule:evenodd;clip-rule:evenodd;stroke-linecap:round;stroke-linejoin:round;stroke-miterlimit:1.5;" version="1.1" xmlns="http://www.w3.org/2000/svg" xmlns:xlink="http://www.w3.org/1999/xlink"><style class="text-font-style fontImports" data-font-family="Roboto">@import url('https://fonts.googleapis.com/css2?family=Roboto:wght@400;700&amp;display=block');</style><rect id="" x="0" y="0" width="434" height="590" style="fill: #ffffff;"></rect><g id="items" style="isolation: isolate"><g id="blend" style="mix-blend-mode: normal"><g id="g-root-tf_v7csbz1brqmtr-fill" data-item-order="-254016" transform="translate(-9, -9)"><g id="tf_v7csbz1brqmtr-fill" stroke="none" fill="#ffffff"><g><path d="M 10 10L 442 10L 442 598L 10 598Z"></path></g></g></g><g id="g-root-1.g-1_fr_1lxe6i71brp6o7-fill" data-item-order="-175094" transform="translate(39, 231)"><g id="1.g-1_fr_1lxe6i71brp6o7-fill" stroke="none" fill="#1eabda"><g><path d="M 130 202L 106 170L 136 130L 160 162L 130 202ZM 130 10L 106 42L 136 82L 160 50L 130 10ZM 166 106L 202 106L 184 82L 166 106ZM 184 130L 202 106L 166 106L 184 130Z"></path></g></g><g id="1.g-1_fr_1lxe6i71brp6o7-fill" stroke="none" fill="#1eabda"><g><path d="M 10 106L 82 202L 130 202L 106 170L 58 106L 10 106ZM 82 10L 10 106L 58 106L 106 42L 130 10L 82 10Z"></path></g></g></g><g id="g-root-2.g-2_fr_146qn3j1brp5vm-fill" data-item-order="-175090" transform="translate(147, 255)"><g id="2.g-2_fr_146qn3j1brp5vm-fill" stroke="none" fill="#3cc583"><g><path d="M 88 42L 112 10L 142 50L 118 82L 142 114L 112 154L 88 122L 118 82L 88 42Z"></path></g></g><g id="2.g-2_fr_146qn3j1brp5vm-fill" stroke="none" fill="#3cc583"><g><path d="M 10 82L 64 154L 112 154L 88 122L 58 82L 10 82ZM 64 10L 10 82L 58 82L 88 42L 112 10L 64 10Z"></path></g></g></g><g id="g-root-3.g-3_fr_qva4q71brp7gl-fill" data-item-order="-175086" transform="translate(255, 279)"><g id="3.g-3_fr_qva4q71brp7gl-fill" stroke="none" fill="#92bd39"><g><path d="M 93.880184 106L 129.760284 58L 82.000284 58L 70.333984 74.5L 93.880184 106ZM 129.760284 58L 93.880184 10L 70.333984 41.5L 82.000284 58L 129.760284 58Z"></path></g></g><g id="3.g-3_fr_qva4q71brp7gl-fill" stroke="none" fill="#92bd39"><g><path d="M 45.88 10L 10 58L 58 58L 70.3337 41.5L 93.88 10L 45.88 10ZM 10 58L 45.88 106L 93.88 106L 70.3337 74.5L 58 58L 10 58Z"></path></g></g></g><g id="g-root-tx_productd_94mlbj1brp6o0-fill" data-item-order="0" transform="translate(69, 39)"><g id="tx_productd_94mlbj1brp6o0-fill" stroke="none" fill="#484848"><g><text style="font: 20px Roboto, sans-serif; white-space: pre;" font-size="20px" font-family="Roboto, sans-serif"><tspan x="13.41" y="34" dominant-baseline="ideographic">Product Development Process</tspan></text></g></g></g><g id="g-root-tx_designpr_1hjg3n31brp6gx-fill" data-item-order="0" transform="translate(63, 99)"><g id="tx_designpr_1hjg3n31brp6gx-fill" stroke="none" fill="#1eabda"><g><text style="font: bold 20px Roboto, sans-serif; white-space: pre;" font-weight="bold" font-size="20px" font-family="Roboto, sans-serif"><tspan x="13.09" y="34" dominant-baseline="ideographic">Design Product</tspan></text></g></g></g><g id="g-root-tx_creating_147zl9r1brp81u-fill" data-item-order="0" transform="translate(63, 135)"><g id="tx_creating_147zl9r1brp81u-fill" stroke="none" fill="#32444a"><g><text style="font: 15px Roboto, sans-serif; white-space: pre;" font-size="15px" font-family="Roboto, sans-serif"><tspan x="23.64" y="30.6" dominant-baseline="ideographic">Creating detailed </tspan><tspan x="22.31" y="48.6" dominant-baseline="ideographic">specifications for </tspan><tspan x="42.01" y="66.6" dominant-baseline="ideographic">the product</tspan></text></g></g></g><g id="g-root-tx_finalize_zk1x0v1brqln1-fill" data-item-order="0" transform="translate(237, 123)"><g id="tx_finalize_zk1x0v1brqln1-fill" stroke="none" fill="#92bd39"><g><text style="font: bold 20px Roboto, sans-serif; white-space: pre;" font-weight="bold" font-size="20px" font-family="Roboto, sans-serif"><tspan x="47.2" y="34" dominant-baseline="ideographic">Finalize </tspan><tspan x="39.66" y="58" dominant-baseline="ideographic">Materials</tspan></text></g></g></g><g id="g-root-tx_selectin_htedm71brqkue-fill" data-item-order="0" transform="translate(237, 183)"><g id="tx_selectin_htedm71brqkue-fill" stroke="none" fill="#424736"><g><text style="font: 15px Roboto, sans-serif; white-space: pre;" font-size="15px" font-family="Roboto, sans-serif"><tspan x="20.86" y="30.6" dominant-baseline="ideographic">Selecting the final </tspan><tspan x="34.59" y="48.6" dominant-baseline="ideographic">materials and </tspan><tspan x="38.27" y="66.6" dominant-baseline="ideographic">components</tspan></text></g></g></g><g id="g-root-tx_createpr_dbpg8f1brqmmb-fill" data-item-order="0" transform="translate(153, 435)"><g id="tx_createpr_dbpg8f1brqmmb-fill" stroke="none" fill="#3cc583"><g><text style="font: bold 20px Roboto, sans-serif; white-space: pre;" font-weight="bold" font-size="20px" font-family="Roboto, sans-serif"><tspan x="52.36" y="34" dominant-baseline="ideographic">Create </tspan><tspan x="38.06" y="58" dominant-baseline="ideographic">Prototype</tspan></text></g></g></g><g id="g-root-tx_building_1q6cgof1brqln0-fill" data-item-order="0" transform="translate(153, 495)"><g id="tx_building_1q6cgof1brqln0-fill" stroke="none" fill="#374840"><g><text style="font: 15px Roboto, sans-serif; white-space: pre;" font-size="15px" font-family="Roboto, sans-serif"><tspan x="16.07" y="27.6" dominant-baseline="ideographic">Building a model to </tspan><tspan x="30.84" y="45.6" dominant-baseline="ideographic">test the design</tspan></text></g></g></g><g id="g-root-tf_v7csbz1brqmtr-stroke" data-item-order="-254016" transform="translate(-9, -9)"></g><g id="g-root-1.g-1_fr_1lxe6i71brp6o7-stroke" data-item-order="-175094" transform="translate(39, 231)"><g id="1.g-1_fr_1lxe6i71brp6o7-stroke" fill="none" stroke-linecap="round" stroke-linejoin="round" stroke-miterlimit="4" stroke="#ffffff" stroke-width="2"><g><path d="M 130 202L 106 170L 136 130L 160 162L 130 202ZM 130 10L 106 42L 136 82L 160 50L 130 10ZM 166 106L 202 106L 184 82L 166 106ZM 184 130L 202 106L 166 106L 184 130Z"></path></g></g><g id="1.g-1_fr_1lxe6i71brp6o7-stroke" fill="none" stroke-linecap="round" stroke-linejoin="round" stroke-miterlimit="4" stroke="#ffffff" stroke-width="2"><g><path d="M 10 106L 82 202L 130 202L 58 106L 10 106ZM 82 10L 10 106L 58 106L 130 10L 82 10Z"></path></g></g></g><g id="g-root-2.g-2_fr_146qn3j1brp5vm-stroke" data-item-order="-175090" transform="translate(147, 255)"><g id="2.g-2_fr_146qn3j1brp5vm-stroke" fill="none" stroke-linecap="round" stroke-linejoin="round" stroke-miterlimit="4" stroke="#ffffff" stroke-width="2"><g><path d="M 88 42L 112 10L 142 50L 118 82L 142 114L 112 154L 88 122L 118 82L 88 42Z"></path></g></g><g id="2.g-2_fr_146qn3j1brp5vm-stroke" fill="none" stroke-linecap="round" stroke-linejoin="round" stroke-miterlimit="4" stroke="#ffffff" stroke-width="2"><g><path d="M 10 82L 64 154L 112 154L 58 82L 10 82ZM 64 10L 10 82L 58 82L 112 10L 64 10Z"></path></g></g></g><g id="g-root-3.g-3_fr_qva4q71brp7gl-stroke" data-item-order="-175086" transform="translate(255, 279)"><g id="3.g-3_fr_qva4q71brp7gl-stroke" fill="none" stroke-linecap="round" stroke-linejoin="round" stroke-miterlimit="4" stroke="#ffffff" stroke-width="2"><g><path d="M 93.880184 106L 129.760284 58L 82.000284 58L 70.333984 74.5L 93.880184 106ZM 129.760284 58L 93.880184 10L 70.333984 41.5L 82.000284 58L 129.760284 58Z"></path></g></g><g id="3.g-3_fr_qva4q71brp7gl-stroke" fill="none" stroke-linecap="round" stroke-linejoin="round" stroke-miterlimit="4" stroke="#ffffff" stroke-width="2"><g><path d="M 45.88 10L 10 58L 58 58L 93.88 10L 45.88 10ZM 10 58L 45.88 106L 93.88 106L 58 58L 10 58Z"></path></g></g></g><g id="g-root-tx_productd_94mlbj1brp6o0-stroke" data-item-order="0" transform="translate(69, 39)"></g><g id="g-root-tx_designpr_1hjg3n31brp6gx-stroke" data-item-order="0" transform="translate(63, 99)"></g><g id="g-root-tx_creating_147zl9r1brp81u-stroke" data-item-order="0" transform="translate(63, 135)"></g><g id="g-root-tx_finalize_zk1x0v1brqln1-stroke" data-item-order="0" transform="translate(237, 123)"></g><g id="g-root-tx_selectin_htedm71brqkue-stroke" data-item-order="0" transform="translate(237, 183)"></g><g id="g-root-tx_createpr_dbpg8f1brqmmb-stroke" data-item-order="0" transform="translate(153, 435)"></g><g id="g-root-tx_building_1q6cgof1brqln0-stroke" data-item-order="0" transform="translate(153, 495)"></g></g></g></svg>