<?xml version="1.0" encoding="utf-8" standalone="yes"?>
<!DOCTYPE svg PUBLIC "-//W3C//DTD SVG 1.1//EN" "http://www.w3.org/Graphics/SVG/1.1/DTD/svg11.dtd">
<svg width="927" height="290" viewBox="0 0 927 290" style="fill:none;stroke:none;fill-rule:evenodd;clip-rule:evenodd;stroke-linecap:round;stroke-linejoin:round;stroke-miterlimit:1.5;" version="1.1" xmlns="http://www.w3.org/2000/svg" xmlns:xlink="http://www.w3.org/1999/xlink"><style class="text-font-style fontImports" data-font-family="Roboto">@import url('https://fonts.googleapis.com/css2?family=Roboto:wght@400;700&amp;display=block');</style><rect id="" x="0" y="0" width="926.254" height="290" style="fill: #ffffff;"></rect><g id="items" style="isolation: isolate"><g id="blend" style="mix-blend-mode: normal"><g id="g-root-tf_zitue91e9k4ci-fill" data-item-order="-266185" transform="translate(-9, -9)"><g id="tf_zitue91e9k4ci-fill" stroke="none" fill="#ffffff"><g><path d="M 9.996831 10L 934.246831 10L 934.246831 298L 9.996831 298Z"></path></g></g></g><g id="g-root-1.cu_sy_1hd88bl1e9iozm-fill" data-item-order="-35754" transform="translate(334.3310546875, 75)"><g id="1.cu_sy_1hd88bl1e9iozm-fill" stroke="none" fill="#4e88e7"><g><path d="M 140.67 34L 140.67 10L 92.6699 10L 92.6699 34C 92.6699 53.8822 76.5513 70 56.6691 70L 56.6691 47.3309L 10 94L 56.669 140.669L 56.669 118C 103.061 118 140.67 80.3919 140.67 34Z"></path></g></g></g><g id="g-root-2.cu_sy_141rpy91e9iqkj-fill" data-item-order="-35750" transform="translate(477.33197021484375, 75)"><g id="2.cu_sy_141rpy91e9iqkj-fill" stroke="none" fill="#3cc583"><g><path d="M 10 34L 10 10L 57.9998 10L 57.9998 34C 57.9998 53.8822 74.1184 70 94.0006 70L 94.0006 47.3309L 140.67 94L 94.0007 140.669L 94.0007 118C 47.6087 118 10 80.3919 10 34Z"></path></g></g></g><g id="g-root-tx_howtoadd_zqy0ip1e9iqrr-fill" data-item-order="0" transform="translate(309, 39)"><g id="tx_howtoadd_zqy0ip1e9iqrr-fill" stroke="none" fill="#484848"><g><text style="font: bold 20px Roboto, sans-serif; white-space: pre;" font-weight="bold" font-size="20px" font-family="Roboto, sans-serif"><tspan x="12.32" y="34" dominant-baseline="ideographic">How to address the product defect?</tspan></text></g></g></g><g id="g-root-tx_poorasse_1ut22ap1e9ipzh-fill" data-item-order="0" transform="translate(15, 147)"><g id="tx_poorasse_1ut22ap1e9ipzh-fill" stroke="none" fill="#4e88e7"><g><text style="font: bold 20px Roboto, sans-serif; white-space: pre;" font-weight="bold" font-size="20px" font-family="Roboto, sans-serif"><tspan x="14.92" y="34" dominant-baseline="ideographic">Poor Assembly/ Faulty Materials</tspan></text></g></g></g><g id="g-root-tx_designfl_dhclk11e9ipkx-fill" data-item-order="0" transform="translate(627.253662109375, 147)"><g id="tx_designfl_dhclk11e9ipkx-fill" stroke="none" fill="#3cc583"><g><text style="font: bold 20px Roboto, sans-serif; white-space: pre;" font-weight="bold" font-size="20px" font-family="Roboto, sans-serif"><tspan x="12" y="34" dominant-baseline="ideographic">Design Flaw</tspan></text></g></g></g><g id="g-root-tx_repairor_zp2l9d1e9irrf-fill" data-item-order="0" transform="translate(51, 183)"><g id="tx_repairor_zp2l9d1e9irrf-fill" stroke="none" fill="#3a4455"><g><text style="font: 20px Roboto, sans-serif; white-space: pre;" font-size="20px" font-family="Roboto, sans-serif"><tspan x="15.34" y="34" dominant-baseline="ideographic">Repair or replace the product</tspan></text></g></g></g><g id="g-root-tx_revisebo_18iu68x1e9iryf-fill" data-item-order="0" transform="translate(627.253662109375, 183)"><g id="tx_revisebo_18iu68x1e9iryf-fill" stroke="none" fill="#374840"><g><text style="font: 20px Roboto, sans-serif; white-space: pre;" font-size="20px" font-family="Roboto, sans-serif"><tspan x="12" y="34" dominant-baseline="ideographic">Revise BOM and production </tspan><tspan x="12" y="58" dominant-baseline="ideographic">process</tspan></text></g></g></g><g id="g-root-tf_zitue91e9k4ci-stroke" data-item-order="-266185" transform="translate(-9, -9)"></g><g id="g-root-1.cu_sy_1hd88bl1e9iozm-stroke" data-item-order="-35754" transform="translate(334.3310546875, 75)"><g id="1.cu_sy_1hd88bl1e9iozm-stroke" fill="none" stroke-linecap="round" stroke-linejoin="round" stroke-miterlimit="4" stroke="#ffffff" stroke-width="2"><g><path d="M 140.6697 34L 140.6697 10L 92.6699 10L 92.6699 34C 92.6699 53.8822 76.5513 70 56.6691 70L 56.6691 47.3309L 10 94L 56.669 140.669L 56.669 117.9999C 103.061 117.9999 140.6697 80.3919 140.6697 34Z"></path></g></g></g><g id="g-root-2.cu_sy_141rpy91e9iqkj-stroke" data-item-order="-35750" transform="translate(477.33197021484375, 75)"><g id="2.cu_sy_141rpy91e9iqkj-stroke" fill="none" stroke-linecap="round" stroke-linejoin="round" stroke-miterlimit="4" stroke="#ffffff" stroke-width="2"><g><path d="M 10 34L 10 10L 57.9998 10L 57.9998 34C 57.9998 53.8822 74.1184 70 94.0006 70L 94.0006 47.3309L 140.6697 94L 94.0007 140.669L 94.0007 117.9999C 47.6087 117.9999 10 80.3919 10 34Z"></path></g></g></g><g id="g-root-tx_howtoadd_zqy0ip1e9iqrr-stroke" data-item-order="0" transform="translate(309, 39)"></g><g id="g-root-tx_poorasse_1ut22ap1e9ipzh-stroke" data-item-order="0" transform="translate(15, 147)"></g><g id="g-root-tx_designfl_dhclk11e9ipkx-stroke" data-item-order="0" transform="translate(627.253662109375, 147)"></g><g id="g-root-tx_repairor_zp2l9d1e9irrf-stroke" data-item-order="0" transform="translate(51, 183)"></g><g id="g-root-tx_revisebo_18iu68x1e9iryf-stroke" data-item-order="0" transform="translate(627.253662109375, 183)"></g></g></g></svg>